<svg xmlns="http://www.w3.org/2000/svg" width="52" height="52" viewBox="0 0 52 52">
  <g fill="#2C2B2E" fill-rule="evenodd">
    <path d="M52,26 C52,11.6405965 40.3594035,0 26,0 C11.6405965,0 0,11.6405965 0,26 C0,40.3594035 11.6405965,52 26,52 C40.3594035,52 52,40.3594035 52,26 Z M2,26 C2,12.745166 12.745166,2 26,2 C39.254834,2 50,12.745166 50,26 C50,39.254834 39.254834,50 26,50 C12.745166,50 2,39.254834 2,26 Z"/>
    <g transform="translate(16 18)">
      <path d="M17,9 C17.5522847,9 18,8.55228475 18,8 C18,7.44771525 17.5522847,7 17,7 L1.5,7 C0.94771525,7 0.5,7.44771525 0.5,8 C0.5,8.55228475 0.94771525,9 1.5,9 L17,9 Z"/>
      <path d="M18.2291823,8.68503123 C18.6197066,8.29450694 18.6197066,7.66134196 18.2291823,7.27081767 C17.838658,6.88029338 17.2054931,6.88029338 16.8149688,7.27081767 L10.0753788,14.0104076 C9.68485451,14.4009319 9.68485451,15.0340969 10.0753788,15.4246212 C10.4659031,15.8151455 11.0990681,15.8151455 11.4895924,15.4246212 L18.2291823,8.68503123 Z"/>
      <path d="M16.8149688,8.72918233 C17.2054931,9.11970662 17.838658,9.11970662 18.2291823,8.72918233 C18.6197066,8.33865804 18.6197066,7.70549306 18.2291823,7.31496877 L11.4895924,0.575378798 C11.0990681,0.184854506 10.4659031,0.184854506 10.0753788,0.575378798 C9.68485451,0.965903089 9.68485451,1.59906807 10.0753788,1.98959236 L16.8149688,8.72918233 Z"/>
    </g>
  </g>
</svg>
