<?xml version="1.0" standalone="no"?>
<!DOCTYPE svg PUBLIC "-//W3C//DTD SVG 1.1//EN" "http://www.w3.org/Graphics/SVG/1.1/DTD/svg11.dtd" >
<svg>
<metadata>
Created by FontForge 20090914 at Sun Oct  2 21:00:12 2016
 By www-data
Copyright 2016 Google Inc. All Rights Reserved.
</metadata>
<defs>
<font id="SpaceMono-Regular" horiz-adv-x="612" >
  <font-face 
    font-family="Space Mono"
    font-weight="400"
    font-stretch="normal"
    units-per-em="1000"
    panose-1="2 0 5 9 4 0 0 2 0 4"
    ascent="800"
    descent="-200"
    x-height="496"
    cap-height="700"
    bbox="3.99805 -309 623.999 1089.99"
    underline-thickness="50"
    underline-position="-50"
    unicode-range="U+0020-U+FB02"
  />
<missing-glyph 
 />
    <glyph glyph-name="fi" unicode="fi" 
d="M384 644c0 19.333 6.83301 35.833 20.5 49.5s30.167 20.5 49.5 20.5s35.833 -6.83301 49.5 -20.5s20.5 -30.167 20.5 -49.5s-6.83301 -35.833 -20.5 -49.5s-30.167 -20.5 -49.5 -20.5s-35.833 6.83301 -49.5 20.5s-20.5 30.167 -20.5 49.5zM416 0v423.999h-173v-424h-78
v424h-117v72h117v106c0 22.667 7.16699 41.334 21.5 56.001s32.833 22 55.5 22h106v-72h-78c-18 0 -27 -10 -27 -30v-82h251v-496h-78z" />
    <glyph glyph-name="fl" unicode="fl" 
d="M416 628l-146 -0.000976562c-18 0 -27 -10 -27 -30v-102h125v-72h-125v-424h-78v424h-117v72h117v126c0 22.667 7.16699 41.334 21.5 56.001s32.833 22 55.5 22h252v-700h-78v628z" />
    <glyph glyph-name=".notdef" 
 />
    <glyph glyph-name="NULL" 
 />
    <glyph glyph-name="NULL" 
 />
    <glyph glyph-name="space" unicode=" " 
 />
    <glyph glyph-name="exclam" unicode="!" 
d="M236 56c0 19.333 6.83301 35.833 20.5 49.5s30.167 20.5 49.5 20.5s35.833 -6.83301 49.5 -20.5s20.5 -30.167 20.5 -49.5s-6.83301 -35.833 -20.5 -49.5s-30.167 -20.5 -49.5 -20.5s-35.833 6.83301 -49.5 20.5s-20.5 30.167 -20.5 49.5zM346 700v-514h-80v514h80z" />
    <glyph glyph-name="quotedbl" unicode="&#x22;" 
d="M327 644c0 19.333 6.83301 35.833 20.5 49.5s30.167 20.5 49.5 20.5s35.833 -6.83301 49.5 -20.5s20.5 -30.167 20.5 -49.5c0 -14.667 -4 -27.834 -12 -39.501s-18.333 -20.167 -31 -25.5v-111h-54v111c-12.667 5.33301 -23 13.833 -31 25.5s-12 24.834 -12 39.501z
M145 644c0 19.333 6.83301 35.833 20.5 49.5s30.167 20.5 49.5 20.5s35.833 -6.83301 49.5 -20.5s20.5 -30.167 20.5 -49.5c0 -14.667 -4 -27.834 -12 -39.501s-18.333 -20.167 -31 -25.5v-111h-54v111c-12.667 5.33301 -23 13.833 -31 25.5s-12 24.834 -12 39.501z" />
    <glyph glyph-name="numbersign" unicode="#" 
d="M360 102v122h-108v-122h-72v122h-110v72h110v108h-110v72h110v122h72v-122h108v122h72v-122h110v-72h-110v-108h110v-72h-110v-122h-72zM360 404h-108v-108h108v108z" />
    <glyph glyph-name="dollar" unicode="$" 
d="M334 608c23.333 -4 44.5 -10.832 63.5 -20.499s35.167 -21.5 48.5 -35.5s23.666 -29.5 30.999 -46.5s11 -34.833 11 -53.5v-18h-76v12c0 22 -7.16699 40.667 -21.5 56s-33.166 26 -56.499 32v-143c55.333 -6.66699 97.5 -21.834 126.5 -45.501s43.5 -56.167 43.5 -97.5
v-6c0 -44.667 -15.5 -80.5 -46.5 -107.5s-72.167 -42.167 -123.5 -45.5v-61h-72v63c-29.333 4.66699 -54.5 12.834 -75.5 24.501s-38.333 25.667 -52 42s-23.834 34 -30.501 53s-10 38.167 -10 57.5v24h76v-12c0 -32 8 -57.667 24 -77s38.667 -32.333 68 -39v163
c-50 6.66699 -88.167 21.167 -114.5 43.5s-39.5 53.5 -39.5 93.5v6c0 21.333 4.16699 40.166 12.5 56.499s19.5 30.333 33.5 42s30.333 21 49 28s38.334 11.5 59.001 13.5v62h72v-64zM426 242.001c0 23.333 -7.33301 40.668 -22 52.001s-38 19.666 -70 24.999v-158
c28.667 3.33301 51.167 12 67.5 26s24.5 32.333 24.5 55zM186 470.003c0 -18.667 5.5 -33.835 16.5 -45.502s30.833 -20.167 59.5 -25.5v139c-21.333 -3.33301 -39.333 -10.666 -54 -21.999s-22 -26.666 -22 -45.999z" />
    <glyph glyph-name="percent" unicode="%" 
d="M346 556c0 -24 -4 -45.167 -12 -63.5s-18.833 -34 -32.5 -47s-29.334 -22.833 -47.001 -29.5s-36.167 -10 -55.5 -10s-37.833 3.33301 -55.5 10s-33.334 16.5 -47.001 29.5s-24.5 28.667 -32.5 47s-12 39.5 -12 63.5s4 45.167 12 63.5s18.833 34 32.5 47
s29.334 22.833 47.001 29.5s36.167 10 55.5 10s37.833 -3.33301 55.5 -10s33.334 -16.5 47.001 -29.5s24.5 -28.667 32.5 -47s12 -39.5 12 -63.5zM199 460c26 0 47 8.83203 63 26.499s24 40.834 24 69.501s-8 51.834 -24 69.501s-37 26.5 -63 26.5s-47 -8.83301 -63 -26.5
s-24 -40.834 -24 -69.501c0 -32 8 -56 24 -72s37 -24 63 -24zM561 143.999c0 -24 -4 -45.167 -12 -63.5s-18.833 -34 -32.5 -47s-29.334 -22.833 -47.001 -29.5s-36.167 -10 -55.5 -10s-37.833 3.33301 -55.5 10s-33.334 16.5 -47.001 29.5s-24.5 28.667 -32.5 47
s-12 39.5 -12 63.5s4 45.167 12 63.5s18.833 34 32.5 47s29.334 22.833 47.001 29.5s36.167 10 55.5 10s37.833 -3.33301 55.5 -10s33.334 -16.5 47.001 -29.5s24.5 -28.667 32.5 -47s12 -39.5 12 -63.5zM414 47.999c26 0 47 8.83203 63 26.499s24 40.834 24 69.501
s-8 51.834 -24 69.501s-37 26.5 -63 26.5s-47 -8.83301 -63 -26.5s-24 -40.834 -24 -69.501c0 -32 8 -56 24 -72s37 -24 63 -24zM531 493.998l24 -46l-473 -241l-24 46z" />
    <glyph glyph-name="ampersand" unicode="&#x26;" 
d="M580 312l-97 0.00292969v-312h-224c-33.333 0 -63 4.66699 -89 14s-47.667 22.166 -65 38.499s-30.5 35.666 -39.5 57.999s-13.5 46.5 -13.5 72.5v12c0 38 11.333 70.167 34 96.5s50.667 44.166 84 53.499v12c-33.333 8.66699 -61.333 26.167 -84 52.5s-34 58.5 -34 96.5
v12c0 26 4.5 50.167 13.5 72.5s22.167 41.5 39.5 57.5s39 28.667 65 38s55.667 14 89 14h128v-78h-122c-39.333 0 -71.333 -9.83301 -96 -29.5s-37 -46.5 -37 -80.5v-6c0 -36 11.667 -64.333 35 -85s55 -31 95 -31h137v106h84v-106h97v-78zM399 78.0029v234.001h-137
c-40 0 -71.667 -10.5 -95 -31.5s-35 -49.5 -35 -85.5v-6c0 -34.667 12.333 -61.834 37 -81.501s56.667 -29.5 96 -29.5h134z" />
    <glyph glyph-name="quotesingle" unicode="'" 
d="M236 644c0 19.333 6.83301 35.833 20.5 49.5s30.167 20.5 49.5 20.5s35.833 -6.83301 49.5 -20.5s20.5 -30.167 20.5 -49.5c0 -14.667 -4 -27.834 -12 -39.501s-18.333 -20.167 -31 -25.5v-111h-54v111c-12.667 5.33301 -23 13.833 -31 25.5s-12 24.834 -12 39.501z" />
    <glyph glyph-name="parenleft" unicode="(" 
d="M546 -82v-74h-36c-46.667 0 -91.334 8.66699 -134.001 26s-80.334 42.5 -113.001 75.5s-58.667 72.833 -78 119.5s-29 99.667 -29 159v252c0 58.667 9.66699 111.5 29 158.5s45.333 87 78 120s70.334 58.167 113.001 75.5s87.334 26 134.001 26h36v-74h-36
c-36 0 -70.667 -7.16699 -104 -21.5s-62.666 -34.833 -87.999 -61.5s-45.666 -59.167 -60.999 -97.5s-23 -81.5 -23 -129.5v-244c0 -48 7.66699 -91.167 23 -129.5s35.666 -70.833 60.999 -97.5s54.666 -47.167 87.999 -61.5s68 -21.5 104 -21.5h36z" />
    <glyph glyph-name="parenright" unicode=")" 
d="M102 -82c36 0 70.667 7.16699 104 21.5s62.666 34.833 87.999 61.5s45.666 59.167 60.999 97.5s23 81.5 23 129.5v244c0 48 -7.66699 91.167 -23 129.5s-35.666 70.833 -60.999 97.5s-54.666 47.167 -87.999 61.5s-68 21.5 -104 21.5h-36v74h36
c46.667 0 91.334 -8.66699 134.001 -26s80.334 -42.5 113.001 -75.5s58.667 -73 78 -120s29 -99.833 29 -158.5v-252c0 -59.333 -9.66699 -112.333 -29 -159s-45.333 -86.5 -78 -119.5s-70.334 -58.167 -113.001 -75.5s-87.334 -26 -134.001 -26h-36v74h36z" />
    <glyph glyph-name="asterisk" unicode="*" 
d="M507 500l-88 -88l-50 -28l5 -12l45 14h135v-72h-135l-45 14l-5 -12l50 -28l88 -88l-51 -51l-88 88l-28 50l-12 -5l14 -45v-135h-72v135l14 45l-12 5l-28 -50l-88 -88l-51 51l88 88l50 28l-5 12l-45 -14h-135v72h135l45 -14l5 12l-50 28l-88 88l51 51l88 -88l28 -50l12 5
l-14 45v135h72v-135l-14 -45l12 -5l28 50l88 88z" />
    <glyph glyph-name="plus" unicode="+" 
d="M97 386h173v173h72v-173h173v-72h-173v-173h-72v173h-173v72z" />
    <glyph glyph-name="comma" unicode="," 
d="M236 56c0 19.333 6.83398 35.834 20.501 49.501s30.167 20.5 49.5 20.5s35.833 -6.83301 49.5 -20.5s20.5 -30.167 20.5 -49.5v-98c0 -22.667 -7.16699 -41.334 -21.5 -56.001s-32.833 -22 -55.5 -22h-51v54h47c18 0 27 10 27 30v25c-5.33301 -2 -11 -3 -17 -3
c-18.667 0 -34.834 6.83301 -48.501 20.5s-20.5 30.167 -20.5 49.5z" />
    <glyph glyph-name="hyphen" unicode="-" 
d="M156 296h300v-72h-300v72z" />
    <glyph glyph-name="period" unicode="." 
d="M236 56c0 19.333 6.83301 35.833 20.5 49.5s30.167 20.5 49.5 20.5s35.833 -6.83301 49.5 -20.5s20.5 -30.167 20.5 -49.5s-6.83301 -35.833 -20.5 -49.5s-30.167 -20.5 -49.5 -20.5s-35.833 6.83301 -49.5 20.5s-20.5 30.167 -20.5 49.5z" />
    <glyph glyph-name="slash" unicode="/" 
d="M417 806l70 -22l-291 -890l-71 22z" />
    <glyph glyph-name="zero" unicode="0" 
d="M60 428c0 90.667 21.667 161 65 211s103.666 75 180.999 75s137.666 -25 180.999 -75s65 -120.333 65 -211v-156c0 -93.333 -21.667 -164.333 -65 -213s-103.666 -73 -180.999 -73s-137.666 24.333 -180.999 73s-65 119.667 -65 213v156zM306 62
c54 0 94.502 18.833 121.502 56.5s40.5 90.834 40.5 159.501v144c0 32 -3.33301 61.167 -10 87.5s-16.834 49 -30.501 68s-30.667 33.833 -51 44.5s-43.833 16 -70.5 16c-27.333 0 -51 -5.33301 -71 -16s-36.833 -25.5 -50.5 -44.5s-23.834 -41.667 -30.501 -68
s-10 -55.5 -10 -87.5v-144c0 -68.667 13.5 -121.834 40.5 -159.501s67.5 -56.5 121.5 -56.5zM242.002 350c0 17.333 6.33301 32.333 19 45s27.667 19 45 19s32.333 -6.33301 45 -19s19 -27.667 19 -45s-6.33301 -32.333 -19 -45s-27.667 -19 -45 -19s-32.333 6.33301 -45 19
s-19 27.667 -19 45z" />
    <glyph glyph-name="one" unicode="1" 
d="M269 78v585h-12l-115 -263h-83v6l131 294h163v-622h198v-78h-480v78h198z" />
    <glyph glyph-name="two" unicode="2" 
d="M544 78l-0.00292969 -78h-474v120c0 32 5.33301 59.833 16 83.5s25.834 44 45.501 61s43.5 31.167 71.5 42.5s59.667 21 95 29c59.333 13.333 102.166 32.333 128.499 57s39.5 55 39.5 91v6c0 18 -3 35.667 -9 53s-15.333 33 -28 47s-28.834 25.167 -48.501 33.5
s-43.167 12.5 -70.5 12.5c-51.333 0 -91.166 -15.667 -119.499 -47s-42.5 -73 -42.5 -125v-44h-84v50c0 32 5.33301 62.667 16 92s26.334 55.333 47.001 78s46.334 40.667 77.001 54s66 20 106 20c40.667 0 76 -6.16699 106 -18.5s55 -28.666 75 -48.999
s34.833 -43.333 44.5 -69s14.5 -51.834 14.5 -78.501v-18c0 -53.333 -16.667 -98.833 -50 -136.5s-86.666 -64.5 -159.999 -80.5c-64 -14 -111 -32.5 -141 -55.5s-45 -56.5 -45 -100.5v-30h390z" />
    <glyph glyph-name="three" unicode="3" 
d="M237 348l-0.00195312 116.002l228 146v12h-396v78h468v-128l-228 -146v-12h40c26.667 0 52.334 -4.33301 77.001 -13s46.5 -21.334 65.5 -38.001s34.333 -37.167 46 -61.5s17.5 -52.5 17.5 -84.5v-18c0 -30 -6 -58 -18 -84s-28.667 -48.5 -50 -67.5s-46.5 -34 -75.5 -45
s-60.5 -16.5 -94.5 -16.5c-39.333 0 -74.666 6 -105.999 18s-58 28.5 -80 49.5s-38.833 45.667 -50.5 74s-17.5 58.5 -17.5 90.5v54h84v-48c0 -25.333 4.16699 -47.833 12.5 -67.5s20 -36.334 35 -50.001s32.833 -24.167 53.5 -31.5s43 -11 67 -11
c22 0 42.5 3.66699 61.5 11s35.5 17.5 49.5 30.5s25 28.333 33 46s12 36.5 12 56.5v6c0 42 -13.333 74.833 -40 98.5s-60 35.5 -100 35.5h-94z" />
    <glyph glyph-name="four" unicode="4" 
d="M294 700h163v-490h108v-78h-108v-132h-84v132h-324v116zM121 222v-12h252v454h-12z" />
    <glyph glyph-name="five" unicode="5" 
d="M78 330l0.00195312 370h438v-78h-356v-250h12c6.66699 13.333 15.334 26.166 26.001 38.499s23.167 23.166 37.5 32.499s30.5 16.833 48.5 22.5s38 8.5 60 8.5c32 0 61.5 -5.33301 88.5 -16s50.167 -25.667 69.5 -45s34.5 -42.666 45.5 -69.999
s16.5 -57.666 16.5 -90.999v-18c0 -33.333 -5.33301 -64.833 -16 -94.5s-26.334 -56 -47.001 -79s-46.334 -41.167 -77.001 -54.5s-66 -20 -106 -20c-40.667 0 -76.667 6 -108 18s-57.666 28.667 -78.999 50s-37.5 46.5 -48.5 75.5s-16.5 60.5 -16.5 94.5v28h84v-22
c0 -55.333 15.5 -96.833 46.5 -124.5s71.5 -41.5 121.5 -41.5c26.667 0 50.167 4.83301 70.5 14.5s37.333 22.667 51 39s23.834 35.333 30.501 57s10 44.167 10 67.5v6c0 20.667 -3.5 40 -10.5 58s-16.667 33.667 -29 47s-27.333 23.833 -45 31.5s-36.834 11.5 -57.501 11.5
c-14 0 -26.833 -2 -38.5 -6s-21.834 -9.16699 -30.501 -15.5s-15.834 -13.5 -21.501 -21.5s-9.5 -15.667 -11.5 -23h-158z" />
    <glyph glyph-name="six" unicode="6" 
d="M453 496c0 43.333 -13.3311 78.1719 -39.998 104.505s-63.667 39.5 -111 39.5c-22.667 0 -43.5 -4 -62.5 -12s-35.333 -19.5 -49 -34.5s-24.334 -32.833 -32.001 -53.5s-11.5 -43.334 -11.5 -68.001v-104h12c16 29.333 38.833 52.333 68.5 69s62.834 25 99.501 25
c32 0 61.667 -5.16699 89 -15.5s50.833 -25.5 70.5 -45.5s35 -44.167 46 -72.5s16.5 -60.5 16.5 -96.5v-12c0 -34.667 -6.16699 -66.334 -18.5 -95.001s-29.333 -53.334 -51 -74.001s-47.334 -36.667 -77.001 -48s-61.834 -17 -96.501 -17s-66.834 5.66699 -96.501 17
s-55.334 27.166 -77.001 47.499s-38.667 44.666 -51 72.999s-18.5 59.5 -18.5 93.5v255c0 36.667 6.33301 70 19 100s30 55.5 52 76.5s47.5 37.167 76.5 48.5s60.167 17 93.5 17s64.333 -5 93 -15s53.334 -24.5 74.001 -43.5s36.834 -42 48.501 -69s17.5 -57.167 17.5 -90.5
h-84zM306.002 60.0059c24 0 45.833 3.83496 65.5 11.502s36.5 18.5 50.5 32.5s24.667 30.667 32 50s11 40.666 11 63.999v12c0 23.333 -4 44.666 -12 63.999s-19 36 -33 50s-30.833 24.833 -50.5 32.5s-40.834 11.5 -63.501 11.5s-43.667 -4 -63 -12
s-36.166 -19 -50.499 -33s-25.5 -30.333 -33.5 -49s-12 -38.667 -12 -60v-19c0 -22 3.66699 -42.5 11 -61.5s18 -35.5 32 -49.5s30.833 -24.833 50.5 -32.5s41.5 -11.5 65.5 -11.5z" />
    <glyph glyph-name="seven" unicode="7" 
d="M72 700l468 -0.000976562v-122l-295 -446c-14 -21.333 -24.667 -39.666 -32 -54.999s-11 -31 -11 -47v-30h-82v36c0 12 1.16699 23.333 3.5 34s6 21.5 11 32.5s11.333 22.667 19 35l27.5 42.5l287 430v12h-396v78z" />
    <glyph glyph-name="eight" unicode="8" 
d="M297 -14c-35.333 0 -67.3359 4.83301 -96.0029 14.5s-53.334 23 -74.001 40s-36.5 37 -47.5 60s-16.5 48.167 -16.5 75.5v12c0 24 3.66699 45.333 11 64s17 35 29 49s25.833 25.667 41.5 35s31.834 16.333 48.501 21v12c-15.333 4.66699 -29.666 11.667 -42.999 21
s-25.166 20.333 -35.499 33s-18.5 27.167 -24.5 43.5s-9 34.166 -9 53.499v12c0 26.667 5.33301 51.167 16 73.5s25.834 41.5 45.501 57.5s43 28.5 70 37.5s57.167 13.5 90.5 13.5h6c32.667 0 62.667 -4.5 90 -13.5s50.833 -21.5 70.5 -37.5s34.834 -35.167 45.501 -57.5
s16 -46.833 16 -73.5v-12c0 -19.333 -3 -37.166 -9 -53.499s-14.167 -30.833 -24.5 -43.5s-22.333 -23.667 -36 -33s-27.834 -16.333 -42.501 -21v-12c16.667 -4.66699 32.834 -11.667 48.501 -21s29.5 -21 41.5 -35s21.667 -30.333 29 -49s11 -40 11 -64v-12
c0 -27.333 -5.5 -52.5 -16.5 -75.5s-26.833 -43 -47.5 -60s-45.334 -30.333 -74.001 -40s-60.667 -14.5 -96 -14.5h-18zM311.997 62c45.333 0 82.168 11.667 110.501 35s42.5 53.666 42.5 90.999v6c0 41.333 -14.5 73.333 -43.5 96s-66.5 34 -112.5 34h-6
c-46 0 -83.5 -11.333 -112.5 -34s-43.5 -54.667 -43.5 -96v-6c0 -37.333 14.167 -67.666 42.5 -90.999s65.166 -35 110.499 -35h12zM305.999 402c42 0 76.002 11 102.002 33s39 49.667 39 83v6c0 34 -12.833 61.5 -38.5 82.5s-59.834 31.5 -102.501 31.5
s-76.834 -10.5 -102.501 -31.5s-38.5 -48.5 -38.5 -82.5v-6c0 -33.333 13 -61 39 -83s60 -33 102 -33z" />
    <glyph glyph-name="nine" unicode="9" 
d="M159 204c0 -43.333 13.3311 -78.1641 39.998 -104.497s63.667 -39.5 111 -39.5c22.667 0 43.5 4 62.5 12s35.333 19.5 49 34.5s24.334 32.667 32.001 53s11.5 43.166 11.5 68.499v104h-12c-15.333 -29.333 -37.333 -52.333 -66 -69s-62 -25 -100 -25
c-32.667 0 -62.667 5 -90 15s-51 24.833 -71 44.5s-35.5 43.5 -46.5 71.5s-16.5 60 -16.5 96v12c0 34.667 6 66.5 18 95.5s28.833 54 50.5 75s47.334 37.333 77.001 49s62.167 17.5 97.5 17.5s67.833 -5.83301 97.5 -17.5s55.334 -27.834 77.001 -48.501
s38.5 -45.334 50.5 -74.001s18 -60 18 -94v-252c0 -37.333 -6.16699 -70.833 -18.5 -100.5s-29.333 -55 -51 -76s-47.167 -37.167 -76.5 -48.5s-61 -17 -95 -17s-65.333 5 -94 15s-53.334 24.5 -74.001 43.5s-36.667 42 -48 69s-17 57.167 -17 90.5h84zM305.998 640.002
c-24 0 -45.8311 -3.99707 -65.498 -11.9971s-36.5 -19.333 -50.5 -34s-24.667 -31.834 -32 -51.501s-11 -40.834 -11 -63.501v-12c0 -23.333 4 -44.5 12 -63.5s19 -35.333 33 -49s30.667 -24.167 50 -31.5s40.666 -11 63.999 -11c22.667 0 43.667 3.83301 63 11.5
s36.166 18.167 50.499 31.5s25.5 29.333 33.5 48s12 38.667 12 60v19c0 22 -3.66699 42.667 -11 62s-18 36.166 -32 50.499s-30.833 25.5 -50.5 33.5s-41.5 12 -65.5 12z" />
    <glyph glyph-name="colon" unicode=":" 
d="M236 56c0 19.333 6.83301 35.833 20.5 49.5s30.167 20.5 49.5 20.5s35.833 -6.83301 49.5 -20.5s20.5 -30.167 20.5 -49.5s-6.83301 -35.833 -20.5 -49.5s-30.167 -20.5 -49.5 -20.5s-35.833 6.83301 -49.5 20.5s-20.5 30.167 -20.5 49.5zM236 440
c0 19.333 6.83301 35.833 20.5 49.5s30.167 20.5 49.5 20.5s35.833 -6.83301 49.5 -20.5s20.5 -30.167 20.5 -49.5s-6.83301 -35.833 -20.5 -49.5s-30.167 -20.5 -49.5 -20.5s-35.833 6.83301 -49.5 20.5s-20.5 30.167 -20.5 49.5z" />
    <glyph glyph-name="semicolon" unicode=";" 
d="M236 56c0 19.333 6.83398 35.834 20.501 49.501s30.167 20.5 49.5 20.5s35.833 -6.83301 49.5 -20.5s20.5 -30.167 20.5 -49.5v-98c0 -22.667 -7.16699 -41.334 -21.5 -56.001s-32.833 -22 -55.5 -22h-51v54h47c18 0 27 10 27 30v25c-5.33301 -2 -11 -3 -17 -3
c-18.667 0 -34.834 6.83301 -48.501 20.5s-20.5 30.167 -20.5 49.5zM236.001 440.001c0 19.333 6.83301 35.833 20.5 49.5s30.167 20.5 49.5 20.5s35.833 -6.83301 49.5 -20.5s20.5 -30.167 20.5 -49.5s-6.83301 -35.833 -20.5 -49.5s-30.167 -20.5 -49.5 -20.5
s-35.833 6.83301 -49.5 20.5s-20.5 30.167 -20.5 49.5z" />
    <glyph glyph-name="less" unicode="&#x3c;" 
d="M97 274v152l418 144v-84l-388 -130v-12l388 -130v-84z" />
    <glyph glyph-name="equal" unicode="=" 
d="M97 458h418v-72h-418v72zM97 314h418v-72h-418v72z" />
    <glyph glyph-name="greater" unicode="&#x3e;" 
d="M97 130v84l388 130v12l-388 130v84l418 -144v-152z" />
    <glyph glyph-name="question" unicode="?" 
d="M352 366c30 0 54.833 11.001 74.5 33.001s29.5 51 29.5 87v6c0 20 -3.5 38.667 -10.5 56s-16.833 32.5 -29.5 45.5s-28 23.333 -46 31s-38 11.5 -60 11.5c-48 0 -85.667 -14.667 -113 -44s-41 -68 -41 -116v-42h-84v48c0 30.667 5.16699 60 15.5 88s25.5 52.667 45.5 74
s45 38.333 75 51s64.667 19 104 19c33.333 0 64 -5.66699 92 -17s52 -26.833 72 -46.5s35.667 -42.334 47 -68.001s17 -52.834 17 -81.501v-18c0 -26 -4.5 -50.833 -13.5 -74.5s-21.5 -44.167 -37.5 -61.5s-34.833 -31.166 -56.5 -41.499s-45.167 -15.5 -70.5 -15.5h-14
c-18.667 0 -28 -10 -28 -30v-74h-80v94c0 25.333 8 46 24 62s36.667 24 62 24h26zM211 56.001c0 19.333 6.83301 35.833 20.5 49.5s30.167 20.5 49.5 20.5s35.833 -6.83301 49.5 -20.5s20.5 -30.167 20.5 -49.5s-6.83301 -35.833 -20.5 -49.5s-30.167 -20.5 -49.5 -20.5
s-35.833 6.83301 -49.5 20.5s-20.5 30.167 -20.5 49.5z" />
    <glyph glyph-name="at" unicode="@" 
d="M78 510l0.000976562 72.002h290c61.333 0 109.333 -16 144 -48s52 -81.333 52 -148v-308c0 -22.667 -7.16699 -41.334 -21.5 -56.001s-32.833 -22 -55.5 -22h-80c-24.667 0 -42.667 6.5 -54 19.5s-17 28.5 -17 46.5h-12c-8 -25.333 -21.5 -45 -40.5 -59
s-44.167 -21 -75.5 -21c-24.667 0 -47.334 5 -68.001 15s-38.5 24.333 -53.5 43s-26.833 41.5 -35.5 68.5s-13 57.167 -13 90.5v18c0 33.333 4.33301 63.333 13 90s20.5 49.5 35.5 68.5s32.833 33.5 53.5 43.5s42.667 15 66 15c30.667 0 54.167 -5.83301 70.5 -17.5
s30.166 -28.5 41.499 -50.5h12v54h78v-322c0 -20 9 -30 27 -30h24c18 0 27 10 27 30v276c0 43.333 -10.167 76.166 -30.5 98.499s-52.166 33.5 -95.499 33.5h-282zM223.001 60.002c20 0 36.833 3.66797 50.5 11.001s24.667 17.5 33 30.5s14.333 28.167 18 45.5
s5.5 36 5.5 56v18c0 18.667 -1.83301 36.667 -5.5 54s-9.66699 32.666 -18 45.999s-19.333 23.833 -33 31.5s-30.5 11.5 -50.5 11.5c-16.667 0 -31.667 -3.66699 -45 -11s-24.5 -17.5 -33.5 -30.5s-16 -28.167 -21 -45.5s-7.5 -36 -7.5 -56v-18
c0 -42 9.33301 -76.333 28 -103s45 -40 79 -40z" />
    <glyph glyph-name="A" unicode="A" 
d="M456 174h-300l-51 -174h-90l212 700h158l212 -700h-90zM300 664l-121 -412h254l-121 412h-12z" />
    <glyph glyph-name="B" unicode="B" 
d="M57 78l60 -0.00292969v544h-60v78h283c33.333 0 62.833 -4.66699 88.5 -14s47.334 -22 65.001 -38s31 -35.167 40 -57.5s13.5 -46.5 13.5 -72.5v-12c0 -19.333 -3 -37 -9 -53s-14.333 -30.333 -25 -43s-23.167 -23.5 -37.5 -32.5s-29.833 -15.833 -46.5 -20.5v-12
c33.333 -9.33301 61.333 -27.166 84 -53.499s34 -58.5 34 -96.5v-12c0 -26 -4.5 -50.167 -13.5 -72.5s-22.333 -41.666 -40 -57.999s-39.334 -29.166 -65.001 -38.499s-55.167 -14 -88.5 -14h-283v78zM201 77.9971l133 -0.000976562c39.333 0 71.333 9.83301 96 29.5
s37 46.834 37 81.501v6c0 36 -11.667 64.5 -35 85.5s-55 31.5 -95 31.5h-136v-234zM201 389.996h136c40 0 71.667 10.333 95 31s35 49 35 85v6c0 34 -12.333 60.833 -37 80.5s-56.667 29.5 -96 29.5h-133v-232z" />
    <glyph glyph-name="C" unicode="C" 
d="M310 64c28.667 0 53.167 4.83398 73.5 14.501s37 22.667 50 39s22.667 35 29 56s9.5 43.167 9.5 66.5v12h84v-12c0 -35.333 -5.33301 -68.5 -16 -99.5s-26.334 -58 -47.001 -81s-46.334 -41 -77.001 -54s-66 -19.5 -106 -19.5c-77.333 0 -137.666 24.333 -180.999 73
s-65 119.667 -65 213v156c0 90.667 21.667 161 65 211s103.666 75 180.999 75c40 0 75.333 -6.5 106 -19.5s56.334 -31 77.001 -54s36.334 -50 47.001 -81s16 -64.167 16 -99.5v-12h-84v12c-0.666992 22.667 -4.16699 44.667 -10.5 66s-16 40.166 -29 56.499
s-29.5 29.333 -49.5 39s-44.333 14.5 -73 14.5c-54 0 -94.5 -19.667 -121.5 -59s-40.5 -91 -40.5 -155v-144c0 -68.667 13.5 -121.5 40.5 -158.5s67.5 -55.5 121.5 -55.5z" />
    <glyph glyph-name="D" unicode="D" 
d="M73 700h230c86.667 0 150 -20.667 190 -62s60 -107.333 60 -198v-180c0 -90.667 -20 -156.667 -60 -198s-103.333 -62 -190 -62h-230v79h60v543h-60v78zM291 78c30.667 0 57.167 3 79.5 9s40.833 16.167 55.5 30.5s25.5 33.5 32.5 57.5s10.5 54.333 10.5 91v168
c0 36.667 -3.5 67 -10.5 91s-17.833 43.167 -32.5 57.5s-33.167 24.5 -55.5 30.5s-48.833 9 -79.5 9h-74v-544h74z" />
    <glyph glyph-name="E" unicode="E" 
d="M94 700h424v-78h-340v-232h334v-78h-334v-234h346v-78h-430v700z" />
    <glyph glyph-name="F" unicode="F" 
d="M95 700h430v-78h-346v-232h340v-78h-340v-312h-84v700z" />
    <glyph glyph-name="G" unicode="G" 
d="M239 336l311.999 0.000976562v-336h-78v84h-12c-11.333 -29.333 -31.333 -53 -60 -71s-62 -27 -100 -27c-75.333 0 -134.5 24.333 -177.5 73s-64.5 119.667 -64.5 213v156c0 90.667 21.667 161 65 211s103.666 75 180.999 75c40 0 75.333 -6.5 106 -19.5
s56.334 -31 77.001 -54s36.334 -50 47.001 -81s16 -64.167 16 -99.5v-12h-84v12c0 22.667 -3.16699 44.667 -9.5 66s-16 40.166 -29 56.499s-29.667 29.333 -50 39s-44.833 14.5 -73.5 14.5c-54 0 -94.5 -19.667 -121.5 -59s-40.5 -91 -40.5 -155v-144
c0 -68.667 13.5 -121.5 40.5 -158.5s68.167 -55.5 123.5 -55.5c50 0 89.167 16 117.5 48s42.5 76.667 42.5 134v12h-228v78z" />
    <glyph glyph-name="H" unicode="H" 
d="M73 700h84v-310h298v310h84v-700h-84v312h-298v-312h-84v700z" />
    <glyph glyph-name="I" unicode="I" 
d="M84 700h444v-78h-180v-544h180v-78h-444v78h180v544h-180v78z" />
    <glyph glyph-name="J" unicode="J" 
d="M505 210c0 -72.667 -17.833 -128.167 -53.5 -166.5s-87.834 -57.5 -156.501 -57.5s-122.834 19.167 -162.501 57.5s-59.5 93.833 -59.5 166.5v54h84v-54c0 -44 11.333 -79.333 34 -106s57.334 -40 104.001 -40s79.334 13.333 98.001 40s28 62 28 106v412h-72v78h216v-78
h-60v-412z" />
    <glyph glyph-name="K" unicode="K" 
d="M173 0h-84v700h84v-310h23l269 310h104v-6l-290 -338v-12l302 -338v-6h-106l-279 312h-23v-312z" />
    <glyph glyph-name="L" unicode="L" 
d="M87 700h84v-622h366v-78h-450v700z" />
    <glyph glyph-name="M" unicode="M" 
d="M46 700h160l94 -664h12l94 664h160v-700h-78v664h-12l-94 -664h-152l-94 664h-12v-664h-78v700z" />
    <glyph glyph-name="N" unicode="N" 
d="M443 36h12v664h84v-700h-168l-202 664h-12v-664h-84v700h168z" />
    <glyph glyph-name="O" unicode="O" 
d="M60 428c0 90.667 21.667 161 65 211s103.666 75 180.999 75s137.666 -25 180.999 -75s65 -120.333 65 -211v-156c0 -93.333 -21.667 -164.333 -65 -213s-103.666 -73 -180.999 -73s-137.666 24.333 -180.999 73s-65 119.667 -65 213v156zM306 64
c54 0 94.5 18.5 121.5 55.5s40.5 89.833 40.5 158.5v144c0 64 -13.5 115.667 -40.5 155s-67.5 59 -121.5 59s-94.5 -19.667 -121.5 -59s-40.5 -91 -40.5 -155v-144c0 -68.667 13.5 -121.5 40.5 -158.5s67.5 -55.5 121.5 -55.5z" />
    <glyph glyph-name="P" unicode="P" 
d="M169 288l-0.000976562 -288.002h-84v700h250c36 0 67.333 -5.16699 94 -15.5s48.834 -24.166 66.501 -41.499s31 -37.5 40 -60.5s13.5 -47.167 13.5 -72.5v-30c0 -25.333 -4.5 -49.666 -13.5 -72.999s-22.5 -43.833 -40.5 -61.5s-40.333 -31.667 -67 -42
s-57.667 -15.5 -93 -15.5h-166zM168.999 365.998h156c93.333 0 140 40 140 120v18c0 35.333 -11.5 63.833 -34.5 85.5s-58.167 32.5 -105.5 32.5h-156v-256z" />
    <glyph glyph-name="Q" unicode="Q" 
d="M60 428c0 90.667 21.668 160.997 65.001 210.997s103.666 75 180.999 75s137.666 -25 180.999 -75s65 -120.333 65 -211v-156c0 -85.333 -18.167 -152.166 -54.5 -200.499s-87.166 -76.166 -152.499 -83.499v-42c0 -20 9 -30 27 -30h84v-72h-112
c-22.667 0 -41.167 7.33301 -55.5 22s-21.5 33.334 -21.5 56.001v66c-66 8 -117 36 -153 84s-54 114.667 -54 200v156zM306.001 63.9971c54 0 94.5 18.5 121.5 55.5s40.5 89.833 40.5 158.5v144c0 64 -13.5 115.667 -40.5 155s-67.5 59 -121.5 59s-94.5 -19.667 -121.5 -59
s-40.5 -91 -40.5 -155v-144c0 -68.667 13.5 -121.5 40.5 -158.5s67.5 -55.5 121.5 -55.5z" />
    <glyph glyph-name="R" unicode="R" 
d="M525 0h-84.001v234c0 17.333 -4 30.666 -12 39.999s-22 14 -42 14h-218v-288h-84v700h250c36 0 67.333 -5.16699 94 -15.5s48.834 -24.166 66.501 -41.499s31 -37.5 40 -60.5s13.5 -47.167 13.5 -72.5v-30c0 -26 -7.16699 -52 -21.5 -78s-36.5 -46 -66.5 -60v-12
c20 -3.33301 35.667 -11.333 47 -24s17 -30.667 17 -54v-252zM168.999 366l156 0.000976562c47.333 0 82.5 10.167 105.5 30.5s34.5 50.166 34.5 89.499v18c0 35.333 -11.5 63.833 -34.5 85.5s-58.167 32.5 -105.5 32.5h-156v-256z" />
    <glyph glyph-name="S" unicode="S" 
d="M471 498c0 22.667 -4.5 42.666 -13.5 59.999s-21.167 31.666 -36.5 42.999s-33 20 -53 26s-41 9 -63 9c-19.333 0 -37.666 -2.5 -54.999 -7.5s-32.833 -12.167 -46.5 -21.5s-24.5 -20.833 -32.5 -34.5s-12 -29.5 -12 -47.5v-6c0 -19.333 4 -35.833 12 -49.5
s19.833 -25.334 35.5 -35.001s35.167 -17.667 58.5 -24s50.666 -11.833 81.999 -16.5c73.333 -11.333 127.333 -32.833 162 -64.5s52 -74.167 52 -127.5v-12c0 -30 -5.16699 -57.5 -15.5 -82.5s-25.666 -46.5 -45.999 -64.5s-45.5 -32 -75.5 -42s-64.667 -15 -104 -15
c-44.667 0 -84.167 6.5 -118.5 19.5s-63 31 -86 54s-40.5 50 -52.5 81s-18 64.833 -18 101.5v30h84v-24c0 -61.333 16.833 -107.333 50.5 -138s80.5 -46 140.5 -46c52 0 91.167 11.5 117.5 34.5s39.5 53.5 39.5 91.5v6c0 36.667 -13.5 64.667 -40.5 84
s-70.833 33.333 -131.5 42c-35.333 4.66699 -67.166 11.834 -95.499 21.501s-52.5 22.334 -72.5 38.001s-35.333 34.5 -46 56.5s-16 48 -16 78v12c0 27.333 5.66699 52.333 17 75s27.166 42.334 47.499 59.001s44.666 29.5 72.999 38.5s59.5 13.5 93.5 13.5
c39.333 0 74.5 -5.66699 105.5 -17s57.167 -26.5 78.5 -45.5s37.5 -41.333 48.5 -67s16.5 -52.5 16.5 -80.5v-42h-84v36z" />
    <glyph glyph-name="T" unicode="T" 
d="M60 700h492v-78h-204v-622h-84v622h-204v78z" />
    <glyph glyph-name="U" unicode="U" 
d="M150 700l0.00390625 -464c0 -56.667 13.167 -99.5 39.5 -128.5s65.166 -43.5 116.499 -43.5s90.166 14.5 116.499 43.5s39.5 71.833 39.5 128.5v464h84v-464c0 -81.333 -21.333 -143.333 -64 -186s-101.334 -64 -176.001 -64s-133.334 21.333 -176.001 64
s-64 104.667 -64 186v464h84z" />
    <glyph glyph-name="V" unicode="V" 
d="M27 700h90l183 -664h12l183 664h90l-198 -700h-162z" />
    <glyph glyph-name="W" unicode="W" 
d="M530 0h-153l-65 664h-12l-65 -664h-153l-71 700h76l67 -664h12l63 664h154l63 -664h12l67 664h76z" />
    <glyph glyph-name="X" unicode="X" 
d="M140 700l157 -310h18l157 310h92l-175 -343v-12l175 -345h-92l-157 312h-18l-157 -312h-92l175 345v12l-175 343h92z" />
    <glyph glyph-name="Y" unicode="Y" 
d="M264 246h-18l-219 454h94l179 -382h12l179 382h94l-219 -454h-18v-246h-84v246z" />
    <glyph glyph-name="Z" unicode="Z" 
d="M77 700h468v-126l-420 -484v-12h432v-78h-504v126l420 484v12h-396v78z" />
    <glyph glyph-name="bracketleft" unicode="[" 
d="M264 778c0 22.667 7.16699 41.332 21.5 55.999s32.833 22 55.5 22h97v-72h-69c-18 0 -27 -10 -27 -30v-808c0 -20 9 -30 27 -30h69v-72h-97c-22.667 0 -41.167 7.33301 -55.5 22s-21.5 33.334 -21.5 56.001v856z" />
    <glyph glyph-name="backslash" unicode="\" 
d="M487 -84l-71 -22l-291 890l70 22z" />
    <glyph glyph-name="bracketright" unicode="]" 
d="M348 -78c0 -22.667 -7.16699 -41.332 -21.5 -55.999s-32.833 -22 -55.5 -22h-97v72h69c18 0 27 10 27 30v808c0 20 -9 30 -27 30h-69v72h97c22.667 0 41.167 -7.33301 55.5 -22s21.5 -33.334 21.5 -56.001v-856z" />
    <glyph glyph-name="asciicircum" unicode="^" 
d="M540 424h-92l-136 246h-12l-136 -246h-92l158 276h152z" />
    <glyph glyph-name="underscore" unicode="_" 
d="M73 -48h466v-72h-466v72z" />
    <glyph glyph-name="grave" unicode="`" 
d="M316 688l66 -118h-72l-84 118h90z" />
    <glyph glyph-name="a" unicode="a" 
d="M447 84h-12.001c-16 -33.333 -38.167 -58 -66.5 -74s-58.166 -24 -89.499 -24c-32.667 0 -63 5.5 -91 16.5s-52.5 27.333 -73.5 49s-37.5 48.167 -49.5 79.5s-18 67.666 -18 108.999v16c0 40.667 6 76.667 18 108s28.5 57.833 49.5 79.5s45.5 38.167 73.5 49.5
s57.667 17 89 17c34 0 64.833 -7.5 92.5 -22.5s49.5 -38.167 65.5 -69.5h12v78h78v-394c0 -20 9 -30 27 -30h25v-72h-53c-22.667 0 -41.167 7.33301 -55.5 22s-21.5 33.334 -21.5 56.001v6zM286.999 60c23.333 0 44.832 4.33594 64.499 13.0029s36.5 21 50.5 37
s25 35.167 33 57.5s12 47.166 12 74.499v12c0 26.667 -4 51.167 -12 73.5s-19.167 41.5 -33.5 57.5s-31.333 28.5 -51 37.5s-40.834 13.5 -63.501 13.5c-23.333 0 -44.666 -4.33301 -63.999 -13s-36.166 -20.834 -50.499 -36.501s-25.5 -34.667 -33.5 -57
s-12 -46.833 -12 -73.5v-16c0 -56.667 14.833 -100.834 44.5 -132.501s68.167 -47.5 115.5 -47.5z" />
    <glyph glyph-name="b" unicode="b" 
d="M147 0l-77.999 -0.00390625v700h78v-282h12c17.333 30 41.333 52.833 72 68.5s64 23.5 100 23.5c30.667 0 59.667 -5.66699 87 -17s51.5 -27.666 72.5 -48.999s37.667 -47.666 50 -78.999s18.5 -67 18.5 -107v-20c0 -40.667 -6 -76.667 -18 -108
s-28.5 -57.666 -49.5 -78.999s-45.5 -37.5 -73.5 -48.5s-57.667 -16.5 -89 -16.5c-16 0 -32.333 1.83301 -49 5.5s-32.5 9.33398 -47.5 17.001s-28.833 17 -41.5 28s-23.334 24.167 -32.001 39.5h-12v-76zM313.001 59.9961c24 0 45.999 4.16406 65.999 12.4971
s37.5 20.166 52.5 35.499s26.667 34 35 56s12.5 46.667 12.5 74v20c0 26.667 -4.16699 50.834 -12.5 72.501s-20 40.334 -35 56.001s-32.667 27.834 -53 36.501s-42.166 13 -65.499 13s-45 -4.5 -65 -13.5s-37.5 -21.5 -52.5 -37.5s-26.833 -35.167 -35.5 -57.5
s-13 -46.833 -13 -73.5v-12c0 -27.333 4.33301 -52.166 13 -74.499s20.5 -41.5 35.5 -57.5s32.5 -28.333 52.5 -37s41.667 -13 65 -13z" />
    <glyph glyph-name="c" unicode="c" 
d="M551 176c-5.33301 -27.333 -14.499 -52.666 -27.499 -75.999s-29.5 -43.5 -49.5 -60.5s-43.333 -30.167 -70 -39.5s-56.334 -14 -89.001 -14c-34.667 0 -67.5 5.66699 -98.5 17s-58.167 27.833 -81.5 49.5s-41.833 48.167 -55.5 79.5s-20.5 67.333 -20.5 108v12
c0 40 6.83301 76 20.5 108s32.167 59 55.5 81s50.5 39 81.5 51s63.833 18 98.5 18c31.333 0 60.333 -4.66699 87 -14s50.167 -22.5 70.5 -39.5s37 -37.167 50 -60.5s21.833 -48.666 26.5 -75.999l-78 -18c-2 17.333 -6.83301 34.166 -14.5 50.499s-18 30.666 -31 42.999
s-28.833 22.166 -47.5 29.499s-40.334 11 -65.001 11c-24 0 -46.5 -4.5 -67.5 -13.5s-39.5 -21.667 -55.5 -38s-28.5 -35.833 -37.5 -58.5s-13.5 -47.334 -13.5 -74.001v-12c0 -28 4.5 -53.167 13.5 -75.5s21.5 -41.166 37.5 -56.499s34.667 -27.166 56 -35.499
s44.333 -12.5 69 -12.5s46.167 3.83301 64.5 11.5s34 17.667 47 30s23.333 26.5 31 42.5s12.834 32.667 15.501 50z" />
    <glyph glyph-name="d" unicode="d" 
d="M471 76l-12 -0.00292969c-8 -15.333 -18.167 -28.666 -30.5 -39.999s-25.666 -20.666 -39.999 -27.999s-29.5 -12.833 -45.5 -16.5s-31.333 -5.5 -46 -5.5c-33.333 0 -64.333 5.66699 -93 17s-53.834 27.666 -75.501 48.999s-38.667 47.833 -51 79.5
s-18.5 67.834 -18.5 108.501v16c0 40 6.33301 75.833 19 107.5s29.667 58.334 51 80.001s46.333 38.167 75 49.5s59 17 91 17c34 0 65.833 -7.5 95.5 -22.5s52.5 -38.167 68.5 -69.5h12v282h78v-700h-78v76zM305 59.9971c23.333 0 44.999 4.33398 64.999 13.001
s37.5 21 52.5 37s26.833 35.167 35.5 57.5s13 47.166 13 74.499v12c0 26.667 -4.33301 51.167 -13 73.5s-20.5 41.5 -35.5 57.5s-32.667 28.5 -53 37.5s-41.833 13.5 -64.5 13.5c-23.333 0 -45.166 -4.33301 -65.499 -13s-38 -21 -53 -37s-26.667 -35 -35 -57
s-12.5 -46.333 -12.5 -73v-16c0 -28 4.16699 -53 12.5 -75s20 -40.833 35 -56.5s32.5 -27.667 52.5 -36s42 -12.5 66 -12.5z" />
    <glyph glyph-name="e" unicode="e" 
d="M144 224c2 -49.333 17.332 -88.998 45.999 -118.998s68.667 -45 120 -45c23.333 0 43.666 2.66699 60.999 8s32.166 12.666 44.499 21.999s22.333 20.166 30 32.499s13.834 25.5 18.501 39.5l74 -20c-14 -46 -39.833 -83.5 -77.5 -112.5s-88.5 -43.5 -152.5 -43.5
c-35.333 0 -67.833 6.16699 -97.5 18.5s-55.167 29.833 -76.5 52.5s-38 49.667 -50 81s-18 66 -18 104v24c0 34.667 6.16699 67 18.5 97s29.5 55.833 51.5 77.5s47.833 38.667 77.5 51s61.834 18.5 96.501 18.5c40.667 0 75.834 -7.5 105.501 -22.5s54 -33.5 73 -55.5
s33 -46 42 -72s13.5 -50 13.5 -72v-64h-400zM309.999 436.002c-22 0 -42.502 -3.49902 -61.502 -10.499s-35.667 -16.833 -50 -29.5s-26 -27.5 -35 -44.5s-14.833 -35.5 -17.5 -55.5h320c-1.33301 21.333 -6.5 40.666 -15.5 57.999s-20.667 32 -35 44
s-30.666 21.333 -48.999 28s-37.166 10 -56.499 10z" />
    <glyph glyph-name="f" unicode="f" 
d="M82 496l153 -0.000976562v126c0 22.667 7.16699 41.334 21.5 56.001s32.833 22 55.5 22h196v-72h-168c-18 0 -27 -10 -27 -30v-102h207v-72h-207v-424h-78v424h-153v72z" />
    <glyph glyph-name="g" unicode="g" 
d="M464 76h-12.001c-16 -30 -37.833 -52.5 -65.5 -67.5s-57.834 -22.5 -90.501 -22.5c-33.333 0 -64.666 5.66699 -93.999 17s-55.166 27.666 -77.499 48.999s-40 47.833 -53 79.5s-19.5 67.834 -19.5 108.501v16c0 40 6.66699 75.833 20 107.5s31 58.334 53 80.001
s47.667 38.167 77 49.5s60 17 92 17c36 0 67.5 -7.83301 94.5 -23.5s48.167 -38.5 63.5 -68.5h12v78h78v-618c0 -22.667 -7.16699 -41.334 -21.5 -56.001s-32.833 -22 -55.5 -22h-323v72h295c18 0 27 10 27 30v174zM297.999 60c23.333 0 44.999 4.33398 64.999 13.001
s37.5 21 52.5 37s26.833 35.167 35.5 57.5s13 47.166 13 74.499v12c0 26.667 -4.33301 51.167 -13 73.5s-20.5 41.5 -35.5 57.5s-32.667 28.5 -53 37.5s-41.833 13.5 -64.5 13.5c-23.333 0 -45.166 -4.33301 -65.499 -13s-38 -21 -53 -37s-26.667 -35 -35 -57
s-12.5 -46.333 -12.5 -73v-16c0 -28 4.16699 -53 12.5 -75s20 -40.833 35 -56.5s32.5 -27.667 52.5 -36s42 -12.5 66 -12.5z" />
    <glyph glyph-name="h" unicode="h" 
d="M165 0h-78v700h78v-294h12c15.333 32 36.833 57.333 64.5 76s61.5 28 101.5 28c54 0 97.833 -17.833 131.5 -53.5s50.5 -89.167 50.5 -160.5v-296h-78v280c0 52 -11.667 91 -35 117s-55 39 -95 39c-47.333 0 -84.5 -16.167 -111.5 -48.5s-40.5 -75.5 -40.5 -129.5v-258z
" />
    <glyph glyph-name="i" unicode="i" 
d="M241 644c0 19.333 6.83301 35.833 20.5 49.5s30.167 20.5 49.5 20.5s35.833 -6.83301 49.5 -20.5s20.5 -30.167 20.5 -49.5s-6.83301 -35.833 -20.5 -49.5s-30.167 -20.5 -49.5 -20.5s-35.833 6.83301 -49.5 20.5s-20.5 30.167 -20.5 49.5zM99 72h174v352h-156v72h234
v-424h162v-72h-414v72z" />
    <glyph glyph-name="j" unicode="j" 
d="M307 644c0 19.333 6.83301 35.833 20.5 49.5s30.167 20.5 49.5 20.5s35.833 -6.83301 49.5 -20.5s20.5 -30.167 20.5 -49.5s-6.83301 -35.833 -20.5 -49.5s-30.167 -20.5 -49.5 -20.5s-35.833 6.83301 -49.5 20.5s-20.5 30.167 -20.5 49.5zM141 496l276 0.000976562v-618
c0 -22.667 -7.16699 -41.334 -21.5 -56.001s-32.833 -22 -55.5 -22h-223v72h195c18 0 27 10 27 30v522h-198v72z" />
    <glyph glyph-name="k" unicode="k" 
d="M215 290h17l189 206h96v-6l-206 -227v-18l230 -239v-6h-96l-211 218h-19v-218h-78v700h78v-410z" />
    <glyph glyph-name="l" unicode="l" 
d="M87 72h180v556h-174v72h252v-628h180v-72h-438v72z" />
    <glyph glyph-name="m" unicode="m" 
d="M564 0h-78.001v356c0 23.333 -5.33301 42.5 -16 57.5s-27.667 22.5 -51 22.5c-22 0 -39.833 -8.16699 -53.5 -24.5s-20.5 -41.5 -20.5 -75.5v-336h-78v360c0 22 -6 40.167 -18 54.5s-28 21.5 -48 21.5c-24 0 -42.5 -8.66699 -55.5 -26s-19.5 -40 -19.5 -68v-342h-78v496
h78v-54h12c8.66699 23.333 21.334 40.5 38.001 51.5s36.334 16.5 59.001 16.5c24 0 43.833 -6.33301 59.5 -19s26.5 -29 32.5 -49h12c22.667 45.333 58.667 68 108 68c37.333 0 66.166 -11.833 86.499 -35.5s30.5 -54.5 30.5 -92.5v-382z" />
    <glyph glyph-name="n" unicode="n" 
d="M165 0h-78v496h78v-84h12c30.667 65.333 84 98 160 98c57.333 0 103 -17.833 137 -53.5s51 -89.167 51 -160.5v-296h-78v280c0 52 -11.667 91 -35 117s-55 39 -95 39c-47.333 0 -84.5 -16.167 -111.5 -48.5s-40.5 -75.5 -40.5 -129.5v-258z" />
    <glyph glyph-name="o" unicode="o" 
d="M555 242c0 -41.333 -6.83105 -77.833 -20.498 -109.5s-31.834 -58.334 -54.501 -80.001s-49.167 -38.167 -79.5 -49.5s-61.833 -17 -94.5 -17c-33.333 0 -65 5.66699 -95 17s-56.333 27.833 -79 49.5s-40.834 48.334 -54.501 80.001s-20.5 68.167 -20.5 109.5v12
c0 40.667 6.83301 76.834 20.5 108.501s32 58.5 55 80.5s49.5 38.667 79.5 50s61.333 17 94 17s64 -5.66699 94 -17s56.5 -28 79.5 -50s41.333 -48.833 55 -80.5s20.5 -67.834 20.5 -108.501v-12zM306.002 60c24 0 46.1689 4.16699 66.502 12.5s38.166 20.5 53.499 36.5
s27.333 35.167 36 57.5s13 47.5 13 75.5v12c0 26.667 -4.33301 51.167 -13 73.5s-20.667 41.5 -36 57.5s-33.333 28.5 -54 37.5s-42.667 13.5 -66 13.5s-45.333 -4.5 -66 -13.5s-38.667 -21.5 -54 -37.5s-27.333 -35.167 -36 -57.5s-13 -46.833 -13 -73.5v-12
c0 -28 4.33301 -53.167 13 -75.5s20.667 -41.5 36 -57.5s33.166 -28.167 53.499 -36.5s42.5 -12.5 66.5 -12.5z" />
    <glyph glyph-name="p" unicode="p" 
d="M147 -200l-77.999 -0.00390625v696h78v-78h12c17.333 30 41.333 52.833 72 68.5s64 23.5 100 23.5c30.667 0 59.667 -5.66699 87 -17s51.5 -27.666 72.5 -48.999s37.667 -47.666 50 -78.999s18.5 -67 18.5 -107v-20c0 -40.667 -6 -76.667 -18 -108
s-28.5 -57.666 -49.5 -78.999s-45.5 -37.5 -73.5 -48.5s-57.667 -16.5 -89 -16.5c-16 0 -32.333 1.83301 -49 5.5s-32.5 9.33398 -47.5 17.001s-28.833 17 -41.5 28s-23.334 24.167 -32.001 39.5h-12v-276zM313.001 59.9961c24 0 45.999 4.16406 65.999 12.4971
s37.5 20.166 52.5 35.499s26.667 34 35 56s12.5 46.667 12.5 74v20c0 26.667 -4.16699 50.834 -12.5 72.501s-20 40.334 -35 56.001s-32.667 27.834 -53 36.501s-42.166 13 -65.499 13s-45 -4.5 -65 -13.5s-37.5 -21.5 -52.5 -37.5s-26.833 -35.167 -35.5 -57.5
s-13 -46.833 -13 -73.5v-12c0 -27.333 4.33301 -52.166 13 -74.499s20.5 -41.5 35.5 -57.5s32.5 -28.333 52.5 -37s41.667 -13 65 -13z" />
    <glyph glyph-name="q" unicode="q" 
d="M467 76h-11.999c-8.66699 -15.333 -19.167 -28.5 -31.5 -39.5s-25.666 -20.333 -39.999 -28s-29.333 -13.334 -45 -17.001s-30.834 -5.5 -45.501 -5.5c-33.333 0 -64.333 5.66699 -93 17s-53.834 27.666 -75.501 48.999s-38.667 47.833 -51 79.5
s-18.5 67.834 -18.5 108.501v16c0 40 6.33301 75.833 19 107.5s29.667 58.334 51 80.001s46.333 38.167 75 49.5s59 17 91 17c34 0 65.5 -7.83301 94.5 -23.5s52.167 -38.5 69.5 -68.5h12v78h78v-696h-78v276zM301.001 60c23.333 0 44.999 4.33398 64.999 13.001
s37.5 21 52.5 37s26.833 35.167 35.5 57.5s13 47.166 13 74.499v12c0 26.667 -4.33301 51.167 -13 73.5s-20.5 41.5 -35.5 57.5s-32.667 28.5 -53 37.5s-41.833 13.5 -64.5 13.5c-23.333 0 -45.166 -4.33301 -65.499 -13s-38 -21 -53 -37s-26.667 -35 -35 -57
s-12.5 -46.333 -12.5 -73v-16c0 -28 4.16699 -53 12.5 -75s20 -40.833 35 -56.5s32.5 -27.667 52.5 -36s42 -12.5 66 -12.5z" />
    <glyph glyph-name="r" unicode="r" 
d="M59 496l180 0.000976562v-66h12c12.667 27.333 30.667 47.5 54 60.5s50 19.5 80 19.5c50 0 90.333 -16.333 121 -49s47 -80.334 49 -143.001l-82 -12c0 46 -11 79.167 -33 99.5s-49 30.5 -81 30.5c-20.667 0 -38.5 -4 -53.5 -12s-27.5 -19 -37.5 -33
s-17.333 -30.333 -22 -49s-7 -38.667 -7 -60v-210h126v-72h-318v72h114v352h-102v72z" />
    <glyph glyph-name="s" unicode="s" 
d="M190 368c0 -24 10.1641 -42.332 30.4971 -54.999s57.5 -21 111.5 -25c58 -4.66699 102.167 -18.5 132.5 -41.5s45.5 -56.5 45.5 -100.5v-6c0 -24 -4.83301 -45.5 -14.5 -64.5s-23 -35.167 -40 -48.5s-37.667 -23.5 -62 -30.5s-50.833 -10.5 -79.5 -10.5
c-38.667 0 -71.834 5.16699 -99.501 15.5s-50.667 24 -69 41s-32.166 36.333 -41.499 58s-14.666 43.5 -15.999 65.5l74 18c3.33301 -38 18 -68.5 44 -91.5s60.667 -34.5 104 -34.5c36.667 0 66.167 7.16699 88.5 21.5s33.5 34.5 33.5 60.5c0 28 -11 48 -33 60
s-57.667 19.667 -107 23c-57.333 4 -101.333 17.333 -132 40s-46 55.667 -46 99v6c0 23.333 5 43.833 15 61.5s23.5 32.5 40.5 44.5s36.167 21 57.5 27s43.666 9 66.999 9c32.667 0 61.334 -4.5 86.001 -13.5s45.334 -20.667 62.001 -35s29.5 -30.833 38.5 -49.5
s14.833 -37.334 17.5 -56.001l-74 -18c-3.33301 32 -16.166 57 -38.499 75s-51.5 27 -87.5 27c-14 0 -27.5 -1.5 -40.5 -4.5s-24.5 -7.5 -34.5 -13.5s-18 -13.5 -24 -22.5s-9 -19.5 -9 -31.5z" />
    <glyph glyph-name="t" unicode="t" 
d="M70 496l156 -0.000976562v204h78v-204h192v-72h-192v-322c0 -20 9 -30 27 -30h141v-72h-169c-22.667 0 -41.167 7.33301 -55.5 22s-21.5 33.334 -21.5 56.001v346h-156v72z" />
    <glyph glyph-name="u" unicode="u" 
d="M441 496h78v-496h-78v90h-12c-16 -32 -37 -57.333 -63 -76s-59 -28 -99 -28c-27.333 0 -52.5 4.5 -75.5 13.5s-42.667 22.5 -59 40.5s-29 40.333 -38 67s-13.5 57.667 -13.5 93v296h78v-286c0 -52 10.667 -90 32 -114s54 -36 98 -36c47.333 0 84.5 16.167 111.5 48.5
s40.5 75.5 40.5 129.5v258z" />
    <glyph glyph-name="v" unicode="v" 
d="M382 0h-154l-173 496h92l152 -460h12l152 460h92z" />
    <glyph glyph-name="w" unicode="w" 
d="M516 0h-144l-60 460h-12l-60 -460h-144l-78 496h80l66 -460h12l58 460h144l58 -460h12l66 460h80z" />
    <glyph glyph-name="x" unicode="x" 
d="M440 496h89l-146 -236v-12l158 -248h-91l-135 218h-18l-135 -218h-91l158 248v12l-146 236h89l125 -206h18z" />
    <glyph glyph-name="y" unicode="y" 
d="M447 90l-12 0.000976562c-16 -32 -37 -57.333 -63 -76s-59 -28 -99 -28c-27.333 0 -52.5 4.5 -75.5 13.5s-42.667 22.5 -59 40.5s-29 40.333 -38 67s-13.5 57.667 -13.5 93v296h78v-286c0 -52 10.667 -90 32 -114s54 -36 98 -36c47.333 0 84.5 16.167 111.5 48.5
s40.5 75.5 40.5 129.5v258h78v-618c0 -22.667 -7.16699 -41.334 -21.5 -56.001s-32.833 -22 -55.5 -22h-283v72h255c18 0 27 10 27 30v188z" />
    <glyph glyph-name="z" unicode="z" 
d="M523 72v-72h-432v124l354 288v12h-348v72h414v-120l-356 -292v-12h368z" />
    <glyph glyph-name="braceleft" unicode="{" 
d="M278 778c0 22.667 7.16699 41.334 21.5 56.001s32.833 22 55.5 22h97v-72h-69c-18 0 -27 -10 -27 -30v-320c0 -22.667 -7.16699 -41.334 -21.5 -56.001s-33.166 -22 -56.499 -22h-12v-12h12c23.333 0 42.166 -7.33301 56.499 -22s21.5 -33.334 21.5 -56.001v-320
c0 -20 9 -30 27 -30h69v-72h-97c-22.667 0 -41.167 7.33301 -55.5 22s-21.5 33.334 -21.5 56.001v345c0 19.333 -9 29 -27 29h-51v108h51c18 0 27 9.66699 27 29v345z" />
    <glyph glyph-name="bar" unicode="|" 
d="M342 -156h-72v1012h72v-1012z" />
    <glyph glyph-name="braceright" unicode="}" 
d="M334 433c0 -19.333 9 -29 27 -29h51v-108h-51c-18 0 -27 -9.66699 -27 -29v-345c0 -22.667 -7.16699 -41.334 -21.5 -56.001s-32.833 -22 -55.5 -22h-97v72h69c18 0 27 10 27 30v320c0 22.667 7.16699 41.334 21.5 56.001s33.166 22 56.499 22h12v12h-12
c-23.333 0 -42.166 7.33301 -56.499 22s-21.5 33.334 -21.5 56.001v320c0 20 -9 30 -27 30h-69v72h97c22.667 0 41.167 -7.33301 55.5 -22s21.5 -33.334 21.5 -56.001v-345z" />
    <glyph glyph-name="asciitilde" unicode="~" 
d="M338 316c1.33301 -5.33301 3.66504 -10.834 6.99805 -16.501s8.66602 -8.5 15.999 -8.5c5.33301 0 12 3 20 9l129 95l38 -50l-123 -94c-9.33301 -7.33301 -19.166 -13.666 -29.499 -18.999s-23.166 -8 -38.499 -8c-26 0 -44.667 6.83301 -56 20.5
s-20.666 32.167 -27.999 55.5c-1.33301 6 -3.5 12.167 -6.5 18.5s-8.5 9.5 -16.5 9.5c-6 0 -13.667 -3.66699 -23 -11l-126 -93l-38 50l123 94c10 8 20.333 14.5 31 19.5s23 7.5 37 7.5c25.333 0 43.833 -7.16699 55.5 -21.5s21.167 -33.5 28.5 -57.5z" />
    <glyph glyph-name="uni00A0" unicode="&#xa0;" 
 />
    <glyph glyph-name="exclamdown" unicode="&#xa1;" 
d="M236 444.004c0 -19.333 6.83301 -35.832 20.5 -49.4971c13.667 -13.666 30.167 -20.499 49.5 -20.499s35.833 6.83301 49.5 20.499c13.667 13.665 20.5 30.1641 20.5 49.4971c0 19.332 -6.83301 35.8311 -20.5 49.4961c-13.667 13.666 -30.167 20.499 -49.5 20.499
s-35.833 -6.83301 -49.5 -20.499c-13.667 -13.665 -20.5 -30.1641 -20.5 -49.4961zM346 -199.957v513.969h-80v-513.969h80z" />
    <glyph glyph-name="cent" unicode="&#xa2;" 
d="M351 609c54 -6.66699 98.5 -27 133.5 -61s56.833 -76 65.5 -126l-78 -18c-3.33301 30 -15 57.333 -35 82s-48.667 40.667 -86 48v-369c18.667 3.33301 35.167 9.16602 49.5 17.499s26.5 18.5 36.5 30.5s18.167 25 24.5 39s10.5 28.667 12.5 44l78 -18
c-9.33301 -50 -31.333 -92.167 -66 -126.5s-79.667 -54.833 -135 -61.5v-62h-72v62c-30.667 4 -59.334 12.333 -86.001 25s-49.834 29.834 -69.501 51.501s-35.167 47.167 -46.5 76.5s-17 62.333 -17 99v12c0 36 5.66699 68.833 17 98.5s26.833 55.5 46.5 77.5
s42.834 39.667 69.501 53s55.334 22 86.001 26v63h72v-63zM140 342c0 -24.667 3.50098 -47.001 10.501 -67.001s16.667 -37.5 29 -52.5s27 -27.333 44 -37s35.5 -16.5 55.5 -20.5v369c-20 -4 -38.333 -11.167 -55 -21.5s-31.334 -23.333 -44.001 -39
s-22.5 -33.667 -29.5 -54s-10.5 -42.166 -10.5 -65.499v-12z" />
    <glyph glyph-name="sterling" unicode="&#xa3;" 
d="M248 366h90v-72h-90v-120h242v-72h-380v72h60v120h-60v72h60v74c0 55.333 14.667 97.833 44 127.5s70 44.5 122 44.5c50 0 90.167 -14.833 120.5 -44.5s45.5 -72.167 45.5 -127.5v-24h-78v24c0 34 -8.33301 59.167 -25 75.5s-37.667 24.5 -63 24.5
s-46.333 -8.16699 -63 -24.5s-25 -41.5 -25 -75.5v-74z" />
    <glyph glyph-name="currency" unicode="&#xa4;" 
d="M56 350c0 27.333 4 53.333 12 78s19.667 47.334 35 68.001l-59 59l57 57l59 -59c20.667 14.667 43.167 26.167 67.5 34.5s50.5 12.5 78.5 12.5c27.333 0 53.333 -4.16699 78 -12.5s47.334 -19.833 68.001 -34.5l59 59l57 -57l-59 -59
c14.667 -20.667 26.167 -43.334 34.5 -68.001s12.5 -50.667 12.5 -78c0 -28 -4.16699 -54.167 -12.5 -78.5s-19.833 -46.833 -34.5 -67.5l59 -59l-57 -57l-59 59c-20.667 -15.333 -43.334 -27 -68.001 -35s-50.667 -12 -78 -12c-28 0 -54.167 4 -78.5 12
s-46.833 19.667 -67.5 35l-59 -59l-57 57l59 59c-15.333 20.667 -27 43.167 -35 67.5s-12 50.5 -12 78.5zM134 350c0 -24 4.5 -46.5 13.5 -67.5s21.167 -39.167 36.5 -54.5s33.5 -27.5 54.5 -36.5s43.5 -13.5 67.5 -13.5s46.5 4.5 67.5 13.5s39.167 21.167 54.5 36.5
s27.5 33.5 36.5 54.5s13.5 43.5 13.5 67.5s-4.5 46.5 -13.5 67.5s-21.167 39.167 -36.5 54.5s-33.5 27.5 -54.5 36.5s-43.5 13.5 -67.5 13.5s-46.5 -4.5 -67.5 -13.5s-39.167 -21.167 -54.5 -36.5s-27.5 -33.5 -36.5 -54.5s-13.5 -43.5 -13.5 -67.5z" />
    <glyph glyph-name="yen" unicode="&#xa5;" 
d="M132 366h86l-122 232h86l118 -232h12l118 232h86l-122 -232h86v-72h-138v-36h138v-72h-138v-84h-72v84h-138v72h138v36h-138v72z" />
    <glyph glyph-name="brokenbar" unicode="&#xa6;" 
d="M342 314v-470h-72v470h72zM270 386v470h72v-470h-72z" />
    <glyph glyph-name="section" unicode="&#xa7;" 
d="M184 494c0 10.667 1.66406 19.998 4.99707 27.998s7.66602 15.667 12.999 23c-4.66699 7.33301 -8.83398 16 -12.501 26s-5.5 21 -5.5 33c0 16.667 3.33301 31.834 10 45.501s15.834 25.334 27.501 35.001s25.167 17 40.5 22s32 7.5 50 7.5c20.667 0 39 -3.16699 55 -9.5
s29.333 -14.5 40 -24.5s18.667 -21.667 24 -35s8 -27 8 -41v-16h-68v6c0 14 -5.66699 26.5 -17 37.5s-26.666 16.5 -45.999 16.5c-17.333 0 -30.666 -4 -39.999 -12s-14 -18.333 -14 -31c0 -12 5.83301 -22 17.5 -30s34.5 -15 68.5 -21c34.667 -6 60.834 -17.333 78.501 -34
s26.5 -40.667 26.5 -72c0 -10 -1.66699 -19.167 -5 -27.5s-7.33301 -16.833 -12 -25.5c11.333 -16 17 -35.667 17 -59c0 -34 -12 -62.167 -36 -84.5s-56.333 -33.5 -97 -33.5c-46 0 -80.833 12.333 -104.5 37s-35.5 55.334 -35.5 92.001v12h68v-6
c0 -18.667 6 -34.834 18 -48.501s30.667 -20.5 56 -20.5c23.333 0 39.333 5 48 15s13 20.667 13 32c0 13.333 -5.5 24.333 -16.5 33s-32.5 16 -64.5 22c-14 2.66699 -27.5 6.16699 -40.5 10.5s-24.667 10.5 -35 18.5s-18.666 18.333 -24.999 31s-9.5 28.667 -9.5 48z
M339.997 440.998l17.5 -4.5l16.5 -4.5c0.666992 1.33301 1 3.5 1 6.5v6.5c0 12 -5.5 22.5 -16.5 31.5s-32.5 16.5 -64.5 22.5c-6 1.33301 -12.333 2.83301 -19 4.5s-13 3.5 -19 5.5c-0.666992 -1.33301 -1.16699 -3.83301 -1.5 -7.5s-0.5 -6.5 -0.5 -8.5
c0 -11.333 5.83301 -21.333 17.5 -30s34.5 -16 68.5 -22z" />
    <glyph glyph-name="dieresis" unicode="&#xa8;" 
d="M136 644c0 19.333 6.83301 35.833 20.5 49.5s30.167 20.5 49.5 20.5s35.833 -6.83301 49.5 -20.5s20.5 -30.167 20.5 -49.5s-6.83301 -35.833 -20.5 -49.5s-30.167 -20.5 -49.5 -20.5s-35.833 6.83301 -49.5 20.5s-20.5 30.167 -20.5 49.5zM336 644
c0 19.333 6.83301 35.833 20.5 49.5s30.167 20.5 49.5 20.5s35.833 -6.83301 49.5 -20.5s20.5 -30.167 20.5 -49.5s-6.83301 -35.833 -20.5 -49.5s-30.167 -20.5 -49.5 -20.5s-35.833 6.83301 -49.5 20.5s-20.5 30.167 -20.5 49.5z" />
    <glyph glyph-name="copyright" unicode="&#xa9;" 
d="M58 556c0 34 6.5 66.167 19.5 96.5s30.667 56.666 53 78.999s48.666 40 78.999 53s62.5 19.5 96.5 19.5s66.167 -6.5 96.5 -19.5s56.666 -30.667 78.999 -53s40 -48.666 53 -78.999s19.5 -62.5 19.5 -96.5s-6.5 -66.167 -19.5 -96.5s-30.667 -56.666 -53 -78.999
s-48.666 -40 -78.999 -53s-62.5 -19.5 -96.5 -19.5s-66.167 6.5 -96.5 19.5s-56.666 30.667 -78.999 53s-40 48.666 -53 78.999s-19.5 62.5 -19.5 96.5zM106 556c0 -28 5.16699 -54.167 15.5 -78.5s24.5 -45.5 42.5 -63.5s39.167 -32.167 63.5 -42.5s50.5 -15.5 78.5 -15.5
s54.167 5.16699 78.5 15.5s45.5 24.5 63.5 42.5s32.167 39.167 42.5 63.5s15.5 50.5 15.5 78.5s-5.16699 54.167 -15.5 78.5s-24.5 45.5 -42.5 63.5s-39.167 32.167 -63.5 42.5s-50.5 15.5 -78.5 15.5s-54.167 -5.16699 -78.5 -15.5s-45.5 -24.5 -63.5 -42.5
s-32.167 -39.167 -42.5 -63.5s-15.5 -50.5 -15.5 -78.5zM306 454c15.333 0 27.3311 4.83301 35.998 14.5s13 21.834 13 36.501v18h54v-12c0 -30.667 -8.66699 -55.834 -26 -75.501s-43 -29.5 -77 -29.5c-33.333 0 -59.166 9.83301 -77.499 29.5s-27.5 44.834 -27.5 75.501
v90c0 30.667 9.33301 55.834 28 75.501s44.334 29.5 77.001 29.5c34 0 59.667 -9.83301 77 -29.5s26 -44.834 26 -75.501v-12h-54v18c0 14.667 -4.33301 26.834 -13 36.501s-20.667 14.5 -36 14.5s-27.666 -4.83301 -36.999 -14.5s-14 -21.834 -14 -36.501v-102
c0 -14.667 4.66699 -26.834 14 -36.501s21.666 -14.5 36.999 -14.5z" />
    <glyph glyph-name="ordfeminine" unicode="&#xaa;" 
d="M373 452c-6.66699 -16 -17.832 -27.6689 -33.499 -35.002s-32.5 -11 -50.5 -11s-35 3.33301 -51 10s-30 16.334 -42 29.001s-21.5 28.334 -28.5 47.001s-10.5 40 -10.5 64s3.5 45.167 10.5 63.5s16.5 34 28.5 47s26.167 22.833 42.5 29.5s33.833 10 52.5 10
c39.333 0 66.666 -13.333 81.999 -40h6v32h66v-209c0 -11.333 5.33301 -17 16 -17h14v-60h-48c-13.333 0 -24.333 3.33301 -33 10s-13.667 16.667 -15 30h-6zM301.002 465.998c21.333 0 39.666 7.16699 54.999 21.5s23 37.166 23 68.499c0 30 -7.16699 52.5 -21.5 67.5
s-33.166 22.5 -56.499 22.5c-24 0 -43 -8.5 -57 -25.5s-21 -38.5 -21 -64.5c0 -29.333 7 -51.666 21 -66.999s33 -23 57 -23z" />
    <glyph glyph-name="guillemotleft" unicode="&#xab;" 
d="M312 12l-234 158v156l234 158h6v-88l-210 -142v-12l210 -142v-88h-6zM528 12l-234 158v156l234 158h6v-88l-210 -142v-12l210 -142v-88h-6z" />
    <glyph glyph-name="logicalnot" unicode="&#xac;" 
d="M97 386h418v-156h-72v84h-346v72z" />
    <glyph glyph-name="registered" unicode="&#xae;" 
d="M58 556c0 34 6.5 66.167 19.5 96.5s30.667 56.666 53 78.999s48.666 40 78.999 53s62.5 19.5 96.5 19.5s66.167 -6.5 96.5 -19.5s56.666 -30.667 78.999 -53s40 -48.666 53 -78.999s19.5 -62.5 19.5 -96.5s-6.5 -66.167 -19.5 -96.5s-30.667 -56.666 -53 -78.999
s-48.666 -40 -78.999 -53s-62.5 -19.5 -96.5 -19.5s-66.167 6.5 -96.5 19.5s-56.666 30.667 -78.999 53s-40 48.666 -53 78.999s-19.5 62.5 -19.5 96.5zM106 556c0 -28 5.16699 -54.167 15.5 -78.5s24.5 -45.5 42.5 -63.5s39.167 -32.167 63.5 -42.5s50.5 -15.5 78.5 -15.5
s54.167 5.16699 78.5 15.5s45.5 24.5 63.5 42.5s32.167 39.167 42.5 63.5s15.5 50.5 15.5 78.5s-5.16699 54.167 -15.5 78.5s-24.5 45.5 -42.5 63.5s-39.167 32.167 -63.5 42.5s-50.5 15.5 -78.5 15.5s-54.167 -5.16699 -78.5 -15.5s-45.5 -24.5 -63.5 -42.5
s-32.167 -39.167 -42.5 -63.5s-15.5 -50.5 -15.5 -78.5zM402 412l-54 -0.000976562v83c0 7.33301 -2.16699 13.333 -6.5 18s-10.5 7 -18.5 7h-47v-108h-54v288h96c30 0 52.5 -8 67.5 -24s22.5 -34.667 22.5 -56c0 -17.333 -2.83301 -31.833 -8.5 -43.5
s-16.167 -20.834 -31.5 -27.501v-6c12 -1.33301 20.667 -6.16602 26 -14.499s8 -17.166 8 -26.499v-90zM276 567.999h32c15.333 0 26.833 4.16699 34.5 12.5s11.5 18.833 11.5 31.5s-3.83301 22.667 -11.5 30s-19.167 11 -34.5 11h-32v-85z" />
    <glyph glyph-name="macron" unicode="&#xaf;" 
d="M447 570h-282v66h282v-66z" />
    <glyph glyph-name="degree" unicode="&#xb0;" 
d="M161 569c0 20 3.83301 38.833 11.5 56.5s18 33 31 46s28.333 23.333 46 31s36.5 11.5 56.5 11.5s38.833 -3.83301 56.5 -11.5s33 -18 46 -31s23.333 -28.333 31 -46s11.5 -36.5 11.5 -56.5s-3.83301 -38.833 -11.5 -56.5s-18 -33 -31 -46s-28.333 -23.333 -46 -31
s-36.5 -11.5 -56.5 -11.5s-38.833 3.83301 -56.5 11.5s-33 18 -46 31s-23.333 28.333 -31 46s-11.5 36.5 -11.5 56.5zM233 569c0 -20 7.16699 -37.167 21.5 -51.5s31.5 -21.5 51.5 -21.5s37.167 7.16699 51.5 21.5s21.5 31.5 21.5 51.5s-7.16699 37.167 -21.5 51.5
s-31.5 21.5 -51.5 21.5s-37.167 -7.16699 -51.5 -21.5s-21.5 -31.5 -21.5 -51.5z" />
    <glyph glyph-name="plusminus" unicode="&#xb1;" 
d="M97 386h173v173h72v-173h173v-72h-173v-173h-72v173h-173v72zM97 72h418v-72h-418v72z" />
    <glyph glyph-name="twosuperior" unicode="&#xb2;" 
d="M405 460v-47.999h-195v54c0 28 8 49.5 24 64.5s40 26.167 72 33.5c22 5.33301 35.5 12.666 40.5 21.999s7.5 18.666 7.5 27.999c0 11.333 -3.66699 21.5 -11 30.5s-19 13.5 -35 13.5c-15.333 0 -27.5 -4.66699 -36.5 -14s-13.5 -22.666 -13.5 -39.999v-18h-54v18
c0 28 9.16699 52 27.5 72s44.5 30 78.5 30c16 0 30.167 -2.5 42.5 -7.5s22.5 -11.667 30.5 -20s14.167 -18 18.5 -29s6.5 -22.167 6.5 -33.5c0 -24 -6 -44.667 -18 -62s-34 -29.333 -66 -36c-24 -5.33301 -40 -12 -48 -20s-12 -18.667 -12 -32v-6h141z" />
    <glyph glyph-name="threesuperior" unicode="&#xb3;" 
d="M276 542l0.00195312 76.001l82 28v6h-145v48h187v-84l-82 -28v-6h6c24 0 44 -6.83301 60 -20.5s24 -33.5 24 -59.5c0 -28.667 -9.16699 -51.834 -27.5 -69.501s-42.5 -26.5 -72.5 -26.5c-32 0 -57.333 9.5 -76 28.5s-28 41.5 -28 67.5v16h54v-14
c0 -15.333 4.16699 -27.5 12.5 -36.5s20.166 -13.5 35.499 -13.5s27.166 4 35.499 12s12.5 18.667 12.5 32c0 16 -4.83301 27.333 -14.5 34s-20.167 10 -31.5 10h-32z" />
    <glyph glyph-name="acute" unicode="&#xb4;" 
d="M386 688l-84 -118h-72l66 118h90z" />
    <glyph glyph-name="mu" unicode="&#xb5;" 
d="M447 60h-12c-7.33301 -18.667 -21.333 -35.667 -42 -51s-49.667 -23 -87 -23s-66.333 7.66699 -87 23s-34.667 32.333 -42 51h-12v-260h-78v696h78v-280c0 -52 13.5 -91 40.5 -117s60.5 -39 100.5 -39s73.5 13 100.5 39s40.5 65 40.5 117v280h78v-496h-78v60z" />
    <glyph glyph-name="paragraph" unicode="&#xb6;" 
d="M269 424c-20 0 -38.833 3.83301 -56.5 11.5s-33 18 -46 31s-23.333 28.333 -31 46s-11.5 36.5 -11.5 56.5s3.83301 38.833 11.5 56.5s18 33 31 46s28.333 23.333 46 31s36.5 11.5 56.5 11.5h180v-496h-72v424h-36v-424h-72v206zM269 642
c-20 0 -37.167 -7.16699 -51.5 -21.5s-21.5 -31.5 -21.5 -51.5s7.16699 -37.167 21.5 -51.5s31.5 -21.5 51.5 -21.5v146z" />
    <glyph glyph-name="periodcentered" unicode="&#xb7;" 
d="M236 350c0 19.333 6.83301 35.833 20.5 49.5s30.167 20.5 49.5 20.5s35.833 -6.83301 49.5 -20.5s20.5 -30.167 20.5 -49.5s-6.83301 -35.833 -20.5 -49.5s-30.167 -20.5 -49.5 -20.5s-35.833 6.83301 -49.5 20.5s-20.5 30.167 -20.5 49.5z" />
    <glyph glyph-name="cedilla" unicode="&#xb8;" 
d="M281 0l-15.002 -68.001h6c8.66699 21.333 26.667 32 54 32c23.333 0 41.833 -8.33301 55.5 -25s20.5 -36.667 20.5 -60c0 -28 -9 -50.167 -27 -66.5s-40 -24.5 -66 -24.5c-28.667 0 -50.667 6.66699 -66 20s-25.666 30 -30.999 50l48 18
c2 -10 6.83301 -19.167 14.5 -27.5s18.834 -12.5 33.501 -12.5c10 0 19.167 3.33301 27.5 10s12.5 17.334 12.5 32.001c0 12 -3.5 21.333 -10.5 28s-15.167 10 -24.5 10c-12 0 -20.333 -4.66699 -25 -14h-76v6l20 92h49z" />
    <glyph glyph-name="onesuperior" unicode="&#xb9;" 
d="M293 460v210h-9l-22 -93h-53l32 123h106v-240h71v-48h-203v48h78z" />
    <glyph glyph-name="ordmasculine" unicode="&#xba;" 
d="M157 556c0 24.667 4.16699 46.334 12.5 65.001s19.5 34.334 33.5 47.001s29.833 22.167 47.5 28.5s36.167 9.5 55.5 9.5c18.667 0 37 -3.16699 55 -9.5s34 -15.833 48 -28.5s25.167 -28.334 33.5 -47.001s12.5 -40.334 12.5 -65.001s-4.16699 -46.334 -12.5 -65.001
s-19.5 -34.334 -33.5 -47.001s-30 -22.167 -48 -28.5s-36.333 -9.5 -55 -9.5c-19.333 0 -37.833 3.16699 -55.5 9.5s-33.5 15.833 -47.5 28.5s-25.167 28.334 -33.5 47.001s-12.5 40.334 -12.5 65.001zM306 466c22.667 0 42.167 7.66699 58.5 23s24.5 37.666 24.5 66.999
s-8.16699 51.666 -24.5 66.999s-35.833 23 -58.5 23s-42.167 -7.66699 -58.5 -23s-24.5 -37.666 -24.5 -66.999s8.16699 -51.666 24.5 -66.999s35.833 -23 58.5 -23z" />
    <glyph glyph-name="guillemotright" unicode="&#xbb;" 
d="M294 12v88l210 142v12l-210 142v88h6l234 -158v-156l-234 -158h-6zM78 12v88l210 142v12l-210 142v88h6l234 -158v-156l-234 -158h-6z" />
    <glyph glyph-name="onequarter" unicode="&#xbc;" 
d="M531 494l24 -46l-473 -241l-24 46zM136 460v210h-9l-22 -93h-53l32 123h106v-240h71v-48h-203v48h78zM410 289h99v-186h40v-48h-40v-54h-54v54h-130v66zM373 109v-6h82v156h-6z" />
    <glyph glyph-name="onehalf" unicode="&#xbd;" 
d="M531 494l24 -46l-473 -241l-24 46zM552 49v-47.999h-195v54c0 28 8 49.5 24 64.5s40 26.167 72 33.5c22 5.33301 35.5 12.666 40.5 21.999s7.5 18.666 7.5 27.999c0 11.333 -3.66699 21.5 -11 30.5s-19 13.5 -35 13.5c-15.333 0 -27.5 -4.66699 -36.5 -14
s-13.5 -22.666 -13.5 -39.999v-18h-54v18c0 28 9.16699 52 27.5 72s44.5 30 78.5 30c16 0 30.167 -2.5 42.5 -7.5s22.5 -11.667 30.5 -20s14.167 -18 18.5 -29s6.5 -22.167 6.5 -33.5c0 -24 -6 -44.667 -18 -62s-34 -29.333 -66 -36c-24 -5.33301 -40 -12 -48 -20
s-12 -18.667 -12 -32v-6h141zM136 460.001v210h-9l-22 -93h-53l32 123h106v-240h71v-48h-203v48h78z" />
    <glyph glyph-name="threequarters" unicode="&#xbe;" 
d="M531 494l24 -46l-473 -241l-24 46zM410 289h99v-186h40v-48h-40v-54h-54v54h-130v66zM373 109v-6h82v156h-6zM121 542l0.00195312 76.001l82 28v6h-145v48h187v-84l-82 -28v-6h6c24 0 44 -6.83301 60 -20.5s24 -33.5 24 -59.5c0 -28.667 -9.16699 -51.834 -27.5 -69.501
s-42.5 -26.5 -72.5 -26.5c-32 0 -57.333 9.5 -76 28.5s-28 41.5 -28 67.5v16h54v-14c0 -15.333 4.16699 -27.5 12.5 -36.5s20.166 -13.5 35.499 -13.5s27.166 4 35.499 12s12.5 18.667 12.5 32c0 16 -4.83301 27.333 -14.5 34s-20.167 10 -31.5 10h-32z" />
    <glyph glyph-name="questiondown" unicode="&#xbf;" 
d="M260.021 136.022c-29.998 0 -54.8281 -10.998 -74.4932 -32.9971c-19.666 -21.999 -29.499 -50.9971 -29.499 -86.9951v-5.99902c0 -19.999 3.5 -38.665 10.5 -55.998c6.99902 -17.332 16.832 -32.498 29.498 -45.4971s27.998 -23.332 45.9971 -30.998
s37.998 -11.499 59.9971 -11.499c47.9971 0 85.6611 14.666 112.992 43.9971c27.332 29.3311 40.998 67.9951 40.998 115.992v41.9971h83.9941v-47.9971c0 -30.665 -5.16602 -59.9961 -15.498 -87.9941c-10.333 -27.999 -25.499 -52.6641 -45.498 -73.9961
s-44.9971 -38.3311 -74.9951 -50.9971c-29.998 -12.665 -64.6621 -18.998 -103.993 -18.998c-33.3311 0 -63.9961 5.66602 -91.9951 16.999c-27.998 11.332 -51.9961 26.8311 -71.9951 46.4971c-19.999 19.665 -35.665 42.3301 -46.998 67.9951
s-16.999 52.8301 -16.999 81.4951v17.999c0 25.999 4.5 50.8311 13.499 74.4961s21.498 44.1641 37.4971 61.4971c15.999 17.332 34.8311 31.1641 56.4961 41.4971s45.1641 15.499 70.4961 15.499h13.999c18.665 0 27.998 9.99902 27.998 29.998v73.9961h79.9951v-93.9941
c0 -25.332 -8 -45.998 -23.999 -61.9971s-36.6641 -23.998 -61.9961 -23.998h-25.998zM401.015 446.005c0 -19.333 -6.83301 -35.832 -20.499 -49.4971c-13.665 -13.666 -30.1641 -20.499 -49.4961 -20.499c-19.333 0 -35.832 6.83301 -49.4971 20.499
c-13.666 13.665 -20.499 30.1641 -20.499 49.4971c0 19.332 6.83301 35.8311 20.499 49.4961c13.665 13.666 30.1641 20.499 49.4971 20.499c19.332 0 35.8311 -6.83301 49.4961 -20.499c13.666 -13.665 20.499 -30.1641 20.499 -49.4961z" />
    <glyph glyph-name="Agrave" unicode="&#xc0;" 
d="M456 174h-300l-51 -174h-90l212 700h158l212 -700h-90zM300 664l-121 -412h254l-121 412h-12zM271 892l66 -118h-72l-84 118h90z" />
    <glyph glyph-name="Aacute" unicode="&#xc1;" 
d="M456 174h-300l-51 -174h-90l212 700h158l212 -700h-90zM300 664l-121 -412h254l-121 412h-12zM431 892l-84 -118h-72l66 118h90z" />
    <glyph glyph-name="Acircumflex" unicode="&#xc2;" 
d="M456 174h-300l-51 -174h-90l212 700h158l212 -700h-90zM300 664l-121 -412h254l-121 412h-12zM364 774l-52 88h-12l-52 -88h-84l80 118h124l80 -118h-84z" />
    <glyph glyph-name="Atilde" unicode="&#xc3;" 
d="M456 174h-300l-51 -174h-90l212 700h158l212 -700h-90zM300 664l-121 -412h254l-121 412h-12zM337 846c3.33301 -6.66699 6.66699 -11.667 10 -15s8 -5 14 -5c6.66699 0 13 3.33301 19 10l48 55l49 -42l-41 -49c-9.33301 -11.333 -20.333 -21.166 -33 -29.499
s-27.667 -12.5 -45 -12.5c-20.667 0 -36.5 4.66699 -47.5 14s-22.167 24.333 -33.5 45c-4.66699 8 -8.5 13.667 -11.5 17s-7.16699 5 -12.5 5c-7.33301 0 -14.666 -4 -21.999 -12l-46 -53l-49 42l41 49c9.33301 11.333 20.333 21.166 33 29.499s28 12.5 46 12.5
c19.333 0 34.666 -4.83301 45.999 -14.5s23 -25.167 35 -46.5z" />
    <glyph glyph-name="Adieresis" unicode="&#xc4;" 
d="M456 174h-300l-51 -174h-90l212 700h158l212 -700h-90zM300 664l-121 -412h254l-121 412h-12zM136 848c0 19.333 6.83301 35.833 20.5 49.5s30.167 20.5 49.5 20.5s35.833 -6.83301 49.5 -20.5s20.5 -30.167 20.5 -49.5s-6.83301 -35.833 -20.5 -49.5
s-30.167 -20.5 -49.5 -20.5s-35.833 6.83301 -49.5 20.5s-20.5 30.167 -20.5 49.5zM336 848c0 19.333 6.83301 35.833 20.5 49.5s30.167 20.5 49.5 20.5s35.833 -6.83301 49.5 -20.5s20.5 -30.167 20.5 -49.5s-6.83301 -35.833 -20.5 -49.5s-30.167 -20.5 -49.5 -20.5
s-35.833 6.83301 -49.5 20.5s-20.5 30.167 -20.5 49.5z" />
    <glyph glyph-name="Aring" unicode="&#xc5;" 
d="M456 174h-300l-51 -174h-90l212 700h158l212 -700h-90zM300 664l-121 -412h254l-121 412h-12zM204 874c0 28.667 9.83301 52.834 29.5 72.501s43.834 29.5 72.501 29.5s52.834 -9.83301 72.501 -29.5s29.5 -43.834 29.5 -72.501s-9.83301 -52.834 -29.5 -72.501
s-43.834 -29.5 -72.501 -29.5s-52.834 9.83301 -72.501 29.5s-29.5 43.834 -29.5 72.501zM264 874c0 -12 4 -22 12 -30s18 -12 30 -12s22 4 30 12s12 18 12 30s-4 22 -12 30s-18 12 -30 12s-22 -4 -30 -12s-12 -18 -12 -30z" />
    <glyph glyph-name="AE" unicode="&#xc6;" 
d="M300 174h-144l-51 -174h-90l212 700h313v-78h-156v-232h150v-78h-150v-234h162v-78h-246v174zM179 252h121v370h-12z" />
    <glyph glyph-name="Ccedilla" unicode="&#xc7;" 
d="M310 64c28.667 0 53.166 4.83301 73.499 14.5s37 22.667 50 39s22.667 35 29 56s9.5 43.167 9.5 66.5v12h84v-12c0 -35.333 -5.33301 -68.5 -16 -99.5s-26.334 -58 -47.001 -81s-46.334 -41 -77.001 -54s-66 -19.5 -106 -19.5h-8l-12 -54h6
c8.66699 21.333 26.667 32 54 32c23.333 0 41.833 -8.33301 55.5 -25s20.5 -36.667 20.5 -60c0 -28 -9 -50.167 -27 -66.5s-40 -24.5 -66 -24.5c-28.667 0 -50.667 6.66699 -66 20s-25.666 30 -30.999 50l48 18c2 -10 6.83301 -19.167 14.5 -27.5s18.834 -12.5 33.501 -12.5
c10 0 19.167 3.33301 27.5 10s12.5 17.334 12.5 32.001c0 12 -3.5 21.333 -10.5 28s-15.167 10 -24.5 10c-12 0 -20.333 -4.66699 -25 -14h-76v6l18 83c-60.667 10.667 -107.5 39.667 -140.5 87s-49.5 112 -49.5 194v156c0 90.667 21.667 161 65 211s103.666 75 180.999 75
c40 0 75.333 -6.5 106 -19.5s56.334 -31 77.001 -54s36.334 -50 47.001 -81s16 -64.167 16 -99.5v-12h-84v12c-0.666992 22.667 -4.16699 44.667 -10.5 66s-16 40.166 -29 56.499s-29.5 29.333 -49.5 39s-44.333 14.5 -73 14.5c-54 0 -94.5 -19.667 -121.5 -59
s-40.5 -91 -40.5 -155v-144c0 -68.667 13.5 -121.5 40.5 -158.5s67.5 -55.5 121.5 -55.5z" />
    <glyph glyph-name="Egrave" unicode="&#xc8;" 
d="M94 700h424v-78h-340v-232h334v-78h-334v-234h346v-78h-430v700zM292 892l66 -118h-72l-84 118h90z" />
    <glyph glyph-name="Eacute" unicode="&#xc9;" 
d="M94 700h424v-78h-340v-232h334v-78h-334v-234h346v-78h-430v700zM435 892l-84 -118h-72l66 118h90z" />
    <glyph glyph-name="Ecircumflex" unicode="&#xca;" 
d="M94 700h424v-78h-340v-232h334v-78h-334v-234h346v-78h-430v700zM366 774l-52 88h-12l-52 -88h-84l80 118h124l80 -118h-84z" />
    <glyph glyph-name="Edieresis" unicode="&#xcb;" 
d="M94 700h424v-78h-340v-232h334v-78h-334v-234h346v-78h-430v700zM140 848c0 19.333 6.83301 35.833 20.5 49.5s30.167 20.5 49.5 20.5s35.833 -6.83301 49.5 -20.5s20.5 -30.167 20.5 -49.5s-6.83301 -35.833 -20.5 -49.5s-30.167 -20.5 -49.5 -20.5
s-35.833 6.83301 -49.5 20.5s-20.5 30.167 -20.5 49.5zM340 848c0 19.333 6.83301 35.833 20.5 49.5s30.167 20.5 49.5 20.5s35.833 -6.83301 49.5 -20.5s20.5 -30.167 20.5 -49.5s-6.83301 -35.833 -20.5 -49.5s-30.167 -20.5 -49.5 -20.5s-35.833 6.83301 -49.5 20.5
s-20.5 30.167 -20.5 49.5z" />
    <glyph glyph-name="Igrave" unicode="&#xcc;" 
d="M84 700h444v-78h-180v-544h180v-78h-444v78h180v544h-180v78zM275 892l66 -118h-72l-84 118h90z" />
    <glyph glyph-name="Iacute" unicode="&#xcd;" 
d="M84 700h444v-78h-180v-544h180v-78h-444v78h180v544h-180v78zM426 892l-84 -118h-72l66 118h90z" />
    <glyph glyph-name="Icircumflex" unicode="&#xce;" 
d="M84 700h444v-78h-180v-544h180v-78h-444v78h180v544h-180v78zM364 774l-52 88h-12l-52 -88h-84l80 118h124l80 -118h-84z" />
    <glyph glyph-name="Idieresis" unicode="&#xcf;" 
d="M84 700h444v-78h-180v-544h180v-78h-444v78h180v544h-180v78zM136 848c0 19.333 6.83301 35.833 20.5 49.5s30.167 20.5 49.5 20.5s35.833 -6.83301 49.5 -20.5s20.5 -30.167 20.5 -49.5s-6.83301 -35.833 -20.5 -49.5s-30.167 -20.5 -49.5 -20.5
s-35.833 6.83301 -49.5 20.5s-20.5 30.167 -20.5 49.5zM336 848c0 19.333 6.83301 35.833 20.5 49.5s30.167 20.5 49.5 20.5s35.833 -6.83301 49.5 -20.5s20.5 -30.167 20.5 -49.5s-6.83301 -35.833 -20.5 -49.5s-30.167 -20.5 -49.5 -20.5s-35.833 6.83301 -49.5 20.5
s-20.5 30.167 -20.5 49.5z" />
    <glyph glyph-name="Eth" unicode="&#xd0;" 
d="M73 389h60v233h-60v78h230c86.667 0 150 -20.667 190 -62s60 -107.333 60 -198v-180c0 -90.667 -20 -156.667 -60 -198s-103.333 -62 -190 -62h-230v78h60v233h-60v78zM291 78c30.667 0 57.167 3 79.5 9s40.833 16.167 55.5 30.5s25.5 33.5 32.5 57.5
s10.5 54.333 10.5 91v168c0 36.667 -3.5 67 -10.5 91s-17.833 43.167 -32.5 57.5s-33.167 24.5 -55.5 30.5s-48.833 9 -79.5 9h-74v-233h108v-78h-108v-233h74z" />
    <glyph glyph-name="Ntilde" unicode="&#xd1;" 
d="M443 36h12v664h84v-700h-168l-202 664h-12v-664h-84v700h168zM344 846c3.33301 -6.66699 6.66699 -11.667 10 -15s8 -5 14 -5c6.66699 0 13 3.33301 19 10l48 55l49 -42l-41 -49c-9.33301 -11.333 -20.333 -21.166 -33 -29.499s-27.667 -12.5 -45 -12.5
c-20.667 0 -36.5 4.66699 -47.5 14s-22.167 24.333 -33.5 45c-4.66699 8 -8.5 13.667 -11.5 17s-7.16699 5 -12.5 5c-7.33301 0 -14.666 -4 -21.999 -12l-46 -53l-49 42l41 49c9.33301 11.333 20.333 21.166 33 29.499s28 12.5 46 12.5
c19.333 0 34.666 -4.83301 45.999 -14.5s23 -25.167 35 -46.5z" />
    <glyph glyph-name="Ograve" unicode="&#xd2;" 
d="M60 428c0 90.667 21.667 161 65 211s103.666 75 180.999 75s137.666 -25 180.999 -75s65 -120.333 65 -211v-156c0 -93.333 -21.667 -164.333 -65 -213s-103.666 -73 -180.999 -73s-137.666 24.333 -180.999 73s-65 119.667 -65 213v156zM306 64
c54 0 94.5 18.5 121.5 55.5s40.5 89.833 40.5 158.5v144c0 64 -13.5 115.667 -40.5 155s-67.5 59 -121.5 59s-94.5 -19.667 -121.5 -59s-40.5 -91 -40.5 -155v-144c0 -68.667 13.5 -121.5 40.5 -158.5s67.5 -55.5 121.5 -55.5zM279 892l66 -118h-72l-84 118h90z" />
    <glyph glyph-name="Oacute" unicode="&#xd3;" 
d="M60 428c0 90.667 21.667 161 65 211s103.666 75 180.999 75s137.666 -25 180.999 -75s65 -120.333 65 -211v-156c0 -93.333 -21.667 -164.333 -65 -213s-103.666 -73 -180.999 -73s-137.666 24.333 -180.999 73s-65 119.667 -65 213v156zM306 64
c54 0 94.5 18.5 121.5 55.5s40.5 89.833 40.5 158.5v144c0 64 -13.5 115.667 -40.5 155s-67.5 59 -121.5 59s-94.5 -19.667 -121.5 -59s-40.5 -91 -40.5 -155v-144c0 -68.667 13.5 -121.5 40.5 -158.5s67.5 -55.5 121.5 -55.5zM430 892l-84 -118h-72l66 118h90z" />
    <glyph glyph-name="Ocircumflex" unicode="&#xd4;" 
d="M60 428c0 90.667 21.667 161 65 211s103.666 75 180.999 75s137.666 -25 180.999 -75s65 -120.333 65 -211v-156c0 -93.333 -21.667 -164.333 -65 -213s-103.666 -73 -180.999 -73s-137.666 24.333 -180.999 73s-65 119.667 -65 213v156zM306 64
c54 0 94.5 18.5 121.5 55.5s40.5 89.833 40.5 158.5v144c0 64 -13.5 115.667 -40.5 155s-67.5 59 -121.5 59s-94.5 -19.667 -121.5 -59s-40.5 -91 -40.5 -155v-144c0 -68.667 13.5 -121.5 40.5 -158.5s67.5 -55.5 121.5 -55.5zM364 774l-52 88h-12l-52 -88h-84l80 118h124
l80 -118h-84z" />
    <glyph glyph-name="Otilde" unicode="&#xd5;" 
d="M60 428c0 90.667 21.667 161 65 211s103.666 75 180.999 75s137.666 -25 180.999 -75s65 -120.333 65 -211v-156c0 -93.333 -21.667 -164.333 -65 -213s-103.666 -73 -180.999 -73s-137.666 24.333 -180.999 73s-65 119.667 -65 213v156zM306 64
c54 0 94.5 18.5 121.5 55.5s40.5 89.833 40.5 158.5v144c0 64 -13.5 115.667 -40.5 155s-67.5 59 -121.5 59s-94.5 -19.667 -121.5 -59s-40.5 -91 -40.5 -155v-144c0 -68.667 13.5 -121.5 40.5 -158.5s67.5 -55.5 121.5 -55.5zM337 846
c3.33301 -6.66699 6.66699 -11.667 10 -15s8 -5 14 -5c6.66699 0 13 3.33301 19 10l48 55l49 -42l-41 -49c-9.33301 -11.333 -20.333 -21.166 -33 -29.499s-27.667 -12.5 -45 -12.5c-20.667 0 -36.5 4.66699 -47.5 14s-22.167 24.333 -33.5 45
c-4.66699 8 -8.5 13.667 -11.5 17s-7.16699 5 -12.5 5c-7.33301 0 -14.666 -4 -21.999 -12l-46 -53l-49 42l41 49c9.33301 11.333 20.333 21.166 33 29.499s28 12.5 46 12.5c19.333 0 34.666 -4.83301 45.999 -14.5s23 -25.167 35 -46.5z" />
    <glyph glyph-name="Odieresis" unicode="&#xd6;" 
d="M60 428c0 90.667 21.667 161 65 211s103.666 75 180.999 75s137.666 -25 180.999 -75s65 -120.333 65 -211v-156c0 -93.333 -21.667 -164.333 -65 -213s-103.666 -73 -180.999 -73s-137.666 24.333 -180.999 73s-65 119.667 -65 213v156zM306 64
c54 0 94.5 18.5 121.5 55.5s40.5 89.833 40.5 158.5v144c0 64 -13.5 115.667 -40.5 155s-67.5 59 -121.5 59s-94.5 -19.667 -121.5 -59s-40.5 -91 -40.5 -155v-144c0 -68.667 13.5 -121.5 40.5 -158.5s67.5 -55.5 121.5 -55.5zM136 848c0 19.333 6.83301 35.833 20.5 49.5
s30.167 20.5 49.5 20.5s35.833 -6.83301 49.5 -20.5s20.5 -30.167 20.5 -49.5s-6.83301 -35.833 -20.5 -49.5s-30.167 -20.5 -49.5 -20.5s-35.833 6.83301 -49.5 20.5s-20.5 30.167 -20.5 49.5zM336 848c0 19.333 6.83301 35.833 20.5 49.5s30.167 20.5 49.5 20.5
s35.833 -6.83301 49.5 -20.5s20.5 -30.167 20.5 -49.5s-6.83301 -35.833 -20.5 -49.5s-30.167 -20.5 -49.5 -20.5s-35.833 6.83301 -49.5 20.5s-20.5 30.167 -20.5 49.5z" />
    <glyph glyph-name="multiply" unicode="&#xd7;" 
d="M453 152l-147 147l-147 -147l-51 51l147 147l-147 147l51 51l147 -147l147 147l51 -51l-147 -147l147 -147z" />
    <glyph glyph-name="Oslash" unicode="&#xd8;" 
d="M161 27c-32.667 22.667 -57.668 54.5 -75.001 95.5s-26 90.833 -26 149.5v156c0 90.667 21.667 161 65 211s103.666 75 180.999 75c26.667 0 52.667 -3.66699 78 -11l23 71l70 -22l-27 -81c32.667 -23.333 57.834 -55.5 75.501 -96.5s26.5 -89.833 26.5 -146.5v-156
c0 -93.333 -21.667 -164.333 -65 -213s-103.666 -73 -180.999 -73c-29.333 0 -55 3.33301 -77 10l-27 -82l-71 22zM143.999 278c0 -73.333 15 -128.333 45 -165l170 515c-17.333 5.33301 -35 8 -53 8c-54 0 -94.5 -19.667 -121.5 -59s-40.5 -91 -40.5 -155v-144zM305.999 64
c54 0 94.5 18.5 121.5 55.5s40.5 89.833 40.5 158.5v144c0 69.333 -15.333 123.333 -46 162l-168 -513c14 -4.66699 31.333 -7 52 -7z" />
    <glyph glyph-name="Ugrave" unicode="&#xd9;" 
d="M150 700l0.00390625 -464c0 -56.667 13.167 -99.5 39.5 -128.5s65.166 -43.5 116.499 -43.5s90.166 14.5 116.499 43.5s39.5 71.833 39.5 128.5v464h84v-464c0 -81.333 -21.333 -143.333 -64 -186s-101.334 -64 -176.001 -64s-133.334 21.333 -176.001 64
s-64 104.667 -64 186v464h84zM287.004 892l66 -118h-72l-84 118h90z" />
    <glyph glyph-name="Uacute" unicode="&#xda;" 
d="M150 700l0.00390625 -464c0 -56.667 13.167 -99.5 39.5 -128.5s65.166 -43.5 116.499 -43.5s90.166 14.5 116.499 43.5s39.5 71.833 39.5 128.5v464h84v-464c0 -81.333 -21.333 -143.333 -64 -186s-101.334 -64 -176.001 -64s-133.334 21.333 -176.001 64
s-64 104.667 -64 186v464h84zM431.004 892l-84 -118h-72l66 118h90z" />
    <glyph glyph-name="Ucircumflex" unicode="&#xdb;" 
d="M150 700l0.00390625 -464c0 -56.667 13.167 -99.5 39.5 -128.5s65.166 -43.5 116.499 -43.5s90.166 14.5 116.499 43.5s39.5 71.833 39.5 128.5v464h84v-464c0 -81.333 -21.333 -143.333 -64 -186s-101.334 -64 -176.001 -64s-133.334 21.333 -176.001 64
s-64 104.667 -64 186v464h84zM364.004 774l-52 88h-12l-52 -88h-84l80 118h124l80 -118h-84z" />
    <glyph glyph-name="Udieresis" unicode="&#xdc;" 
d="M150 700l0.00390625 -464c0 -56.667 13.167 -99.5 39.5 -128.5s65.166 -43.5 116.499 -43.5s90.166 14.5 116.499 43.5s39.5 71.833 39.5 128.5v464h84v-464c0 -81.333 -21.333 -143.333 -64 -186s-101.334 -64 -176.001 -64s-133.334 21.333 -176.001 64
s-64 104.667 -64 186v464h84zM136.004 848c0 19.333 6.83301 35.833 20.5 49.5s30.167 20.5 49.5 20.5s35.833 -6.83301 49.5 -20.5s20.5 -30.167 20.5 -49.5s-6.83301 -35.833 -20.5 -49.5s-30.167 -20.5 -49.5 -20.5s-35.833 6.83301 -49.5 20.5s-20.5 30.167 -20.5 49.5z
M336.004 848c0 19.333 6.83301 35.833 20.5 49.5s30.167 20.5 49.5 20.5s35.833 -6.83301 49.5 -20.5s20.5 -30.167 20.5 -49.5s-6.83301 -35.833 -20.5 -49.5s-30.167 -20.5 -49.5 -20.5s-35.833 6.83301 -49.5 20.5s-20.5 30.167 -20.5 49.5z" />
    <glyph glyph-name="Yacute" unicode="&#xdd;" 
d="M264 246h-18l-219 454h94l179 -382h12l179 382h94l-219 -454h-18v-246h-84v246zM426 892l-84 -118h-72l66 118h90z" />
    <glyph glyph-name="Thorn" unicode="&#xde;" 
d="M169 150l-0.000976562 -150.002h-84v700h84v-138h166c36 0 67.333 -5.16699 94 -15.5s48.834 -24.166 66.501 -41.499s31 -37.5 40 -60.5s13.5 -47.167 13.5 -72.5v-30c0 -25.333 -4.5 -49.666 -13.5 -72.999s-22.5 -43.833 -40.5 -61.5s-40.333 -31.667 -67 -42
s-57.667 -15.5 -93 -15.5h-166zM168.999 227.998h156c93.333 0 140 40 140 120v18c0 35.333 -11.5 63.833 -34.5 85.5s-58.167 32.5 -105.5 32.5h-156v-256z" />
    <glyph glyph-name="germandbls" unicode="&#xdf;" 
d="M343 355l25.0029 0.00488281c25.333 0 49.833 -4 73.5 -12s44.5 -19.833 62.5 -35.5s32.333 -35 43 -58s16 -49.5 16 -79.5v-6c0 -26.667 -4.33301 -50.834 -13 -72.501s-20.834 -40.334 -36.501 -56.001s-34.334 -27.834 -56.001 -36.501s-45.5 -13 -71.5 -13
c-29.333 0 -54.833 4.66699 -76.5 14s-39.667 21.5 -54 36.5s-25 32 -32 51s-10.833 38.5 -11.5 58.5l74 12c0 -30.667 8.66699 -55 26 -73s40.666 -27 69.999 -27c30 0 54.667 8.66699 74 26s29 45 29 83c0 20.667 -3.83301 38.5 -11.5 53.5s-18 27 -31 36
s-28.5 15.667 -46.5 20s-37.333 6.5 -58 6.5h-54v147h22c34 0 60.667 9 80 27s29 43 29 75v5c0 16 -3 30.333 -9 43s-14.333 23.667 -25 33s-23 16.5 -37 21.5s-29 7.5 -45 7.5c-37.333 0 -67.166 -12.333 -89.499 -37s-33.5 -59 -33.5 -103v-502h-78v424h-60v72h60v14
c0 32 5 60.667 15 86s24 46.666 42 63.999s39.167 30.666 63.5 39.999s51.166 14 80.499 14c28 0 53.833 -4.16699 77.5 -12.5s44.167 -20.166 61.5 -35.499s30.833 -33.833 40.5 -55.5s14.5 -46.167 14.5 -73.5v-6c0 -26 -4.33301 -48.667 -13 -68s-20 -35.833 -34 -49.5
s-30 -24.334 -48 -32.001s-36.333 -12.5 -55 -14.5v-12z" />
    <glyph glyph-name="agrave" unicode="&#xe0;" 
d="M447 84h-12.001c-16 -33.333 -38.167 -58 -66.5 -74s-58.166 -24 -89.499 -24c-32.667 0 -63 5.5 -91 16.5s-52.5 27.333 -73.5 49s-37.5 48.167 -49.5 79.5s-18 67.666 -18 108.999v16c0 40.667 6 76.667 18 108s28.5 57.833 49.5 79.5s45.5 38.167 73.5 49.5
s57.667 17 89 17c34 0 64.833 -7.5 92.5 -22.5s49.5 -38.167 65.5 -69.5h12v78h78v-394c0 -20 9 -30 27 -30h25v-72h-53c-22.667 0 -41.167 7.33301 -55.5 22s-21.5 33.334 -21.5 56.001v6zM286.999 60c23.333 0 44.832 4.33594 64.499 13.0029s36.5 21 50.5 37
s25 35.167 33 57.5s12 47.166 12 74.499v12c0 26.667 -4 51.167 -12 73.5s-19.167 41.5 -33.5 57.5s-31.333 28.5 -51 37.5s-40.834 13.5 -63.501 13.5c-23.333 0 -44.666 -4.33301 -63.999 -13s-36.166 -20.834 -50.499 -36.501s-25.5 -34.667 -33.5 -57
s-12 -46.833 -12 -73.5v-16c0 -56.667 14.833 -100.834 44.5 -132.501s68.167 -47.5 115.5 -47.5zM246.998 688.003l66 -118h-72l-84 118h90z" />
    <glyph glyph-name="aacute" unicode="&#xe1;" 
d="M447 84h-12.001c-16 -33.333 -38.167 -58 -66.5 -74s-58.166 -24 -89.499 -24c-32.667 0 -63 5.5 -91 16.5s-52.5 27.333 -73.5 49s-37.5 48.167 -49.5 79.5s-18 67.666 -18 108.999v16c0 40.667 6 76.667 18 108s28.5 57.833 49.5 79.5s45.5 38.167 73.5 49.5
s57.667 17 89 17c34 0 64.833 -7.5 92.5 -22.5s49.5 -38.167 65.5 -69.5h12v78h78v-394c0 -20 9 -30 27 -30h25v-72h-53c-22.667 0 -41.167 7.33301 -55.5 22s-21.5 33.334 -21.5 56.001v6zM286.999 60c23.333 0 44.832 4.33594 64.499 13.0029s36.5 21 50.5 37
s25 35.167 33 57.5s12 47.166 12 74.499v12c0 26.667 -4 51.167 -12 73.5s-19.167 41.5 -33.5 57.5s-31.333 28.5 -51 37.5s-40.834 13.5 -63.501 13.5c-23.333 0 -44.666 -4.33301 -63.999 -13s-36.166 -20.834 -50.499 -36.501s-25.5 -34.667 -33.5 -57
s-12 -46.833 -12 -73.5v-16c0 -56.667 14.833 -100.834 44.5 -132.501s68.167 -47.5 115.5 -47.5zM393.998 688.003l-84 -118h-72l66 118h90z" />
    <glyph glyph-name="acircumflex" unicode="&#xe2;" 
d="M447 84h-12.001c-16 -33.333 -38.167 -58 -66.5 -74s-58.166 -24 -89.499 -24c-32.667 0 -63 5.5 -91 16.5s-52.5 27.333 -73.5 49s-37.5 48.167 -49.5 79.5s-18 67.666 -18 108.999v16c0 40.667 6 76.667 18 108s28.5 57.833 49.5 79.5s45.5 38.167 73.5 49.5
s57.667 17 89 17c34 0 64.833 -7.5 92.5 -22.5s49.5 -38.167 65.5 -69.5h12v78h78v-394c0 -20 9 -30 27 -30h25v-72h-53c-22.667 0 -41.167 7.33301 -55.5 22s-21.5 33.334 -21.5 56.001v6zM286.999 60c23.333 0 44.832 4.33594 64.499 13.0029s36.5 21 50.5 37
s25 35.167 33 57.5s12 47.166 12 74.499v12c0 26.667 -4 51.167 -12 73.5s-19.167 41.5 -33.5 57.5s-31.333 28.5 -51 37.5s-40.834 13.5 -63.501 13.5c-23.333 0 -44.666 -4.33301 -63.999 -13s-36.166 -20.834 -50.499 -36.501s-25.5 -34.667 -33.5 -57
s-12 -46.833 -12 -73.5v-16c0 -56.667 14.833 -100.834 44.5 -132.501s68.167 -47.5 115.5 -47.5zM335.998 570.003l-52 88h-12l-52 -88h-84l80 118h124l80 -118h-84z" />
    <glyph glyph-name="atilde" unicode="&#xe3;" 
d="M447 84h-12.001c-16 -33.333 -38.167 -58 -66.5 -74s-58.166 -24 -89.499 -24c-32.667 0 -63 5.5 -91 16.5s-52.5 27.333 -73.5 49s-37.5 48.167 -49.5 79.5s-18 67.666 -18 108.999v16c0 40.667 6 76.667 18 108s28.5 57.833 49.5 79.5s45.5 38.167 73.5 49.5
s57.667 17 89 17c34 0 64.833 -7.5 92.5 -22.5s49.5 -38.167 65.5 -69.5h12v78h78v-394c0 -20 9 -30 27 -30h25v-72h-53c-22.667 0 -41.167 7.33301 -55.5 22s-21.5 33.334 -21.5 56.001v6zM286.999 60c23.333 0 44.832 4.33594 64.499 13.0029s36.5 21 50.5 37
s25 35.167 33 57.5s12 47.166 12 74.499v12c0 26.667 -4 51.167 -12 73.5s-19.167 41.5 -33.5 57.5s-31.333 28.5 -51 37.5s-40.834 13.5 -63.501 13.5c-23.333 0 -44.666 -4.33301 -63.999 -13s-36.166 -20.834 -50.499 -36.501s-25.5 -34.667 -33.5 -57
s-12 -46.833 -12 -73.5v-16c0 -56.667 14.833 -100.834 44.5 -132.501s68.167 -47.5 115.5 -47.5zM332.998 642.003c3.33301 -6.66699 6.66699 -11.667 10 -15s8 -5 14 -5c6.66699 0 13 3.33301 19 10l48 55l49 -42l-41 -49c-9.33301 -11.333 -20.333 -21.166 -33 -29.499
s-27.667 -12.5 -45 -12.5c-20.667 0 -36.5 4.66699 -47.5 14s-22.167 24.333 -33.5 45c-4.66699 8 -8.5 13.667 -11.5 17s-7.16699 5 -12.5 5c-7.33301 0 -14.666 -4 -21.999 -12l-46 -53l-49 42l41 49c9.33301 11.333 20.333 21.166 33 29.499s28 12.5 46 12.5
c19.333 0 34.666 -4.83301 45.999 -14.5s23 -25.167 35 -46.5z" />
    <glyph glyph-name="adieresis" unicode="&#xe4;" 
d="M447 84h-12.001c-16 -33.333 -38.167 -58 -66.5 -74s-58.166 -24 -89.499 -24c-32.667 0 -63 5.5 -91 16.5s-52.5 27.333 -73.5 49s-37.5 48.167 -49.5 79.5s-18 67.666 -18 108.999v16c0 40.667 6 76.667 18 108s28.5 57.833 49.5 79.5s45.5 38.167 73.5 49.5
s57.667 17 89 17c34 0 64.833 -7.5 92.5 -22.5s49.5 -38.167 65.5 -69.5h12v78h78v-394c0 -20 9 -30 27 -30h25v-72h-53c-22.667 0 -41.167 7.33301 -55.5 22s-21.5 33.334 -21.5 56.001v6zM286.999 60c23.333 0 44.832 4.33594 64.499 13.0029s36.5 21 50.5 37
s25 35.167 33 57.5s12 47.166 12 74.499v12c0 26.667 -4 51.167 -12 73.5s-19.167 41.5 -33.5 57.5s-31.333 28.5 -51 37.5s-40.834 13.5 -63.501 13.5c-23.333 0 -44.666 -4.33301 -63.999 -13s-36.166 -20.834 -50.499 -36.501s-25.5 -34.667 -33.5 -57
s-12 -46.833 -12 -73.5v-16c0 -56.667 14.833 -100.834 44.5 -132.501s68.167 -47.5 115.5 -47.5zM112.998 644.003c0 19.333 6.83301 35.833 20.5 49.5s30.167 20.5 49.5 20.5s35.833 -6.83301 49.5 -20.5s20.5 -30.167 20.5 -49.5s-6.83301 -35.833 -20.5 -49.5
s-30.167 -20.5 -49.5 -20.5s-35.833 6.83301 -49.5 20.5s-20.5 30.167 -20.5 49.5zM312.998 644.003c0 19.333 6.83301 35.833 20.5 49.5s30.167 20.5 49.5 20.5s35.833 -6.83301 49.5 -20.5s20.5 -30.167 20.5 -49.5s-6.83301 -35.833 -20.5 -49.5
s-30.167 -20.5 -49.5 -20.5s-35.833 6.83301 -49.5 20.5s-20.5 30.167 -20.5 49.5z" />
    <glyph glyph-name="aring" unicode="&#xe5;" 
d="M447 84h-12.001c-16 -33.333 -38.167 -58 -66.5 -74s-58.166 -24 -89.499 -24c-32.667 0 -63 5.5 -91 16.5s-52.5 27.333 -73.5 49s-37.5 48.167 -49.5 79.5s-18 67.666 -18 108.999v16c0 40.667 6 76.667 18 108s28.5 57.833 49.5 79.5s45.5 38.167 73.5 49.5
s57.667 17 89 17c34 0 64.833 -7.5 92.5 -22.5s49.5 -38.167 65.5 -69.5h12v78h78v-394c0 -20 9 -30 27 -30h25v-72h-53c-22.667 0 -41.167 7.33301 -55.5 22s-21.5 33.334 -21.5 56.001v6zM286.999 60c23.333 0 44.832 4.33594 64.499 13.0029s36.5 21 50.5 37
s25 35.167 33 57.5s12 47.166 12 74.499v12c0 26.667 -4 51.167 -12 73.5s-19.167 41.5 -33.5 57.5s-31.333 28.5 -51 37.5s-40.834 13.5 -63.501 13.5c-23.333 0 -44.666 -4.33301 -63.999 -13s-36.166 -20.834 -50.499 -36.501s-25.5 -34.667 -33.5 -57
s-12 -46.833 -12 -73.5v-16c0 -56.667 14.833 -100.834 44.5 -132.501s68.167 -47.5 115.5 -47.5zM175.998 672.003c0 28.667 9.83301 52.834 29.5 72.501s43.834 29.5 72.501 29.5s52.834 -9.83301 72.501 -29.5s29.5 -43.834 29.5 -72.501s-9.83301 -52.834 -29.5 -72.501
s-43.834 -29.5 -72.501 -29.5s-52.834 9.83301 -72.501 29.5s-29.5 43.834 -29.5 72.501zM235.998 672.003c0 -12 4 -22 12 -30s18 -12 30 -12s22 4 30 12s12 18 12 30s-4 22 -12 30s-18 12 -30 12s-22 -4 -30 -12s-12 -18 -12 -30z" />
    <glyph glyph-name="ae" unicode="&#xe6;" 
d="M306 510c40.667 0 75.833 -7.49902 105.5 -22.499s54 -33.5 73 -55.5s33 -46 42 -72s13.5 -50 13.5 -72v-64h-199v-162c35.333 5.33301 62 17.166 80 35.499s31 39.833 39 64.5l74 -20c-14 -46 -39.667 -83.5 -77 -112.5s-87.666 -43.5 -150.999 -43.5h-60
c-27.333 0 -51.833 3.83301 -73.5 11.5s-40 18.167 -55 31.5s-26.333 29 -34 47s-11.5 37.333 -11.5 58v12c0 23.333 4.5 44.333 13.5 63s21.333 34.5 37 47.5s34.167 22.833 55.5 29.5s44.666 10 69.999 10h15v141c-29.333 -3.33301 -52.833 -14 -70.5 -32
s-29.167 -43 -34.5 -75l-74 18c4 22 11 42.667 21 62s23.333 36.5 40 51.5s36.5 26.833 59.5 35.5s49.167 13 78.5 13h23zM148.999 140.001c0 -24.667 9 -44.501 27 -59.501s43.667 -22.5 77 -22.5h10v166h-6c-34 0 -60.5 -6.66699 -79.5 -20s-28.5 -34.666 -28.5 -63.999z
M461.999 296c-2 36.667 -14.667 66.832 -38 90.499s-51 38.834 -83 45.501v-136h121z" />
    <glyph glyph-name="ccedilla" unicode="&#xe7;" 
d="M551 176c-5.33301 -27.333 -14.501 -52.665 -27.501 -75.998s-29.5 -43.5 -49.5 -60.5s-43.333 -30.167 -70 -39.5s-56.334 -14 -89.001 -14h-8l-12 -54h6c8.66699 21.333 26.667 32 54 32c23.333 0 41.833 -8.33301 55.5 -25s20.5 -36.667 20.5 -60
c0 -28 -9 -50.167 -27 -66.5s-40 -24.5 -66 -24.5c-28.667 0 -50.667 6.66699 -66 20s-25.666 30 -30.999 50l48 18c2 -10 6.83301 -19.167 14.5 -27.5s18.834 -12.5 33.501 -12.5c10 0 19.167 3.33301 27.5 10s12.5 17.334 12.5 32.001c0 12 -3.5 21.333 -10.5 28
s-15.167 10 -24.5 10c-12 0 -20.333 -4.66699 -25 -14h-76v6l18 83c-28 5.33301 -54.167 14.666 -78.5 27.999s-45.5 30.5 -63.5 51.5s-32.167 45.667 -42.5 74s-15.5 60.166 -15.5 95.499v12c0 40 6.83301 76 20.5 108s32.167 59 55.5 81s50.5 39 81.5 51
s63.833 18 98.5 18c31.333 0 60.333 -4.66699 87 -14s50.167 -22.5 70.5 -39.5s37 -37.167 50 -60.5s21.833 -48.666 26.5 -75.999l-78 -18c-2 17.333 -6.83301 34.166 -14.5 50.499s-18 30.666 -31 42.999s-28.833 22.166 -47.5 29.499s-40.334 11 -65.001 11
c-24 0 -46.5 -4.5 -67.5 -13.5s-39.5 -21.667 -55.5 -38s-28.5 -35.833 -37.5 -58.5s-13.5 -47.334 -13.5 -74.001v-12c0 -28 4.5 -53.167 13.5 -75.5s21.5 -41.166 37.5 -56.499s34.667 -27.166 56 -35.499s44.333 -12.5 69 -12.5s46.167 3.83301 64.5 11.5
s34 17.667 47 30s23.333 26.5 31 42.5s12.834 32.667 15.501 50z" />
    <glyph glyph-name="egrave" unicode="&#xe8;" 
d="M144 224c2 -49.333 17.332 -88.998 45.999 -118.998s68.667 -45 120 -45c23.333 0 43.666 2.66699 60.999 8s32.166 12.666 44.499 21.999s22.333 20.166 30 32.499s13.834 25.5 18.501 39.5l74 -20c-14 -46 -39.833 -83.5 -77.5 -112.5s-88.5 -43.5 -152.5 -43.5
c-35.333 0 -67.833 6.16699 -97.5 18.5s-55.167 29.833 -76.5 52.5s-38 49.667 -50 81s-18 66 -18 104v24c0 34.667 6.16699 67 18.5 97s29.5 55.833 51.5 77.5s47.833 38.667 77.5 51s61.834 18.5 96.501 18.5c40.667 0 75.834 -7.5 105.501 -22.5s54 -33.5 73 -55.5
s33 -46 42 -72s13.5 -50 13.5 -72v-64h-400zM309.999 436.002c-22 0 -42.502 -3.49902 -61.502 -10.499s-35.667 -16.833 -50 -29.5s-26 -27.5 -35 -44.5s-14.833 -35.5 -17.5 -55.5h320c-1.33301 21.333 -6.5 40.666 -15.5 57.999s-20.667 32 -35 44
s-30.666 21.333 -48.999 28s-37.166 10 -56.499 10zM279.997 688.003l66 -118h-72l-84 118h90z" />
    <glyph glyph-name="eacute" unicode="&#xe9;" 
d="M144 224c2 -49.333 17.332 -88.998 45.999 -118.998s68.667 -45 120 -45c23.333 0 43.666 2.66699 60.999 8s32.166 12.666 44.499 21.999s22.333 20.166 30 32.499s13.834 25.5 18.501 39.5l74 -20c-14 -46 -39.833 -83.5 -77.5 -112.5s-88.5 -43.5 -152.5 -43.5
c-35.333 0 -67.833 6.16699 -97.5 18.5s-55.167 29.833 -76.5 52.5s-38 49.667 -50 81s-18 66 -18 104v24c0 34.667 6.16699 67 18.5 97s29.5 55.833 51.5 77.5s47.833 38.667 77.5 51s61.834 18.5 96.501 18.5c40.667 0 75.834 -7.5 105.501 -22.5s54 -33.5 73 -55.5
s33 -46 42 -72s13.5 -50 13.5 -72v-64h-400zM309.999 436.002c-22 0 -42.502 -3.49902 -61.502 -10.499s-35.667 -16.833 -50 -29.5s-26 -27.5 -35 -44.5s-14.833 -35.5 -17.5 -55.5h320c-1.33301 21.333 -6.5 40.666 -15.5 57.999s-20.667 32 -35 44
s-30.666 21.333 -48.999 28s-37.166 10 -56.499 10zM428.997 688.003l-84 -118h-72l66 118h90z" />
    <glyph glyph-name="ecircumflex" unicode="&#xea;" 
d="M144 224c2 -49.333 17.332 -88.998 45.999 -118.998s68.667 -45 120 -45c23.333 0 43.666 2.66699 60.999 8s32.166 12.666 44.499 21.999s22.333 20.166 30 32.499s13.834 25.5 18.501 39.5l74 -20c-14 -46 -39.833 -83.5 -77.5 -112.5s-88.5 -43.5 -152.5 -43.5
c-35.333 0 -67.833 6.16699 -97.5 18.5s-55.167 29.833 -76.5 52.5s-38 49.667 -50 81s-18 66 -18 104v24c0 34.667 6.16699 67 18.5 97s29.5 55.833 51.5 77.5s47.833 38.667 77.5 51s61.834 18.5 96.501 18.5c40.667 0 75.834 -7.5 105.501 -22.5s54 -33.5 73 -55.5
s33 -46 42 -72s13.5 -50 13.5 -72v-64h-400zM309.999 436.002c-22 0 -42.502 -3.49902 -61.502 -10.499s-35.667 -16.833 -50 -29.5s-26 -27.5 -35 -44.5s-14.833 -35.5 -17.5 -55.5h320c-1.33301 21.333 -6.5 40.666 -15.5 57.999s-20.667 32 -35 44
s-30.666 21.333 -48.999 28s-37.166 10 -56.499 10zM364.997 570.003l-52 88h-12l-52 -88h-84l80 118h124l80 -118h-84z" />
    <glyph glyph-name="edieresis" unicode="&#xeb;" 
d="M144 224c2 -49.333 17.332 -88.998 45.999 -118.998s68.667 -45 120 -45c23.333 0 43.666 2.66699 60.999 8s32.166 12.666 44.499 21.999s22.333 20.166 30 32.499s13.834 25.5 18.501 39.5l74 -20c-14 -46 -39.833 -83.5 -77.5 -112.5s-88.5 -43.5 -152.5 -43.5
c-35.333 0 -67.833 6.16699 -97.5 18.5s-55.167 29.833 -76.5 52.5s-38 49.667 -50 81s-18 66 -18 104v24c0 34.667 6.16699 67 18.5 97s29.5 55.833 51.5 77.5s47.833 38.667 77.5 51s61.834 18.5 96.501 18.5c40.667 0 75.834 -7.5 105.501 -22.5s54 -33.5 73 -55.5
s33 -46 42 -72s13.5 -50 13.5 -72v-64h-400zM309.999 436.002c-22 0 -42.502 -3.49902 -61.502 -10.499s-35.667 -16.833 -50 -29.5s-26 -27.5 -35 -44.5s-14.833 -35.5 -17.5 -55.5h320c-1.33301 21.333 -6.5 40.666 -15.5 57.999s-20.667 32 -35 44
s-30.666 21.333 -48.999 28s-37.166 10 -56.499 10zM136.997 644.003c0 19.333 6.83301 35.833 20.5 49.5s30.167 20.5 49.5 20.5s35.833 -6.83301 49.5 -20.5s20.5 -30.167 20.5 -49.5s-6.83301 -35.833 -20.5 -49.5s-30.167 -20.5 -49.5 -20.5s-35.833 6.83301 -49.5 20.5
s-20.5 30.167 -20.5 49.5zM336.997 644.003c0 19.333 6.83301 35.833 20.5 49.5s30.167 20.5 49.5 20.5s35.833 -6.83301 49.5 -20.5s20.5 -30.167 20.5 -49.5s-6.83301 -35.833 -20.5 -49.5s-30.167 -20.5 -49.5 -20.5s-35.833 6.83301 -49.5 20.5s-20.5 30.167 -20.5 49.5
z" />
    <glyph glyph-name="igrave" unicode="&#xec;" 
d="M99 72h174v352h-156v72h234v-424h162v-72h-414v72zM281 688l66 -118h-72l-84 118h90z" />
    <glyph glyph-name="iacute" unicode="&#xed;" 
d="M99 72h174v352h-156v72h234v-424h162v-72h-414v72zM434 688l-84 -118h-72l66 118h90z" />
    <glyph glyph-name="icircumflex" unicode="&#xee;" 
d="M99 72h174v352h-156v72h234v-424h162v-72h-414v72zM370 570l-52 88h-12l-52 -88h-84l80 118h124l80 -118h-84z" />
    <glyph glyph-name="idieresis" unicode="&#xef;" 
d="M99 72h174v352h-156v72h234v-424h162v-72h-414v72zM142 644c0 19.333 6.83301 35.833 20.5 49.5s30.167 20.5 49.5 20.5s35.833 -6.83301 49.5 -20.5s20.5 -30.167 20.5 -49.5s-6.83301 -35.833 -20.5 -49.5s-30.167 -20.5 -49.5 -20.5s-35.833 6.83301 -49.5 20.5
s-20.5 30.167 -20.5 49.5zM342 644c0 19.333 6.83301 35.833 20.5 49.5s30.167 20.5 49.5 20.5s35.833 -6.83301 49.5 -20.5s20.5 -30.167 20.5 -49.5s-6.83301 -35.833 -20.5 -49.5s-30.167 -20.5 -49.5 -20.5s-35.833 6.83301 -49.5 20.5s-20.5 30.167 -20.5 49.5z" />
    <glyph glyph-name="eth" unicode="&#xf0;" 
d="M265 616c-33.333 12 -68.3311 19.998 -104.998 23.998l18 74c41.333 -6 81.333 -15.667 120 -29l18 37l63 -29l-18 -37c34 -18.667 63.333 -41.667 88 -69s44.834 -57.666 60.501 -90.999s27.167 -69.166 34.5 -107.499s11 -77.5 11 -117.5
c0 -48 -6.5 -89.833 -19.5 -125.5s-30.833 -65.334 -53.5 -89.001s-49 -41.334 -79 -53.001s-62.333 -17.5 -97 -17.5c-33.333 0 -65 5.66699 -95 17s-56.333 27.833 -79 49.5s-40.834 48.334 -54.501 80.001s-20.5 68.167 -20.5 109.5v12
c0 40.667 6.66699 76.834 20 108.501s31.166 58.5 53.499 80.5s47.666 38.667 75.999 50s57.5 17 87.5 17c34 0 63.167 -6.66699 87.5 -20s42.5 -30 54.5 -50h12c-9.33301 32.667 -24.5 61.167 -45.5 85.5s-45.5 44.833 -73.5 61.5l-19 -40l-64 29zM306.002 59.998
c24 0 46.1689 4.33301 66.502 13s38.166 21.167 53.499 37.5s27.333 36.5 36 60.5s13 51.667 13 83c0 26.667 -4.33301 51.167 -13 73.5s-20.667 41.5 -36 57.5s-33.333 28.5 -54 37.5s-42.667 13.5 -66 13.5s-45.333 -4.5 -66 -13.5s-38.667 -21.5 -54 -37.5
s-27.333 -35.167 -36 -57.5s-13 -46.833 -13 -73.5v-12c0 -28 4.33301 -53.167 13 -75.5s20.667 -41.5 36 -57.5s33.166 -28.167 53.499 -36.5s42.5 -12.5 66.5 -12.5z" />
    <glyph glyph-name="ntilde" unicode="&#xf1;" 
d="M165 0h-78v496h78v-84h12c30.667 65.333 84 98 160 98c57.333 0 103 -17.833 137 -53.5s51 -89.167 51 -160.5v-296h-78v280c0 52 -11.667 91 -35 117s-55 39 -95 39c-47.333 0 -84.5 -16.167 -111.5 -48.5s-40.5 -75.5 -40.5 -129.5v-258zM379 639
c3.33301 -6.66699 6.66699 -11.667 10 -15s8 -5 14 -5c6.66699 0 13 3.33301 19 10l48 55l49 -42l-41 -49c-9.33301 -11.333 -20.333 -21.166 -33 -29.499s-27.667 -12.5 -45 -12.5c-20.667 0 -36.5 4.66699 -47.5 14s-22.167 24.333 -33.5 45
c-4.66699 8 -8.5 13.667 -11.5 17s-7.16699 5 -12.5 5c-7.33301 0 -14.666 -4 -21.999 -12l-46 -53l-49 42l41 49c9.33301 11.333 20.333 21.166 33 29.499s28 12.5 46 12.5c19.333 0 34.666 -4.83301 45.999 -14.5s23 -25.167 35 -46.5z" />
    <glyph glyph-name="ograve" unicode="&#xf2;" 
d="M555 242c0 -41.333 -6.83105 -77.833 -20.498 -109.5s-31.834 -58.334 -54.501 -80.001s-49.167 -38.167 -79.5 -49.5s-61.833 -17 -94.5 -17c-33.333 0 -65 5.66699 -95 17s-56.333 27.833 -79 49.5s-40.834 48.334 -54.501 80.001s-20.5 68.167 -20.5 109.5v12
c0 40.667 6.83301 76.834 20.5 108.501s32 58.5 55 80.5s49.5 38.667 79.5 50s61.333 17 94 17s64 -5.66699 94 -17s56.5 -28 79.5 -50s41.333 -48.833 55 -80.5s20.5 -67.834 20.5 -108.501v-12zM306.002 60c24 0 46.1689 4.16699 66.502 12.5s38.166 20.5 53.499 36.5
s27.333 35.167 36 57.5s13 47.5 13 75.5v12c0 26.667 -4.33301 51.167 -13 73.5s-20.667 41.5 -36 57.5s-33.333 28.5 -54 37.5s-42.667 13.5 -66 13.5s-45.333 -4.5 -66 -13.5s-38.667 -21.5 -54 -37.5s-27.333 -35.167 -36 -57.5s-13 -46.833 -13 -73.5v-12
c0 -28 4.33301 -53.167 13 -75.5s20.667 -41.5 36 -57.5s33.166 -28.167 53.499 -36.5s42.5 -12.5 66.5 -12.5zM279.004 688l66 -118h-72l-84 118h90z" />
    <glyph glyph-name="oacute" unicode="&#xf3;" 
d="M555 242c0 -41.333 -6.83105 -77.833 -20.498 -109.5s-31.834 -58.334 -54.501 -80.001s-49.167 -38.167 -79.5 -49.5s-61.833 -17 -94.5 -17c-33.333 0 -65 5.66699 -95 17s-56.333 27.833 -79 49.5s-40.834 48.334 -54.501 80.001s-20.5 68.167 -20.5 109.5v12
c0 40.667 6.83301 76.834 20.5 108.501s32 58.5 55 80.5s49.5 38.667 79.5 50s61.333 17 94 17s64 -5.66699 94 -17s56.5 -28 79.5 -50s41.333 -48.833 55 -80.5s20.5 -67.834 20.5 -108.501v-12zM306.002 60c24 0 46.1689 4.16699 66.502 12.5s38.166 20.5 53.499 36.5
s27.333 35.167 36 57.5s13 47.5 13 75.5v12c0 26.667 -4.33301 51.167 -13 73.5s-20.667 41.5 -36 57.5s-33.333 28.5 -54 37.5s-42.667 13.5 -66 13.5s-45.333 -4.5 -66 -13.5s-38.667 -21.5 -54 -37.5s-27.333 -35.167 -36 -57.5s-13 -46.833 -13 -73.5v-12
c0 -28 4.33301 -53.167 13 -75.5s20.667 -41.5 36 -57.5s33.166 -28.167 53.499 -36.5s42.5 -12.5 66.5 -12.5zM428.004 688l-84 -118h-72l66 118h90z" />
    <glyph glyph-name="ocircumflex" unicode="&#xf4;" 
d="M555 242c0 -41.333 -6.83105 -77.833 -20.498 -109.5s-31.834 -58.334 -54.501 -80.001s-49.167 -38.167 -79.5 -49.5s-61.833 -17 -94.5 -17c-33.333 0 -65 5.66699 -95 17s-56.333 27.833 -79 49.5s-40.834 48.334 -54.501 80.001s-20.5 68.167 -20.5 109.5v12
c0 40.667 6.83301 76.834 20.5 108.501s32 58.5 55 80.5s49.5 38.667 79.5 50s61.333 17 94 17s64 -5.66699 94 -17s56.5 -28 79.5 -50s41.333 -48.833 55 -80.5s20.5 -67.834 20.5 -108.501v-12zM306.002 60c24 0 46.1689 4.16699 66.502 12.5s38.166 20.5 53.499 36.5
s27.333 35.167 36 57.5s13 47.5 13 75.5v12c0 26.667 -4.33301 51.167 -13 73.5s-20.667 41.5 -36 57.5s-33.333 28.5 -54 37.5s-42.667 13.5 -66 13.5s-45.333 -4.5 -66 -13.5s-38.667 -21.5 -54 -37.5s-27.333 -35.167 -36 -57.5s-13 -46.833 -13 -73.5v-12
c0 -28 4.33301 -53.167 13 -75.5s20.667 -41.5 36 -57.5s33.166 -28.167 53.499 -36.5s42.5 -12.5 66.5 -12.5zM364.004 570l-52 88h-12l-52 -88h-84l80 118h124l80 -118h-84z" />
    <glyph glyph-name="otilde" unicode="&#xf5;" 
d="M555 242c0 -41.333 -6.83105 -77.833 -20.498 -109.5s-31.834 -58.334 -54.501 -80.001s-49.167 -38.167 -79.5 -49.5s-61.833 -17 -94.5 -17c-33.333 0 -65 5.66699 -95 17s-56.333 27.833 -79 49.5s-40.834 48.334 -54.501 80.001s-20.5 68.167 -20.5 109.5v12
c0 40.667 6.83301 76.834 20.5 108.501s32 58.5 55 80.5s49.5 38.667 79.5 50s61.333 17 94 17s64 -5.66699 94 -17s56.5 -28 79.5 -50s41.333 -48.833 55 -80.5s20.5 -67.834 20.5 -108.501v-12zM306.002 60c24 0 46.1689 4.16699 66.502 12.5s38.166 20.5 53.499 36.5
s27.333 35.167 36 57.5s13 47.5 13 75.5v12c0 26.667 -4.33301 51.167 -13 73.5s-20.667 41.5 -36 57.5s-33.333 28.5 -54 37.5s-42.667 13.5 -66 13.5s-45.333 -4.5 -66 -13.5s-38.667 -21.5 -54 -37.5s-27.333 -35.167 -36 -57.5s-13 -46.833 -13 -73.5v-12
c0 -28 4.33301 -53.167 13 -75.5s20.667 -41.5 36 -57.5s33.166 -28.167 53.499 -36.5s42.5 -12.5 66.5 -12.5zM337.004 639c3.33301 -6.66699 6.66699 -11.667 10 -15s8 -5 14 -5c6.66699 0 13 3.33301 19 10l48 55l49 -42l-41 -49
c-9.33301 -11.333 -20.333 -21.166 -33 -29.499s-27.667 -12.5 -45 -12.5c-20.667 0 -36.5 4.66699 -47.5 14s-22.167 24.333 -33.5 45c-4.66699 8 -8.5 13.667 -11.5 17s-7.16699 5 -12.5 5c-7.33301 0 -14.666 -4 -21.999 -12l-46 -53l-49 42l41 49
c9.33301 11.333 20.333 21.166 33 29.499s28 12.5 46 12.5c19.333 0 34.666 -4.83301 45.999 -14.5s23 -25.167 35 -46.5z" />
    <glyph glyph-name="odieresis" unicode="&#xf6;" 
d="M555 242c0 -41.333 -6.83105 -77.833 -20.498 -109.5s-31.834 -58.334 -54.501 -80.001s-49.167 -38.167 -79.5 -49.5s-61.833 -17 -94.5 -17c-33.333 0 -65 5.66699 -95 17s-56.333 27.833 -79 49.5s-40.834 48.334 -54.501 80.001s-20.5 68.167 -20.5 109.5v12
c0 40.667 6.83301 76.834 20.5 108.501s32 58.5 55 80.5s49.5 38.667 79.5 50s61.333 17 94 17s64 -5.66699 94 -17s56.5 -28 79.5 -50s41.333 -48.833 55 -80.5s20.5 -67.834 20.5 -108.501v-12zM306.002 60c24 0 46.1689 4.16699 66.502 12.5s38.166 20.5 53.499 36.5
s27.333 35.167 36 57.5s13 47.5 13 75.5v12c0 26.667 -4.33301 51.167 -13 73.5s-20.667 41.5 -36 57.5s-33.333 28.5 -54 37.5s-42.667 13.5 -66 13.5s-45.333 -4.5 -66 -13.5s-38.667 -21.5 -54 -37.5s-27.333 -35.167 -36 -57.5s-13 -46.833 -13 -73.5v-12
c0 -28 4.33301 -53.167 13 -75.5s20.667 -41.5 36 -57.5s33.166 -28.167 53.499 -36.5s42.5 -12.5 66.5 -12.5zM136.004 644c0 19.333 6.83301 35.833 20.5 49.5s30.167 20.5 49.5 20.5s35.833 -6.83301 49.5 -20.5s20.5 -30.167 20.5 -49.5s-6.83301 -35.833 -20.5 -49.5
s-30.167 -20.5 -49.5 -20.5s-35.833 6.83301 -49.5 20.5s-20.5 30.167 -20.5 49.5zM336.004 644c0 19.333 6.83301 35.833 20.5 49.5s30.167 20.5 49.5 20.5s35.833 -6.83301 49.5 -20.5s20.5 -30.167 20.5 -49.5s-6.83301 -35.833 -20.5 -49.5s-30.167 -20.5 -49.5 -20.5
s-35.833 6.83301 -49.5 20.5s-20.5 30.167 -20.5 49.5z" />
    <glyph glyph-name="divide" unicode="&#xf7;" 
d="M97 386h418v-72h-418v72zM236 184c0 19.333 6.83301 35.833 20.5 49.5s30.167 20.5 49.5 20.5s35.833 -6.83301 49.5 -20.5s20.5 -30.167 20.5 -49.5s-6.83301 -35.833 -20.5 -49.5s-30.167 -20.5 -49.5 -20.5s-35.833 6.83301 -49.5 20.5s-20.5 30.167 -20.5 49.5z
M236 516c0 19.333 6.83301 35.833 20.5 49.5s30.167 20.5 49.5 20.5s35.833 -6.83301 49.5 -20.5s20.5 -30.167 20.5 -49.5s-6.83301 -35.833 -20.5 -49.5s-30.167 -20.5 -49.5 -20.5s-35.833 6.83301 -49.5 20.5s-20.5 30.167 -20.5 49.5z" />
    <glyph glyph-name="oslash" unicode="&#xf8;" 
d="M555 242c0 -41.333 -6.83203 -77.834 -20.499 -109.501s-31.834 -58.334 -54.501 -80.001s-49.167 -38.167 -79.5 -49.5s-61.833 -17 -94.5 -17c-17.333 0 -32.333 1.33301 -45 4l-19 -58l-71 22l19 58c-39.333 19.333 -71.333 48.333 -96 87s-37 86.334 -37 143.001v12
c0 40.667 6.83301 76.834 20.5 108.501s32 58.5 55 80.5s49.5 38.667 79.5 50s61.333 17 94 17c7.33301 0 15 -0.333008 23 -1s15.667 -1.66699 23 -3l17 52l70 -22l-17 -53c38.667 -19.333 70.5 -48.333 95.5 -87s37.5 -86 37.5 -142v-12zM137.001 241.999
c0 -36 7 -67.168 21 -93.501s32.667 -47.166 56 -62.499l114 349c-3.33301 0.666992 -7 1 -11 1h-11c-23.333 0 -45.333 -4.5 -66 -13.5s-38.667 -21.5 -54 -37.5s-27.333 -35.167 -36 -57.5s-13 -46.833 -13 -73.5v-12zM306.001 59.998c24 0 46.167 4.16602 66.5 12.499
s38.166 20.5 53.499 36.5s27.333 35.167 36 57.5s13 47.5 13 75.5v12c0 34.667 -7.16699 65.334 -21.5 92.001s-33.166 47.667 -56.499 63l-113 -348c3.33301 -0.666992 6.83301 -1 10.5 -1h11.5z" />
    <glyph glyph-name="ugrave" unicode="&#xf9;" 
d="M441 496h78v-496h-78v90h-12c-16 -32 -37 -57.333 -63 -76s-59 -28 -99 -28c-27.333 0 -52.5 4.5 -75.5 13.5s-42.667 22.5 -59 40.5s-29 40.333 -38 67s-13.5 57.667 -13.5 93v296h78v-286c0 -52 10.667 -90 32 -114s54 -36 98 -36c47.333 0 84.5 16.167 111.5 48.5
s40.5 75.5 40.5 129.5v258zM277 688l66 -118h-72l-84 118h90z" />
    <glyph glyph-name="uacute" unicode="&#xfa;" 
d="M441 496h78v-496h-78v90h-12c-16 -32 -37 -57.333 -63 -76s-59 -28 -99 -28c-27.333 0 -52.5 4.5 -75.5 13.5s-42.667 22.5 -59 40.5s-29 40.333 -38 67s-13.5 57.667 -13.5 93v296h78v-286c0 -52 10.667 -90 32 -114s54 -36 98 -36c47.333 0 84.5 16.167 111.5 48.5
s40.5 75.5 40.5 129.5v258zM423 688l-84 -118h-72l66 118h90z" />
    <glyph glyph-name="ucircumflex" unicode="&#xfb;" 
d="M441 496h78v-496h-78v90h-12c-16 -32 -37 -57.333 -63 -76s-59 -28 -99 -28c-27.333 0 -52.5 4.5 -75.5 13.5s-42.667 22.5 -59 40.5s-29 40.333 -38 67s-13.5 57.667 -13.5 93v296h78v-286c0 -52 10.667 -90 32 -114s54 -36 98 -36c47.333 0 84.5 16.167 111.5 48.5
s40.5 75.5 40.5 129.5v258zM359 570l-52 88h-12l-52 -88h-84l80 118h124l80 -118h-84z" />
    <glyph glyph-name="udieresis" unicode="&#xfc;" 
d="M441 496h78v-496h-78v90h-12c-16 -32 -37 -57.333 -63 -76s-59 -28 -99 -28c-27.333 0 -52.5 4.5 -75.5 13.5s-42.667 22.5 -59 40.5s-29 40.333 -38 67s-13.5 57.667 -13.5 93v296h78v-286c0 -52 10.667 -90 32 -114s54 -36 98 -36c47.333 0 84.5 16.167 111.5 48.5
s40.5 75.5 40.5 129.5v258zM470.008 644c0 19.333 -6.83301 35.833 -20.498 49.5c-13.666 13.667 -30.165 20.5 -49.4971 20.5s-35.8311 -6.83301 -49.4971 -20.5s-20.499 -30.167 -20.499 -49.5s6.83301 -35.833 20.499 -49.5s30.165 -20.5 49.4971 -20.5
s35.8311 6.83301 49.4971 20.5c13.665 13.667 20.498 30.167 20.498 49.5zM270.021 644c0 19.333 -6.83301 35.833 -20.499 49.5c-13.665 13.667 -30.1641 20.5 -49.4971 20.5c-19.332 0 -35.8311 -6.83301 -49.4971 -20.5c-13.665 -13.667 -20.498 -30.167 -20.498 -49.5
s6.83301 -35.833 20.498 -49.5c13.666 -13.667 30.165 -20.5 49.4971 -20.5c19.333 0 35.832 6.83301 49.4971 20.5c13.666 13.667 20.499 30.167 20.499 49.5z" />
    <glyph glyph-name="yacute" unicode="&#xfd;" 
d="M447 90l-12 0.000976562c-16 -32 -37 -57.333 -63 -76s-59 -28 -99 -28c-27.333 0 -52.5 4.5 -75.5 13.5s-42.667 22.5 -59 40.5s-29 40.333 -38 67s-13.5 57.667 -13.5 93v296h78v-286c0 -52 10.667 -90 32 -114s54 -36 98 -36c47.333 0 84.5 16.167 111.5 48.5
s40.5 75.5 40.5 129.5v258h78v-618c0 -22.667 -7.16699 -41.334 -21.5 -56.001s-32.833 -22 -55.5 -22h-283v72h255c18 0 27 10 27 30v188zM426 688.001l-84 -118h-72l66 118h90z" />
    <glyph glyph-name="thorn" unicode="&#xfe;" 
d="M147 -200l-77.999 -0.00390625v900h78v-282h12c17.333 30 41.333 52.833 72 68.5s64 23.5 100 23.5c30.667 0 59.667 -5.66699 87 -17s51.5 -27.666 72.5 -48.999s37.667 -47.666 50 -78.999s18.5 -67 18.5 -107v-20c0 -40.667 -6 -76.667 -18 -108
s-28.5 -57.666 -49.5 -78.999s-45.5 -37.5 -73.5 -48.5s-57.667 -16.5 -89 -16.5c-16 0 -32.333 1.83301 -49 5.5s-32.5 9.33398 -47.5 17.001s-28.833 17 -41.5 28s-23.334 24.167 -32.001 39.5h-12v-276zM313.001 59.9961c24 0 45.999 4.16406 65.999 12.4971
s37.5 20.166 52.5 35.499s26.667 34 35 56s12.5 46.667 12.5 74v20c0 26.667 -4.16699 50.834 -12.5 72.501s-20 40.334 -35 56.001s-32.667 27.834 -53 36.501s-42.166 13 -65.499 13s-45 -4.5 -65 -13.5s-37.5 -21.5 -52.5 -37.5s-26.833 -35.167 -35.5 -57.5
s-13 -46.833 -13 -73.5v-12c0 -27.333 4.33301 -52.166 13 -74.499s20.5 -41.5 35.5 -57.5s32.5 -28.333 52.5 -37s41.667 -13 65 -13z" />
    <glyph glyph-name="ydieresis" unicode="&#xff;" 
d="M447 90l-12 0.000976562c-16 -32 -37 -57.333 -63 -76s-59 -28 -99 -28c-27.333 0 -52.5 4.5 -75.5 13.5s-42.667 22.5 -59 40.5s-29 40.333 -38 67s-13.5 57.667 -13.5 93v296h78v-286c0 -52 10.667 -90 32 -114s54 -36 98 -36c47.333 0 84.5 16.167 111.5 48.5
s40.5 75.5 40.5 129.5v258h78v-618c0 -22.667 -7.16699 -41.334 -21.5 -56.001s-32.833 -22 -55.5 -22h-283v72h255c18 0 27 10 27 30v188zM136 644.001c0 19.333 6.83301 35.833 20.5 49.5s30.167 20.5 49.5 20.5s35.833 -6.83301 49.5 -20.5s20.5 -30.167 20.5 -49.5
s-6.83301 -35.833 -20.5 -49.5s-30.167 -20.5 -49.5 -20.5s-35.833 6.83301 -49.5 20.5s-20.5 30.167 -20.5 49.5zM336 644.001c0 19.333 6.83301 35.833 20.5 49.5s30.167 20.5 49.5 20.5s35.833 -6.83301 49.5 -20.5s20.5 -30.167 20.5 -49.5
s-6.83301 -35.833 -20.5 -49.5s-30.167 -20.5 -49.5 -20.5s-35.833 6.83301 -49.5 20.5s-20.5 30.167 -20.5 49.5z" />
    <glyph glyph-name="Amacron" unicode="&#x100;" 
d="M456 174h-300l-51 -174h-90l212 700h158l212 -700h-90zM300 664l-121 -412h254l-121 412h-12zM447 774h-282v66h282v-66z" />
    <glyph glyph-name="amacron" unicode="&#x101;" 
d="M447 84h-12.001c-16 -33.333 -38.167 -58 -66.5 -74s-58.166 -24 -89.499 -24c-32.667 0 -63 5.5 -91 16.5s-52.5 27.333 -73.5 49s-37.5 48.167 -49.5 79.5s-18 67.666 -18 108.999v16c0 40.667 6 76.667 18 108s28.5 57.833 49.5 79.5s45.5 38.167 73.5 49.5
s57.667 17 89 17c34 0 64.833 -7.5 92.5 -22.5s49.5 -38.167 65.5 -69.5h12v78h78v-394c0 -20 9 -30 27 -30h25v-72h-53c-22.667 0 -41.167 7.33301 -55.5 22s-21.5 33.334 -21.5 56.001v6zM286.999 60c23.333 0 44.832 4.33594 64.499 13.0029s36.5 21 50.5 37
s25 35.167 33 57.5s12 47.166 12 74.499v12c0 26.667 -4 51.167 -12 73.5s-19.167 41.5 -33.5 57.5s-31.333 28.5 -51 37.5s-40.834 13.5 -63.501 13.5c-23.333 0 -44.666 -4.33301 -63.999 -13s-36.166 -20.834 -50.499 -36.501s-25.5 -34.667 -33.5 -57
s-12 -46.833 -12 -73.5v-16c0 -56.667 14.833 -100.834 44.5 -132.501s68.167 -47.5 115.5 -47.5zM418.998 570.003h-282v66h282v-66z" />
    <glyph glyph-name="Abreve" unicode="&#x102;" 
d="M456 174h-300l-51 -174h-90l212 700h158l212 -700h-90zM300 664l-121 -412h254l-121 412h-12zM414 892l-0.00390625 -10c0 -32 -9.66699 -58 -29 -78s-45.666 -30 -78.999 -30s-59.666 10 -78.999 30s-29 46 -29 78v10h69v-12c0 -10.667 3.33301 -19.834 10 -27.501
s16.334 -11.5 29.001 -11.5s22.334 3.83301 29.001 11.5s10 16.834 10 27.501v12h69z" />
    <glyph glyph-name="abreve" unicode="&#x103;" 
d="M447 84h-12.001c-16 -33.333 -38.167 -58 -66.5 -74s-58.166 -24 -89.499 -24c-32.667 0 -63 5.5 -91 16.5s-52.5 27.333 -73.5 49s-37.5 48.167 -49.5 79.5s-18 67.666 -18 108.999v16c0 40.667 6 76.667 18 108s28.5 57.833 49.5 79.5s45.5 38.167 73.5 49.5
s57.667 17 89 17c34 0 64.833 -7.5 92.5 -22.5s49.5 -38.167 65.5 -69.5h12v78h78v-394c0 -20 9 -30 27 -30h25v-72h-53c-22.667 0 -41.167 7.33301 -55.5 22s-21.5 33.334 -21.5 56.001v6zM286.999 60c23.333 0 44.832 4.33594 64.499 13.0029s36.5 21 50.5 37
s25 35.167 33 57.5s12 47.166 12 74.499v12c0 26.667 -4 51.167 -12 73.5s-19.167 41.5 -33.5 57.5s-31.333 28.5 -51 37.5s-40.834 13.5 -63.501 13.5c-23.333 0 -44.666 -4.33301 -63.999 -13s-36.166 -20.834 -50.499 -36.501s-25.5 -34.667 -33.5 -57
s-12 -46.833 -12 -73.5v-16c0 -56.667 14.833 -100.834 44.5 -132.501s68.167 -47.5 115.5 -47.5zM385.998 688.003l-0.00390625 -10c0 -32 -9.66699 -58 -29 -78s-45.666 -30 -78.999 -30s-59.666 10 -78.999 30s-29 46 -29 78v10h69v-12
c0 -10.667 3.33301 -19.834 10 -27.501s16.334 -11.5 29.001 -11.5s22.334 3.83301 29.001 11.5s10 16.834 10 27.501v12h69z" />
    <glyph glyph-name="Aogonek" unicode="&#x104;" 
d="M456 174h-300.001l-51 -174h-90l212 700h158l212 -700h-21l-16 -68c-0.666992 -3.33301 -1 -6 -1 -8c0 -14.667 7.66699 -22 23 -22h42v-66h-56c-19.333 0 -37.166 6.16699 -53.499 18.5s-24.5 30.833 -24.5 55.5c0 6 1 14 3 24l14 66zM299.999 664l-121 -412h254
l-121 412h-12z" />
    <glyph glyph-name="aogonek" unicode="&#x105;" 
d="M447 84l-12.002 0.000976562c-16 -33.333 -38.167 -58 -66.5 -74s-58.166 -24 -89.499 -24c-32.667 0 -63 5.5 -91 16.5s-52.5 27.333 -73.5 49s-37.5 48.167 -49.5 79.5s-18 67.666 -18 108.999v16c0 40.667 6 76.667 18 108s28.5 57.833 49.5 79.5
s45.5 38.167 73.5 49.5s57.667 17 89 17c34 0 64.833 -7.5 92.5 -22.5s49.5 -38.167 65.5 -69.5h12v78h78v-394c0 -20 9 -30 27 -30h25v-72h-48l-16 -68c-0.666992 -3.33301 -1 -6 -1 -8c0 -14.667 7.66699 -22 23 -22h42v-66h-56c-19.333 0 -37.166 6.16699 -53.499 18.5
s-24.5 30.833 -24.5 55.5c0 6 1 14 3 24l20 91c-12.667 14 -19 31.667 -19 53v6zM286.998 60.001c23.333 0 44.832 4.33594 64.499 13.0029s36.5 21 50.5 37s25 35.167 33 57.5s12 47.166 12 74.499v12c0 26.667 -4 51.167 -12 73.5s-19.167 41.5 -33.5 57.5
s-31.333 28.5 -51 37.5s-40.834 13.5 -63.501 13.5c-23.333 0 -44.666 -4.33301 -63.999 -13s-36.166 -20.834 -50.499 -36.501s-25.5 -34.667 -33.5 -57s-12 -46.833 -12 -73.5v-16c0 -56.667 14.833 -100.834 44.5 -132.501s68.167 -47.5 115.5 -47.5z" />
    <glyph glyph-name="Cacute" unicode="&#x106;" 
d="M310 64c28.667 0 53.167 4.83398 73.5 14.501s37 22.667 50 39s22.667 35 29 56s9.5 43.167 9.5 66.5v12h84v-12c0 -35.333 -5.33301 -68.5 -16 -99.5s-26.334 -58 -47.001 -81s-46.334 -41 -77.001 -54s-66 -19.5 -106 -19.5c-77.333 0 -137.666 24.333 -180.999 73
s-65 119.667 -65 213v156c0 90.667 21.667 161 65 211s103.666 75 180.999 75c40 0 75.333 -6.5 106 -19.5s56.334 -31 77.001 -54s36.334 -50 47.001 -81s16 -64.167 16 -99.5v-12h-84v12c-0.666992 22.667 -4.16699 44.667 -10.5 66s-16 40.166 -29 56.499
s-29.5 29.333 -49.5 39s-44.333 14.5 -73 14.5c-54 0 -94.5 -19.667 -121.5 -59s-40.5 -91 -40.5 -155v-144c0 -68.667 13.5 -121.5 40.5 -158.5s67.5 -55.5 121.5 -55.5zM432 892.001l-84 -118h-72l66 118h90z" />
    <glyph glyph-name="cacute" unicode="&#x107;" 
d="M551 176c-5.33301 -27.333 -14.499 -52.666 -27.499 -75.999s-29.5 -43.5 -49.5 -60.5s-43.333 -30.167 -70 -39.5s-56.334 -14 -89.001 -14c-34.667 0 -67.5 5.66699 -98.5 17s-58.167 27.833 -81.5 49.5s-41.833 48.167 -55.5 79.5s-20.5 67.333 -20.5 108v12
c0 40 6.83301 76 20.5 108s32.167 59 55.5 81s50.5 39 81.5 51s63.833 18 98.5 18c31.333 0 60.333 -4.66699 87 -14s50.167 -22.5 70.5 -39.5s37 -37.167 50 -60.5s21.833 -48.666 26.5 -75.999l-78 -18c-2 17.333 -6.83301 34.166 -14.5 50.499s-18 30.666 -31 42.999
s-28.833 22.166 -47.5 29.499s-40.334 11 -65.001 11c-24 0 -46.5 -4.5 -67.5 -13.5s-39.5 -21.667 -55.5 -38s-28.5 -35.833 -37.5 -58.5s-13.5 -47.334 -13.5 -74.001v-12c0 -28 4.5 -53.167 13.5 -75.5s21.5 -41.166 37.5 -56.499s34.667 -27.166 56 -35.499
s44.333 -12.5 69 -12.5s46.167 3.83301 64.5 11.5s34 17.667 47 30s23.333 26.5 31 42.5s12.834 32.667 15.501 50zM437.001 688l-84 -118h-72l66 118h90z" />
    <glyph glyph-name="Ccircumflex" unicode="&#x108;" 
d="M310 64c28.667 0 53.167 4.83398 73.5 14.501s37 22.667 50 39s22.667 35 29 56s9.5 43.167 9.5 66.5v12h84v-12c0 -35.333 -5.33301 -68.5 -16 -99.5s-26.334 -58 -47.001 -81s-46.334 -41 -77.001 -54s-66 -19.5 -106 -19.5c-77.333 0 -137.666 24.333 -180.999 73
s-65 119.667 -65 213v156c0 90.667 21.667 161 65 211s103.666 75 180.999 75c40 0 75.333 -6.5 106 -19.5s56.334 -31 77.001 -54s36.334 -50 47.001 -81s16 -64.167 16 -99.5v-12h-84v12c-0.666992 22.667 -4.16699 44.667 -10.5 66s-16 40.166 -29 56.499
s-29.5 29.333 -49.5 39s-44.333 14.5 -73 14.5c-54 0 -94.5 -19.667 -121.5 -59s-40.5 -91 -40.5 -155v-144c0 -68.667 13.5 -121.5 40.5 -158.5s67.5 -55.5 121.5 -55.5zM368 774.001l-52 88h-12l-52 -88h-84l80 118h124l80 -118h-84z" />
    <glyph glyph-name="ccircumflex" unicode="&#x109;" 
d="M551 176c-5.33301 -27.333 -14.499 -52.666 -27.499 -75.999s-29.5 -43.5 -49.5 -60.5s-43.333 -30.167 -70 -39.5s-56.334 -14 -89.001 -14c-34.667 0 -67.5 5.66699 -98.5 17s-58.167 27.833 -81.5 49.5s-41.833 48.167 -55.5 79.5s-20.5 67.333 -20.5 108v12
c0 40 6.83301 76 20.5 108s32.167 59 55.5 81s50.5 39 81.5 51s63.833 18 98.5 18c31.333 0 60.333 -4.66699 87 -14s50.167 -22.5 70.5 -39.5s37 -37.167 50 -60.5s21.833 -48.666 26.5 -75.999l-78 -18c-2 17.333 -6.83301 34.166 -14.5 50.499s-18 30.666 -31 42.999
s-28.833 22.166 -47.5 29.499s-40.334 11 -65.001 11c-24 0 -46.5 -4.5 -67.5 -13.5s-39.5 -21.667 -55.5 -38s-28.5 -35.833 -37.5 -58.5s-13.5 -47.334 -13.5 -74.001v-12c0 -28 4.5 -53.167 13.5 -75.5s21.5 -41.166 37.5 -56.499s34.667 -27.166 56 -35.499
s44.333 -12.5 69 -12.5s46.167 3.83301 64.5 11.5s34 17.667 47 30s23.333 26.5 31 42.5s12.834 32.667 15.501 50zM367.001 570l-52 88h-12l-52 -88h-84l80 118h124l80 -118h-84z" />
    <glyph glyph-name="Cdotaccent" unicode="&#x10a;" 
d="M310 64c28.667 0 53.167 4.83398 73.5 14.501s37 22.667 50 39s22.667 35 29 56s9.5 43.167 9.5 66.5v12h84v-12c0 -35.333 -5.33301 -68.5 -16 -99.5s-26.334 -58 -47.001 -81s-46.334 -41 -77.001 -54s-66 -19.5 -106 -19.5c-77.333 0 -137.666 24.333 -180.999 73
s-65 119.667 -65 213v156c0 90.667 21.667 161 65 211s103.666 75 180.999 75c40 0 75.333 -6.5 106 -19.5s56.334 -31 77.001 -54s36.334 -50 47.001 -81s16 -64.167 16 -99.5v-12h-84v12c-0.666992 22.667 -4.16699 44.667 -10.5 66s-16 40.166 -29 56.499
s-29.5 29.333 -49.5 39s-44.333 14.5 -73 14.5c-54 0 -94.5 -19.667 -121.5 -59s-40.5 -91 -40.5 -155v-144c0 -68.667 13.5 -121.5 40.5 -158.5s67.5 -55.5 121.5 -55.5zM240 848.001c0 19.333 6.83301 35.833 20.5 49.5s30.167 20.5 49.5 20.5s35.833 -6.83301 49.5 -20.5
s20.5 -30.167 20.5 -49.5s-6.83301 -35.833 -20.5 -49.5s-30.167 -20.5 -49.5 -20.5s-35.833 6.83301 -49.5 20.5s-20.5 30.167 -20.5 49.5z" />
    <glyph glyph-name="cdotaccent" unicode="&#x10b;" 
d="M551 176c-5.33301 -27.333 -14.499 -52.666 -27.499 -75.999s-29.5 -43.5 -49.5 -60.5s-43.333 -30.167 -70 -39.5s-56.334 -14 -89.001 -14c-34.667 0 -67.5 5.66699 -98.5 17s-58.167 27.833 -81.5 49.5s-41.833 48.167 -55.5 79.5s-20.5 67.333 -20.5 108v12
c0 40 6.83301 76 20.5 108s32.167 59 55.5 81s50.5 39 81.5 51s63.833 18 98.5 18c31.333 0 60.333 -4.66699 87 -14s50.167 -22.5 70.5 -39.5s37 -37.167 50 -60.5s21.833 -48.666 26.5 -75.999l-78 -18c-2 17.333 -6.83301 34.166 -14.5 50.499s-18 30.666 -31 42.999
s-28.833 22.166 -47.5 29.499s-40.334 11 -65.001 11c-24 0 -46.5 -4.5 -67.5 -13.5s-39.5 -21.667 -55.5 -38s-28.5 -35.833 -37.5 -58.5s-13.5 -47.334 -13.5 -74.001v-12c0 -28 4.5 -53.167 13.5 -75.5s21.5 -41.166 37.5 -56.499s34.667 -27.166 56 -35.499
s44.333 -12.5 69 -12.5s46.167 3.83301 64.5 11.5s34 17.667 47 30s23.333 26.5 31 42.5s12.834 32.667 15.501 50zM239.001 644c0 19.333 6.83301 35.833 20.5 49.5s30.167 20.5 49.5 20.5s35.833 -6.83301 49.5 -20.5s20.5 -30.167 20.5 -49.5
s-6.83301 -35.833 -20.5 -49.5s-30.167 -20.5 -49.5 -20.5s-35.833 6.83301 -49.5 20.5s-20.5 30.167 -20.5 49.5z" />
    <glyph glyph-name="Ccaron" unicode="&#x10c;" 
d="M310 64c28.667 0 53.167 4.83398 73.5 14.501s37 22.667 50 39s22.667 35 29 56s9.5 43.167 9.5 66.5v12h84v-12c0 -35.333 -5.33301 -68.5 -16 -99.5s-26.334 -58 -47.001 -81s-46.334 -41 -77.001 -54s-66 -19.5 -106 -19.5c-77.333 0 -137.666 24.333 -180.999 73
s-65 119.667 -65 213v156c0 90.667 21.667 161 65 211s103.666 75 180.999 75c40 0 75.333 -6.5 106 -19.5s56.334 -31 77.001 -54s36.334 -50 47.001 -81s16 -64.167 16 -99.5v-12h-84v12c-0.666992 22.667 -4.16699 44.667 -10.5 66s-16 40.166 -29 56.499
s-29.5 29.333 -49.5 39s-44.333 14.5 -73 14.5c-54 0 -94.5 -19.667 -121.5 -59s-40.5 -91 -40.5 -155v-144c0 -68.667 13.5 -121.5 40.5 -158.5s67.5 -55.5 121.5 -55.5zM452 892.001l-80 -118h-124l-80 118h84l52 -88h12l52 88h84z" />
    <glyph glyph-name="ccaron" unicode="&#x10d;" 
d="M551 176c-5.33301 -27.333 -14.499 -52.666 -27.499 -75.999s-29.5 -43.5 -49.5 -60.5s-43.333 -30.167 -70 -39.5s-56.334 -14 -89.001 -14c-34.667 0 -67.5 5.66699 -98.5 17s-58.167 27.833 -81.5 49.5s-41.833 48.167 -55.5 79.5s-20.5 67.333 -20.5 108v12
c0 40 6.83301 76 20.5 108s32.167 59 55.5 81s50.5 39 81.5 51s63.833 18 98.5 18c31.333 0 60.333 -4.66699 87 -14s50.167 -22.5 70.5 -39.5s37 -37.167 50 -60.5s21.833 -48.666 26.5 -75.999l-78 -18c-2 17.333 -6.83301 34.166 -14.5 50.499s-18 30.666 -31 42.999
s-28.833 22.166 -47.5 29.499s-40.334 11 -65.001 11c-24 0 -46.5 -4.5 -67.5 -13.5s-39.5 -21.667 -55.5 -38s-28.5 -35.833 -37.5 -58.5s-13.5 -47.334 -13.5 -74.001v-12c0 -28 4.5 -53.167 13.5 -75.5s21.5 -41.166 37.5 -56.499s34.667 -27.166 56 -35.499
s44.333 -12.5 69 -12.5s46.167 3.83301 64.5 11.5s34 17.667 47 30s23.333 26.5 31 42.5s12.834 32.667 15.501 50zM451.001 688l-80 -118h-124l-80 118h84l52 -88h12l52 88h84z" />
    <glyph glyph-name="Dcaron" unicode="&#x10e;" 
d="M73 700h230c86.667 0 150 -20.667 190 -62s60 -107.333 60 -198v-180c0 -90.667 -20 -156.667 -60 -198s-103.333 -62 -190 -62h-230v79h60v543h-60v78zM291 78c30.667 0 57.167 3 79.5 9s40.833 16.167 55.5 30.5s25.5 33.5 32.5 57.5s10.5 54.333 10.5 91v168
c0 36.667 -3.5 67 -10.5 91s-17.833 43.167 -32.5 57.5s-33.167 24.5 -55.5 30.5s-48.833 9 -79.5 9h-74v-544h74zM449 892l-80 -118h-124l-80 118h84l52 -88h12l52 88h84z" />
    <glyph glyph-name="dcaron" unicode="&#x10f;" 
d="M340 58l-11.998 -0.00195312c-7.33301 -21.333 -20.333 -38.666 -39 -51.999s-45 -20 -79 -20c-26.667 0 -51.334 5.5 -74.001 16.5s-42.334 27.167 -59.001 48.5s-29.667 47.833 -39 79.5s-14 68.167 -14 109.5v16c0 42.667 4.83301 79.834 14.5 111.501s23 58 40 79
s36.833 36.833 59.5 47.5s46.667 16 72 16c31.333 0 56.5 -6.33301 75.5 -19s33.167 -29 42.5 -49h12v258h78v-700h-78v58zM220.002 59.998c22.667 0 41.668 4.66797 57.001 14.001s27.666 22 36.999 38s16 35.167 20 57.5s6 46.5 6 72.5v12
c0 24.667 -1.83301 48.167 -5.5 70.5s-10 41.666 -19 57.999s-21.167 29.333 -36.5 39s-34.333 14.5 -57 14.5c-36.667 0 -65.5 -15.167 -86.5 -45.5s-31.5 -75.166 -31.5 -134.499v-16c0 -58.667 10.167 -103.334 30.5 -134.001s48.833 -46 85.5 -46zM454.003 629.999
c0 19.333 6.83398 35.834 20.501 49.501s30.167 20.5 49.5 20.5s35.833 -6.83301 49.5 -20.5s20.5 -30.167 20.5 -49.5v-98c0 -22.667 -7.16699 -41.334 -21.5 -56.001s-32.833 -22 -55.5 -22h-51v54h47c18 0 27 10 27 30v25c-5.33301 -2 -11 -3 -17 -3
c-18.667 0 -34.834 6.83301 -48.501 20.5s-20.5 30.167 -20.5 49.5z" />
    <glyph glyph-name="Dcroat" unicode="&#x110;" 
d="M73 389h60v233h-60v78h230c86.667 0 150 -20.667 190 -62s60 -107.333 60 -198v-180c0 -90.667 -20 -156.667 -60 -198s-103.333 -62 -190 -62h-230v78h60v233h-60v78zM291 78c30.667 0 57.167 3 79.5 9s40.833 16.167 55.5 30.5s25.5 33.5 32.5 57.5
s10.5 54.333 10.5 91v168c0 36.667 -3.5 67 -10.5 91s-17.833 43.167 -32.5 57.5s-33.167 24.5 -55.5 30.5s-48.833 9 -79.5 9h-74v-233h108v-78h-108v-233h74z" />
    <glyph glyph-name="dcroat" unicode="&#x111;" 
d="M295 634l176 -0.00292969v66h78v-66h60v-72h-60v-562h-78v76h-12c-8 -15.333 -18.167 -28.666 -30.5 -39.999s-25.666 -20.666 -39.999 -27.999s-29.5 -12.833 -45.5 -16.5s-31.333 -5.5 -46 -5.5c-33.333 0 -64.333 5.66699 -93 17s-53.834 27.666 -75.501 48.999
s-38.667 47.833 -51 79.5s-18.5 67.834 -18.5 108.501v16c0 40 6.33301 75.833 19 107.5s29.667 58.334 51 80.001s46.333 38.167 75 49.5s59 17 91 17c34 0 65.833 -7.5 95.5 -22.5s52.5 -38.167 68.5 -69.5h12v144h-176v72zM305 59.9971
c23.333 0 44.999 4.33398 64.999 13.001s37.5 21 52.5 37s26.833 35.167 35.5 57.5s13 47.166 13 74.499v12c0 26.667 -4.33301 51.167 -13 73.5s-20.5 41.5 -35.5 57.5s-32.667 28.5 -53 37.5s-41.833 13.5 -64.5 13.5c-23.333 0 -45.166 -4.33301 -65.499 -13
s-38 -21 -53 -37s-26.667 -35 -35 -57s-12.5 -46.333 -12.5 -73v-16c0 -28 4.16699 -53 12.5 -75s20 -40.833 35 -56.5s32.5 -27.667 52.5 -36s42 -12.5 66 -12.5z" />
    <glyph glyph-name="Emacron" unicode="&#x112;" 
d="M94 700h424v-78h-340v-232h334v-78h-334v-234h346v-78h-430v700zM456 774h-282v66h282v-66z" />
    <glyph glyph-name="emacron" unicode="&#x113;" 
d="M144 224c2 -49.333 17.332 -88.998 45.999 -118.998s68.667 -45 120 -45c23.333 0 43.666 2.66699 60.999 8s32.166 12.666 44.499 21.999s22.333 20.166 30 32.499s13.834 25.5 18.501 39.5l74 -20c-14 -46 -39.833 -83.5 -77.5 -112.5s-88.5 -43.5 -152.5 -43.5
c-35.333 0 -67.833 6.16699 -97.5 18.5s-55.167 29.833 -76.5 52.5s-38 49.667 -50 81s-18 66 -18 104v24c0 34.667 6.16699 67 18.5 97s29.5 55.833 51.5 77.5s47.833 38.667 77.5 51s61.834 18.5 96.501 18.5c40.667 0 75.834 -7.5 105.501 -22.5s54 -33.5 73 -55.5
s33 -46 42 -72s13.5 -50 13.5 -72v-64h-400zM309.999 436.002c-22 0 -42.502 -3.49902 -61.502 -10.499s-35.667 -16.833 -50 -29.5s-26 -27.5 -35 -44.5s-14.833 -35.5 -17.5 -55.5h320c-1.33301 21.333 -6.5 40.666 -15.5 57.999s-20.667 32 -35 44
s-30.666 21.333 -48.999 28s-37.166 10 -56.499 10zM449.997 570.003h-282v66h282v-66z" />
    <glyph glyph-name="Ebreve" unicode="&#x114;" 
d="M94 700h424v-78h-340v-232h334v-78h-334v-234h346v-78h-430v700zM417 892l-0.00390625 -10c0 -32 -9.66699 -58 -29 -78s-45.666 -30 -78.999 -30s-59.666 10 -78.999 30s-29 46 -29 78v10h69v-12c0 -10.667 3.33301 -19.834 10 -27.501s16.334 -11.5 29.001 -11.5
s22.334 3.83301 29.001 11.5s10 16.834 10 27.501v12h69z" />
    <glyph glyph-name="ebreve" unicode="&#x115;" 
d="M144 224c2 -49.333 17.332 -88.998 45.999 -118.998s68.667 -45 120 -45c23.333 0 43.666 2.66699 60.999 8s32.166 12.666 44.499 21.999s22.333 20.166 30 32.499s13.834 25.5 18.501 39.5l74 -20c-14 -46 -39.833 -83.5 -77.5 -112.5s-88.5 -43.5 -152.5 -43.5
c-35.333 0 -67.833 6.16699 -97.5 18.5s-55.167 29.833 -76.5 52.5s-38 49.667 -50 81s-18 66 -18 104v24c0 34.667 6.16699 67 18.5 97s29.5 55.833 51.5 77.5s47.833 38.667 77.5 51s61.834 18.5 96.501 18.5c40.667 0 75.834 -7.5 105.501 -22.5s54 -33.5 73 -55.5
s33 -46 42 -72s13.5 -50 13.5 -72v-64h-400zM309.999 436.002c-22 0 -42.502 -3.49902 -61.502 -10.499s-35.667 -16.833 -50 -29.5s-26 -27.5 -35 -44.5s-14.833 -35.5 -17.5 -55.5h320c-1.33301 21.333 -6.5 40.666 -15.5 57.999s-20.667 32 -35 44
s-30.666 21.333 -48.999 28s-37.166 10 -56.499 10zM416.997 688.003l-0.00390625 -10c0 -32 -9.66699 -58 -29 -78s-45.666 -30 -78.999 -30s-59.666 10 -78.999 30s-29 46 -29 78v10h69v-12c0 -10.667 3.33301 -19.834 10 -27.501s16.334 -11.5 29.001 -11.5
s22.334 3.83301 29.001 11.5s10 16.834 10 27.501v12h69z" />
    <glyph glyph-name="Edotaccent" unicode="&#x116;" 
d="M94 700h424v-78h-340v-232h334v-78h-334v-234h346v-78h-430v700zM239 848c0 19.333 6.83301 35.833 20.5 49.5s30.167 20.5 49.5 20.5s35.833 -6.83301 49.5 -20.5s20.5 -30.167 20.5 -49.5s-6.83301 -35.833 -20.5 -49.5s-30.167 -20.5 -49.5 -20.5
s-35.833 6.83301 -49.5 20.5s-20.5 30.167 -20.5 49.5z" />
    <glyph glyph-name="edotaccent" unicode="&#x117;" 
d="M144 224c2 -49.333 17.332 -88.998 45.999 -118.998s68.667 -45 120 -45c23.333 0 43.666 2.66699 60.999 8s32.166 12.666 44.499 21.999s22.333 20.166 30 32.499s13.834 25.5 18.501 39.5l74 -20c-14 -46 -39.833 -83.5 -77.5 -112.5s-88.5 -43.5 -152.5 -43.5
c-35.333 0 -67.833 6.16699 -97.5 18.5s-55.167 29.833 -76.5 52.5s-38 49.667 -50 81s-18 66 -18 104v24c0 34.667 6.16699 67 18.5 97s29.5 55.833 51.5 77.5s47.833 38.667 77.5 51s61.834 18.5 96.501 18.5c40.667 0 75.834 -7.5 105.501 -22.5s54 -33.5 73 -55.5
s33 -46 42 -72s13.5 -50 13.5 -72v-64h-400zM309.999 436.002c-22 0 -42.502 -3.49902 -61.502 -10.499s-35.667 -16.833 -50 -29.5s-26 -27.5 -35 -44.5s-14.833 -35.5 -17.5 -55.5h320c-1.33301 21.333 -6.5 40.666 -15.5 57.999s-20.667 32 -35 44
s-30.666 21.333 -48.999 28s-37.166 10 -56.499 10zM238.997 644.003c0 19.333 6.83301 35.833 20.5 49.5s30.167 20.5 49.5 20.5s35.833 -6.83301 49.5 -20.5s20.5 -30.167 20.5 -49.5s-6.83301 -35.833 -20.5 -49.5s-30.167 -20.5 -49.5 -20.5s-35.833 6.83301 -49.5 20.5
s-20.5 30.167 -20.5 49.5z" />
    <glyph glyph-name="Eogonek" unicode="&#x118;" 
d="M94 700h424v-78h-340v-232h334v-78h-334v-234h346v-78l-16 -68c-0.666992 -3.33301 -1 -6 -1 -8c0 -14.667 7.66699 -22 23 -22h42v-66h-56c-20 0 -38 6.16699 -54 18.5s-24 30.833 -24 55.5c0 6 1 14 3 24l14 66h-361v700z" />
    <glyph glyph-name="eogonek" unicode="&#x119;" 
d="M143 224c2 -49.333 17.3301 -88.998 45.9971 -118.998s68.667 -45 120 -45c23.333 0 43.666 2.66699 60.999 8s32.166 12.666 44.499 21.999s22.333 20.166 30 32.499s13.834 25.5 18.501 39.5l74 -20c-13.333 -42 -36.166 -76.833 -68.499 -104.5
s-75.5 -44.167 -129.5 -49.5l-13 -56c-0.666992 -3.33301 -1 -6 -1 -8c0 -14.667 7.66699 -22 23 -22h42v-66h-56c-19.333 0 -37.166 6.16699 -53.499 18.5s-24.5 30.833 -24.5 55.5c0 6 1 14 3 24l12 54c-30.667 4 -58.667 13 -84 27s-47 32 -65 54s-32 47.667 -42 77
s-15 61.333 -15 96v24c0 34.667 6.16699 67 18.5 97s29.5 55.833 51.5 77.5s47.833 38.667 77.5 51s61.834 18.5 96.501 18.5c40.667 0 75.834 -7.5 105.501 -22.5s54 -33.5 73 -55.5s33 -46 42 -72s13.5 -50 13.5 -72v-64h-400zM308.997 436.002
c-22 0 -42.502 -3.49902 -61.502 -10.499s-35.667 -16.833 -50 -29.5s-26 -27.5 -35 -44.5s-14.833 -35.5 -17.5 -55.5h320c-1.33301 21.333 -6.5 40.666 -15.5 57.999s-20.667 32 -35 44s-30.666 21.333 -48.999 28s-37.166 10 -56.499 10z" />
    <glyph glyph-name="Ecaron" unicode="&#x11a;" 
d="M94 700h424v-78h-340v-232h334v-78h-334v-234h346v-78h-430v700zM451 892l-80 -118h-124l-80 118h84l52 -88h12l52 88h84z" />
    <glyph glyph-name="ecaron" unicode="&#x11b;" 
d="M144 224c2 -49.333 17.332 -88.998 45.999 -118.998s68.667 -45 120 -45c23.333 0 43.666 2.66699 60.999 8s32.166 12.666 44.499 21.999s22.333 20.166 30 32.499s13.834 25.5 18.501 39.5l74 -20c-14 -46 -39.833 -83.5 -77.5 -112.5s-88.5 -43.5 -152.5 -43.5
c-35.333 0 -67.833 6.16699 -97.5 18.5s-55.167 29.833 -76.5 52.5s-38 49.667 -50 81s-18 66 -18 104v24c0 34.667 6.16699 67 18.5 97s29.5 55.833 51.5 77.5s47.833 38.667 77.5 51s61.834 18.5 96.501 18.5c40.667 0 75.834 -7.5 105.501 -22.5s54 -33.5 73 -55.5
s33 -46 42 -72s13.5 -50 13.5 -72v-64h-400zM309.999 436.002c-22 0 -42.502 -3.49902 -61.502 -10.499s-35.667 -16.833 -50 -29.5s-26 -27.5 -35 -44.5s-14.833 -35.5 -17.5 -55.5h320c-1.33301 21.333 -6.5 40.666 -15.5 57.999s-20.667 32 -35 44
s-30.666 21.333 -48.999 28s-37.166 10 -56.499 10zM450.997 688.003l-80 -118h-124l-80 118h84l52 -88h12l52 88h84z" />
    <glyph glyph-name="Gcircumflex" unicode="&#x11c;" 
d="M239 336l311.999 0.000976562v-336h-78v84h-12c-11.333 -29.333 -31.333 -53 -60 -71s-62 -27 -100 -27c-75.333 0 -134.5 24.333 -177.5 73s-64.5 119.667 -64.5 213v156c0 90.667 21.667 161 65 211s103.666 75 180.999 75c40 0 75.333 -6.5 106 -19.5
s56.334 -31 77.001 -54s36.334 -50 47.001 -81s16 -64.167 16 -99.5v-12h-84v12c0 22.667 -3.16699 44.667 -9.5 66s-16 40.166 -29 56.499s-29.667 29.333 -50 39s-44.833 14.5 -73.5 14.5c-54 0 -94.5 -19.667 -121.5 -59s-40.5 -91 -40.5 -155v-144
c0 -68.667 13.5 -121.5 40.5 -158.5s68.167 -55.5 123.5 -55.5c50 0 89.167 16 117.5 48s42.5 76.667 42.5 134v12h-228v78zM363.999 774.001l-52 88h-12l-52 -88h-84l80 118h124l80 -118h-84z" />
    <glyph glyph-name="gcircumflex" unicode="&#x11d;" 
d="M464 76h-12.001c-16 -30 -37.833 -52.5 -65.5 -67.5s-57.834 -22.5 -90.501 -22.5c-33.333 0 -64.666 5.66699 -93.999 17s-55.166 27.666 -77.499 48.999s-40 47.833 -53 79.5s-19.5 67.834 -19.5 108.501v16c0 40 6.66699 75.833 20 107.5s31 58.334 53 80.001
s47.667 38.167 77 49.5s60 17 92 17c36 0 67.5 -7.83301 94.5 -23.5s48.167 -38.5 63.5 -68.5h12v78h78v-618c0 -22.667 -7.16699 -41.334 -21.5 -56.001s-32.833 -22 -55.5 -22h-323v72h295c18 0 27 10 27 30v174zM297.999 60c23.333 0 44.999 4.33398 64.999 13.001
s37.5 21 52.5 37s26.833 35.167 35.5 57.5s13 47.166 13 74.499v12c0 26.667 -4.33301 51.167 -13 73.5s-20.5 41.5 -35.5 57.5s-32.667 28.5 -53 37.5s-41.833 13.5 -64.5 13.5c-23.333 0 -45.166 -4.33301 -65.499 -13s-38 -21 -53 -37s-26.667 -35 -35 -57
s-12.5 -46.333 -12.5 -73v-16c0 -28 4.16699 -53 12.5 -75s20 -40.833 35 -56.5s32.5 -27.667 52.5 -36s42 -12.5 66 -12.5zM346.998 570.001l-52 88h-12l-52 -88h-84l80 118h124l80 -118h-84z" />
    <glyph glyph-name="Gbreve" unicode="&#x11e;" 
d="M239 336l311.999 0.000976562v-336h-78v84h-12c-11.333 -29.333 -31.333 -53 -60 -71s-62 -27 -100 -27c-75.333 0 -134.5 24.333 -177.5 73s-64.5 119.667 -64.5 213v156c0 90.667 21.667 161 65 211s103.666 75 180.999 75c40 0 75.333 -6.5 106 -19.5
s56.334 -31 77.001 -54s36.334 -50 47.001 -81s16 -64.167 16 -99.5v-12h-84v12c0 22.667 -3.16699 44.667 -9.5 66s-16 40.166 -29 56.499s-29.667 29.333 -50 39s-44.833 14.5 -73.5 14.5c-54 0 -94.5 -19.667 -121.5 -59s-40.5 -91 -40.5 -155v-144
c0 -68.667 13.5 -121.5 40.5 -158.5s68.167 -55.5 123.5 -55.5c50 0 89.167 16 117.5 48s42.5 76.667 42.5 134v12h-228v78zM413.999 892.001l-0.00390625 -10c0 -32 -9.66699 -58 -29 -78s-45.666 -30 -78.999 -30s-59.666 10 -78.999 30s-29 46 -29 78v10h69v-12
c0 -10.667 3.33301 -19.834 10 -27.501s16.334 -11.5 29.001 -11.5s22.334 3.83301 29.001 11.5s10 16.834 10 27.501v12h69z" />
    <glyph glyph-name="gbreve" unicode="&#x11f;" 
d="M464 76h-12.001c-16 -30 -37.833 -52.5 -65.5 -67.5s-57.834 -22.5 -90.501 -22.5c-33.333 0 -64.666 5.66699 -93.999 17s-55.166 27.666 -77.499 48.999s-40 47.833 -53 79.5s-19.5 67.834 -19.5 108.501v16c0 40 6.66699 75.833 20 107.5s31 58.334 53 80.001
s47.667 38.167 77 49.5s60 17 92 17c36 0 67.5 -7.83301 94.5 -23.5s48.167 -38.5 63.5 -68.5h12v78h78v-618c0 -22.667 -7.16699 -41.334 -21.5 -56.001s-32.833 -22 -55.5 -22h-323v72h295c18 0 27 10 27 30v174zM297.999 60c23.333 0 44.999 4.33398 64.999 13.001
s37.5 21 52.5 37s26.833 35.167 35.5 57.5s13 47.166 13 74.499v12c0 26.667 -4.33301 51.167 -13 73.5s-20.5 41.5 -35.5 57.5s-32.667 28.5 -53 37.5s-41.833 13.5 -64.5 13.5c-23.333 0 -45.166 -4.33301 -65.499 -13s-38 -21 -53 -37s-26.667 -35 -35 -57
s-12.5 -46.333 -12.5 -73v-16c0 -28 4.16699 -53 12.5 -75s20 -40.833 35 -56.5s32.5 -27.667 52.5 -36s42 -12.5 66 -12.5zM402.998 688.001l-0.00390625 -10c0 -32 -9.66699 -58 -29 -78s-45.666 -30 -78.999 -30s-59.666 10 -78.999 30s-29 46 -29 78v10h69v-12
c0 -10.667 3.33301 -19.834 10 -27.501s16.334 -11.5 29.001 -11.5s22.334 3.83301 29.001 11.5s10 16.834 10 27.501v12h69z" />
    <glyph glyph-name="Gdotaccent" unicode="&#x120;" 
d="M239 336l311.999 0.000976562v-336h-78v84h-12c-11.333 -29.333 -31.333 -53 -60 -71s-62 -27 -100 -27c-75.333 0 -134.5 24.333 -177.5 73s-64.5 119.667 -64.5 213v156c0 90.667 21.667 161 65 211s103.666 75 180.999 75c40 0 75.333 -6.5 106 -19.5
s56.334 -31 77.001 -54s36.334 -50 47.001 -81s16 -64.167 16 -99.5v-12h-84v12c0 22.667 -3.16699 44.667 -9.5 66s-16 40.166 -29 56.499s-29.667 29.333 -50 39s-44.833 14.5 -73.5 14.5c-54 0 -94.5 -19.667 -121.5 -59s-40.5 -91 -40.5 -155v-144
c0 -68.667 13.5 -121.5 40.5 -158.5s68.167 -55.5 123.5 -55.5c50 0 89.167 16 117.5 48s42.5 76.667 42.5 134v12h-228v78zM235.999 848.001c0 19.333 6.83301 35.833 20.5 49.5s30.167 20.5 49.5 20.5s35.833 -6.83301 49.5 -20.5s20.5 -30.167 20.5 -49.5
s-6.83301 -35.833 -20.5 -49.5s-30.167 -20.5 -49.5 -20.5s-35.833 6.83301 -49.5 20.5s-20.5 30.167 -20.5 49.5z" />
    <glyph glyph-name="gdotaccent" unicode="&#x121;" 
d="M464 76h-12.001c-16 -30 -37.833 -52.5 -65.5 -67.5s-57.834 -22.5 -90.501 -22.5c-33.333 0 -64.666 5.66699 -93.999 17s-55.166 27.666 -77.499 48.999s-40 47.833 -53 79.5s-19.5 67.834 -19.5 108.501v16c0 40 6.66699 75.833 20 107.5s31 58.334 53 80.001
s47.667 38.167 77 49.5s60 17 92 17c36 0 67.5 -7.83301 94.5 -23.5s48.167 -38.5 63.5 -68.5h12v78h78v-618c0 -22.667 -7.16699 -41.334 -21.5 -56.001s-32.833 -22 -55.5 -22h-323v72h295c18 0 27 10 27 30v174zM297.999 60c23.333 0 44.999 4.33398 64.999 13.001
s37.5 21 52.5 37s26.833 35.167 35.5 57.5s13 47.166 13 74.499v12c0 26.667 -4.33301 51.167 -13 73.5s-20.5 41.5 -35.5 57.5s-32.667 28.5 -53 37.5s-41.833 13.5 -64.5 13.5c-23.333 0 -45.166 -4.33301 -65.499 -13s-38 -21 -53 -37s-26.667 -35 -35 -57
s-12.5 -46.333 -12.5 -73v-16c0 -28 4.16699 -53 12.5 -75s20 -40.833 35 -56.5s32.5 -27.667 52.5 -36s42 -12.5 66 -12.5zM224.998 644.001c0 19.333 6.83301 35.833 20.5 49.5s30.167 20.5 49.5 20.5s35.833 -6.83301 49.5 -20.5s20.5 -30.167 20.5 -49.5
s-6.83301 -35.833 -20.5 -49.5s-30.167 -20.5 -49.5 -20.5s-35.833 6.83301 -49.5 20.5s-20.5 30.167 -20.5 49.5z" />
    <glyph glyph-name="uni0122" unicode="&#x122;" 
d="M239 336l311.999 0.000976562v-336h-78v84h-12c-11.333 -29.333 -31.333 -53 -60 -71s-62 -27 -100 -27c-75.333 0 -134.5 24.333 -177.5 73s-64.5 119.667 -64.5 213v156c0 90.667 21.667 161 65 211s103.666 75 180.999 75c40 0 75.333 -6.5 106 -19.5
s56.334 -31 77.001 -54s36.334 -50 47.001 -81s16 -64.167 16 -99.5v-12h-84v12c0 22.667 -3.16699 44.667 -9.5 66s-16 40.166 -29 56.499s-29.667 29.333 -50 39s-44.833 14.5 -73.5 14.5c-54 0 -94.5 -19.667 -121.5 -59s-40.5 -91 -40.5 -155v-144
c0 -68.667 13.5 -121.5 40.5 -158.5s68.167 -55.5 123.5 -55.5c50 0 89.167 16 117.5 48s42.5 76.667 42.5 134v12h-228v78zM231.999 -112.999c0 19.333 6.83398 35.834 20.501 49.501s30.167 20.5 49.5 20.5s35.833 -6.83301 49.5 -20.5s20.5 -30.167 20.5 -49.5v-98
c0 -22.667 -7.16699 -41.334 -21.5 -56.001s-32.833 -22 -55.5 -22h-51v54h47c18 0 27 10 27 30v25c-5.33301 -2 -11 -3 -17 -3c-18.667 0 -34.834 6.83301 -48.501 20.5s-20.5 30.167 -20.5 49.5z" />
    <glyph glyph-name="uni0123" unicode="&#x123;" 
d="M464 76h-12.001c-16 -30 -37.833 -52.5 -65.5 -67.5s-57.834 -22.5 -90.501 -22.5c-33.333 0 -64.666 5.66699 -93.999 17s-55.166 27.666 -77.499 48.999s-40 47.833 -53 79.5s-19.5 67.834 -19.5 108.501v16c0 40 6.66699 75.833 20 107.5s31 58.334 53 80.001
s47.667 38.167 77 49.5s60 17 92 17c36 0 67.5 -7.83301 94.5 -23.5s48.167 -38.5 63.5 -68.5h12v78h78v-618c0 -22.667 -7.16699 -41.334 -21.5 -56.001s-32.833 -22 -55.5 -22h-323v72h295c18 0 27 10 27 30v174zM297.999 60c23.333 0 44.999 4.33398 64.999 13.001
s37.5 21 52.5 37s26.833 35.167 35.5 57.5s13 47.166 13 74.499v12c0 26.667 -4.33301 51.167 -13 73.5s-20.5 41.5 -35.5 57.5s-32.667 28.5 -53 37.5s-41.833 13.5 -64.5 13.5c-23.333 0 -45.166 -4.33301 -65.499 -13s-38 -21 -53 -37s-26.667 -35 -35 -57
s-12.5 -46.333 -12.5 -73v-16c0 -28 4.16699 -53 12.5 -75s20 -40.833 35 -56.5s32.5 -27.667 52.5 -36s42 -12.5 66 -12.5zM364.998 644.001c0 -19.333 -6.83496 -35.834 -20.502 -49.501s-30.167 -20.5 -49.5 -20.5s-35.833 6.83301 -49.5 20.5s-20.5 30.167 -20.5 49.5
v98c0 22.667 7.16699 41.334 21.5 56.001s32.833 22 55.5 22h51v-54h-47c-18 0 -27 -10 -27 -30v-25c4.66699 2 10.334 3 17.001 3c18.667 0 34.834 -6.83301 48.501 -20.5s20.5 -30.167 20.5 -49.5z" />
    <glyph glyph-name="Hcircumflex" unicode="&#x124;" 
d="M73 700h84v-310h298v310h84v-700h-84v312h-298v-312h-84v700zM364 774l-52 88h-12l-52 -88h-84l80 118h124l80 -118h-84z" />
    <glyph glyph-name="hcircumflex" unicode="&#x125;" 
d="M165 0h-78v700h78v-294h12c15.333 32 36.833 57.333 64.5 76s61.5 28 101.5 28c54 0 97.833 -17.833 131.5 -53.5s50.5 -89.167 50.5 -160.5v-296h-78v280c0 52 -11.667 91 -35 117s-55 39 -95 39c-47.333 0 -84.5 -16.167 -111.5 -48.5s-40.5 -75.5 -40.5 -129.5v-258z
M287 774l-52 88h-12l-52 -88h-84l80 118h124l80 -118h-84z" />
    <glyph glyph-name="Hbar" unicode="&#x126;" 
d="M73 496h-60v78h60v126h84v-126h298v126h84v-126h60v-78h-60v-496h-84v312h-298v-312h-84v496zM455 390v106h-298v-106h298z" />
    <glyph glyph-name="hbar" unicode="&#x127;" 
d="M27 634h60v66h78v-66h178v-72h-178v-156h12c15.333 32 36.833 57.333 64.5 76s61.5 28 101.5 28c54 0 97.833 -17.833 131.5 -53.5s50.5 -89.167 50.5 -160.5v-296h-78v280c0 52 -11.667 91 -35 117s-55 39 -95 39c-47.333 0 -84.5 -16.167 -111.5 -48.5
s-40.5 -75.5 -40.5 -129.5v-258h-78v562h-60v72z" />
    <glyph glyph-name="Itilde" unicode="&#x128;" 
d="M84 700h444v-78h-180v-544h180v-78h-444v78h180v544h-180v78zM337 846c3.33301 -6.66699 6.66699 -11.667 10 -15s8 -5 14 -5c6.66699 0 13 3.33301 19 10l48 55l49 -42l-41 -49c-9.33301 -11.333 -20.333 -21.166 -33 -29.499s-27.667 -12.5 -45 -12.5
c-20.667 0 -36.5 4.66699 -47.5 14s-22.167 24.333 -33.5 45c-4.66699 8 -8.5 13.667 -11.5 17s-7.16699 5 -12.5 5c-7.33301 0 -14.666 -4 -21.999 -12l-46 -53l-49 42l41 49c9.33301 11.333 20.333 21.166 33 29.499s28 12.5 46 12.5
c19.333 0 34.666 -4.83301 45.999 -14.5s23 -25.167 35 -46.5z" />
    <glyph glyph-name="itilde" unicode="&#x129;" 
d="M99 72h174v352h-156v72h234v-424h162v-72h-414v72zM299 639c3.33301 -6.66699 6.66699 -11.667 10 -15s8 -5 14 -5c6.66699 0 13 3.33301 19 10l48 55l49 -42l-41 -49c-9.33301 -11.333 -20.333 -21.166 -33 -29.499s-27.667 -12.5 -45 -12.5
c-20.667 0 -36.5 4.66699 -47.5 14s-22.167 24.333 -33.5 45c-4.66699 8 -8.5 13.667 -11.5 17s-7.16699 5 -12.5 5c-7.33301 0 -14.666 -4 -21.999 -12l-46 -53l-49 42l41 49c9.33301 11.333 20.333 21.166 33 29.499s28 12.5 46 12.5
c19.333 0 34.666 -4.83301 45.999 -14.5s23 -25.167 35 -46.5z" />
    <glyph glyph-name="Imacron" unicode="&#x12a;" 
d="M84 700h444v-78h-180v-544h180v-78h-444v78h180v544h-180v78zM447 774h-282v66h282v-66z" />
    <glyph glyph-name="imacron" unicode="&#x12b;" 
d="M351 570h-234v66h234v-66zM99 72h174v352h-156v72h234v-424h162v-72h-414v72z" />
    <glyph glyph-name="Ibreve" unicode="&#x12c;" 
d="M84 700h444v-78h-180v-544h180v-78h-444v78h180v544h-180v78zM414 892l-0.00390625 -10c0 -32 -9.66699 -58 -29 -78s-45.666 -30 -78.999 -30s-59.666 10 -78.999 30s-29 46 -29 78v10h69v-12c0 -10.667 3.33301 -19.834 10 -27.501s16.334 -11.5 29.001 -11.5
s22.334 3.83301 29.001 11.5s10 16.834 10 27.501v12h69z" />
    <glyph glyph-name="ibreve" unicode="&#x12d;" 
d="M99 72h174v352h-156v72h234v-424h162v-72h-414v72zM419 688l-0.00390625 -10c0 -32 -9.66699 -58 -29 -78s-45.666 -30 -78.999 -30s-59.666 10 -78.999 30s-29 46 -29 78v10h69v-12c0 -10.667 3.33301 -19.834 10 -27.501s16.334 -11.5 29.001 -11.5
s22.334 3.83301 29.001 11.5s10 16.834 10 27.501v12h69z" />
    <glyph glyph-name="Iogonek" unicode="&#x12e;" 
d="M84 700h444v-78h-180v-544h180v-78l-16 -68c-0.666992 -3.33301 -1 -6 -1 -8c0 -14.667 7.66699 -22 23 -22h42v-66h-56c-20 0 -38 6.16699 -54 18.5s-24 30.833 -24 55.5c0 6 1 14 3 24l14 66h-375v78h180v544h-180v78z" />
    <glyph glyph-name="iogonek" unicode="&#x12f;" 
d="M99 72h174v352h-156v72h234v-424h162v-72l-16 -68c-0.666992 -3.33301 -1 -6 -1 -8c0 -14.667 7.66699 -22 23 -22h42v-66h-56c-20 0 -38 6.16699 -54 18.5s-24 30.833 -24 55.5c0 6 1 14 3 24l14 66h-345v72zM241 644c0 19.333 6.83301 35.833 20.5 49.5
s30.167 20.5 49.5 20.5s35.833 -6.83301 49.5 -20.5s20.5 -30.167 20.5 -49.5s-6.83301 -35.833 -20.5 -49.5s-30.167 -20.5 -49.5 -20.5s-35.833 6.83301 -49.5 20.5s-20.5 30.167 -20.5 49.5z" />
    <glyph glyph-name="Idotaccent" unicode="&#x130;" 
d="M84 700h444v-78h-180v-544h180v-78h-444v78h180v544h-180v78zM236 848c0 19.333 6.83301 35.833 20.5 49.5s30.167 20.5 49.5 20.5s35.833 -6.83301 49.5 -20.5s20.5 -30.167 20.5 -49.5s-6.83301 -35.833 -20.5 -49.5s-30.167 -20.5 -49.5 -20.5
s-35.833 6.83301 -49.5 20.5s-20.5 30.167 -20.5 49.5z" />
    <glyph glyph-name="dotlessi" unicode="&#x131;" 
d="M99 72h174v352h-156v72h234v-424h162v-72h-414v72z" />
    <glyph glyph-name="IJ" unicode="&#x132;" 
d="M73 700h84v-358h-84v358zM505 210c0 -72.667 -17.833 -128.167 -53.5 -166.5s-87.834 -57.5 -156.501 -57.5s-122.834 19.167 -162.501 57.5s-59.5 93.833 -59.5 166.5v54h84v-54c0 -44 11.333 -79.333 34 -106s57.334 -40 104.001 -40s79.334 13.333 98.001 40
s28 62 28 106v412h-72v78h216v-78h-60v-412z" />
    <glyph glyph-name="ij" unicode="&#x133;" 
d="M416 644c0 19.333 6.83301 35.833 20.5 49.5s30.167 20.5 49.5 20.5s35.833 -6.83301 49.5 -20.5s20.5 -30.167 20.5 -49.5s-6.83301 -35.833 -20.5 -49.5s-30.167 -20.5 -49.5 -20.5s-35.833 6.83301 -49.5 20.5s-20.5 30.167 -20.5 49.5zM56 644
c0 19.333 6.83301 35.833 20.5 49.5s30.167 20.5 49.5 20.5s35.833 -6.83301 49.5 -20.5s20.5 -30.167 20.5 -49.5s-6.83301 -35.833 -20.5 -49.5s-30.167 -20.5 -49.5 -20.5s-35.833 6.83301 -49.5 20.5s-20.5 30.167 -20.5 49.5zM447 90l-12 0.000976562
c-16 -32 -37 -57.333 -63 -76s-59 -28 -99 -28c-27.333 0 -52.5 4.5 -75.5 13.5s-42.667 22.5 -59 40.5s-29 40.333 -38 67s-13.5 57.667 -13.5 93v296h78v-286c0 -52 10.667 -90 32 -114s54 -36 98 -36c47.333 0 84.5 16.167 111.5 48.5s40.5 75.5 40.5 129.5v258h78v-618
c0 -22.667 -7.16699 -41.334 -21.5 -56.001s-32.833 -22 -55.5 -22h-223v72h195c18 0 27 10 27 30v188z" />
    <glyph glyph-name="Jcircumflex" unicode="&#x134;" 
d="M515 774l-52 88h-12l-52 -88h-84l80 118h124l80 -118h-84zM505 210c0 -72.667 -17.833 -128.167 -53.5 -166.5s-87.834 -57.5 -156.501 -57.5s-122.834 19.167 -162.501 57.5s-59.5 93.833 -59.5 166.5v54h84v-54c0 -44 11.333 -79.333 34 -106s57.334 -40 104.001 -40
s79.334 13.333 98.001 40s28 62 28 106v412h-72v78h216v-78h-60v-412z" />
    <glyph glyph-name="jcircumflex" unicode="&#x135;" 
d="M158 496l276 0.000976562v-618c0 -22.667 -7.16699 -41.334 -21.5 -56.001s-32.833 -22 -55.5 -22h-223v72h195c18 0 27 10 27 30v522h-198v72zM354 570.001l-52 88h-12l-52 -88h-84l80 118h124l80 -118h-84z" />
    <glyph glyph-name="uni0136" unicode="&#x136;" 
d="M173 0h-84v700h84v-310h23l269 310h104v-6l-290 -338v-12l302 -338v-6h-106l-279 312h-23v-312zM247 -113c0 19.333 6.83398 35.834 20.501 49.501s30.167 20.5 49.5 20.5s35.833 -6.83301 49.5 -20.5s20.5 -30.167 20.5 -49.5v-98
c0 -22.667 -7.16699 -41.334 -21.5 -56.001s-32.833 -22 -55.5 -22h-51v54h47c18 0 27 10 27 30v25c-5.33301 -2 -11 -3 -17 -3c-18.667 0 -34.834 6.83301 -48.501 20.5s-20.5 30.167 -20.5 49.5z" />
    <glyph glyph-name="uni0137" unicode="&#x137;" 
d="M215 290h17l189 206h96v-6l-206 -227v-18l230 -239v-6h-96l-211 218h-19v-218h-78v700h78v-410zM256 -113c0 19.333 6.83398 35.834 20.501 49.501s30.167 20.5 49.5 20.5s35.833 -6.83301 49.5 -20.5s20.5 -30.167 20.5 -49.5v-98
c0 -22.667 -7.16699 -41.334 -21.5 -56.001s-32.833 -22 -55.5 -22h-51v54h47c18 0 27 10 27 30v25c-5.33301 -2 -11 -3 -17 -3c-18.667 0 -34.834 6.83301 -48.501 20.5s-20.5 30.167 -20.5 49.5z" />
    <glyph glyph-name="kgreenlandic" unicode="&#x138;" 
d="M215 290h17l189 206h96v-6l-206 -227v-18l230 -239v-6h-96l-211 218h-19v-218h-78v496h78v-206z" />
    <glyph glyph-name="Lacute" unicode="&#x139;" 
d="M87 700h84v-622h366v-78h-450v700zM252 892l-84 -118h-72l66 118h90z" />
    <glyph glyph-name="lacute" unicode="&#x13a;" 
d="M87 72h180v556h-174v72h252v-628h180v-72h-438v72zM428 896l-84 -118h-72l66 118h90z" />
    <glyph glyph-name="uni013B" unicode="&#x13b;" 
d="M87 700h84v-622h366v-78h-450v700zM243 -113c0 19.333 6.83398 35.834 20.501 49.501s30.167 20.5 49.5 20.5s35.833 -6.83301 49.5 -20.5s20.5 -30.167 20.5 -49.5v-98c0 -22.667 -7.16699 -41.334 -21.5 -56.001s-32.833 -22 -55.5 -22h-51v54h47c18 0 27 10 27 30v25
c-5.33301 -2 -11 -3 -17 -3c-18.667 0 -34.834 6.83301 -48.501 20.5s-20.5 30.167 -20.5 49.5z" />
    <glyph glyph-name="uni013C" unicode="&#x13c;" 
d="M87 72h180v556h-174v72h252v-628h180v-72h-438v72zM236 -113c0 19.333 6.83398 35.834 20.501 49.501s30.167 20.5 49.5 20.5s35.833 -6.83301 49.5 -20.5s20.5 -30.167 20.5 -49.5v-98c0 -22.667 -7.16699 -41.334 -21.5 -56.001s-32.833 -22 -55.5 -22h-51v54h47
c18 0 27 10 27 30v25c-5.33301 -2 -11 -3 -17 -3c-18.667 0 -34.834 6.83301 -48.501 20.5s-20.5 30.167 -20.5 49.5z" />
    <glyph glyph-name="Lcaron" unicode="&#x13d;" 
d="M87 700h84v-622h366v-78h-450v700zM397 631c0 19.333 6.83398 35.834 20.501 49.501s30.167 20.5 49.5 20.5s35.833 -6.83301 49.5 -20.5s20.5 -30.167 20.5 -49.5v-98c0 -22.667 -7.16699 -41.334 -21.5 -56.001s-32.833 -22 -55.5 -22h-51v54h47c18 0 27 10 27 30v25
c-5.33301 -2 -11 -3 -17 -3c-18.667 0 -34.834 6.83301 -48.501 20.5s-20.5 30.167 -20.5 49.5z" />
    <glyph glyph-name="lcaron" unicode="&#x13e;" 
d="M87 72h180v556h-174v72h252v-628h180v-72h-438v72zM385 631c0 19.333 6.83398 35.834 20.501 49.501s30.167 20.5 49.5 20.5s35.833 -6.83301 49.5 -20.5s20.5 -30.167 20.5 -49.5v-98c0 -22.667 -7.16699 -41.334 -21.5 -56.001s-32.833 -22 -55.5 -22h-51v54h47
c18 0 27 10 27 30v25c-5.33301 -2 -11 -3 -17 -3c-18.667 0 -34.834 6.83301 -48.501 20.5s-20.5 30.167 -20.5 49.5z" />
    <glyph glyph-name="Ldot" unicode="&#x13f;" 
d="M87 700h84v-622h366v-78h-450v700zM397 350c0 19.333 6.83301 35.833 20.5 49.5s30.167 20.5 49.5 20.5s35.833 -6.83301 49.5 -20.5s20.5 -30.167 20.5 -49.5s-6.83301 -35.833 -20.5 -49.5s-30.167 -20.5 -49.5 -20.5s-35.833 6.83301 -49.5 20.5
s-20.5 30.167 -20.5 49.5z" />
    <glyph glyph-name="ldot" unicode="&#x140;" 
d="M87 72h180v556h-174v72h252v-628h180v-72h-438v72zM385 350c0 19.333 6.83301 35.833 20.5 49.5s30.167 20.5 49.5 20.5s35.833 -6.83301 49.5 -20.5s20.5 -30.167 20.5 -49.5s-6.83301 -35.833 -20.5 -49.5s-30.167 -20.5 -49.5 -20.5s-35.833 6.83301 -49.5 20.5
s-20.5 30.167 -20.5 49.5z" />
    <glyph glyph-name="Lslash" unicode="&#x141;" 
d="M120 359v341h84v-298l61 31l34 -67l-95 -49v-239h348v-78h-432v274l-61 -31l-35 68z" />
    <glyph glyph-name="lslash" unicode="&#x142;" 
d="M87 72h180v203l-63 -32l-35 68l98 49v268h-174v72h252v-300l65 33l34 -67l-99 -51v-243h180v-72h-438v72z" />
    <glyph glyph-name="Nacute" unicode="&#x143;" 
d="M443 36h12v664h84v-700h-168l-202 664h-12v-664h-84v700h168zM472 892l-84 -118h-72l66 118h90z" />
    <glyph glyph-name="nacute" unicode="&#x144;" 
d="M165 0h-78v496h78v-84h12c30.667 65.333 84 98 160 98c57.333 0 103 -17.833 137 -53.5s51 -89.167 51 -160.5v-296h-78v280c0 52 -11.667 91 -35 117s-55 39 -95 39c-47.333 0 -84.5 -16.167 -111.5 -48.5s-40.5 -75.5 -40.5 -129.5v-258zM456 688l-84 -118h-72l66 118
h90z" />
    <glyph glyph-name="uni0145" unicode="&#x145;" 
d="M443 36h12v664h84v-700h-168l-202 664h-12v-664h-84v700h168zM197 -113c0 19.333 6.83398 35.834 20.501 49.501s30.167 20.5 49.5 20.5s35.833 -6.83301 49.5 -20.5s20.5 -30.167 20.5 -49.5v-98c0 -22.667 -7.16699 -41.334 -21.5 -56.001s-32.833 -22 -55.5 -22h-51
v54h47c18 0 27 10 27 30v25c-5.33301 -2 -11 -3 -17 -3c-18.667 0 -34.834 6.83301 -48.501 20.5s-20.5 30.167 -20.5 49.5z" />
    <glyph glyph-name="uni0146" unicode="&#x146;" 
d="M165 0h-78v496h78v-84h12c30.667 65.333 84 98 160 98c57.333 0 103 -17.833 137 -53.5s51 -89.167 51 -160.5v-296h-78v280c0 52 -11.667 91 -35 117s-55 39 -95 39c-47.333 0 -84.5 -16.167 -111.5 -48.5s-40.5 -75.5 -40.5 -129.5v-258zM247 -114
c0 19.333 6.83398 35.834 20.501 49.501s30.167 20.5 49.5 20.5s35.833 -6.83301 49.5 -20.5s20.5 -30.167 20.5 -49.5v-98c0 -22.667 -7.16699 -41.334 -21.5 -56.001s-32.833 -22 -55.5 -22h-51v54h47c18 0 27 10 27 30v25c-5.33301 -2 -11 -3 -17 -3
c-18.667 0 -34.834 6.83301 -48.501 20.5s-20.5 30.167 -20.5 49.5z" />
    <glyph glyph-name="Ncaron" unicode="&#x147;" 
d="M443 36h12v664h84v-700h-168l-202 664h-12v-664h-84v700h168zM488 892l-80 -118h-124l-80 118h84l52 -88h12l52 88h84z" />
    <glyph glyph-name="ncaron" unicode="&#x148;" 
d="M165 0h-78v496h78v-84h12c30.667 65.333 84 98 160 98c57.333 0 103 -17.833 137 -53.5s51 -89.167 51 -160.5v-296h-78v280c0 52 -11.667 91 -35 117s-55 39 -95 39c-47.333 0 -84.5 -16.167 -111.5 -48.5s-40.5 -75.5 -40.5 -129.5v-258zM473 688l-80 -118h-124
l-80 118h84l52 -88h12l52 88h84z" />
    <glyph glyph-name="napostrophe" unicode="&#x149;" 
d="M75 750c0 19.333 6.83398 35.834 20.501 49.501s30.167 20.5 49.5 20.5s35.833 -6.83301 49.5 -20.5s20.5 -30.167 20.5 -49.5v-98c0 -22.667 -7.16699 -41.334 -21.5 -56.001s-32.833 -22 -55.5 -22h-51v54h47c18 0 27 10 27 30v25c-5.33301 -2 -11 -3 -17 -3
c-18.667 0 -34.834 6.83301 -48.501 20.5s-20.5 30.167 -20.5 49.5zM165.001 0.000976562h-78v496h78v-84h12c30.667 65.333 84 98 160 98c57.333 0 103 -17.833 137 -53.5s51 -89.167 51 -160.5v-296h-78v280c0 52 -11.667 91 -35 117s-55 39 -95 39
c-47.333 0 -84.5 -16.167 -111.5 -48.5s-40.5 -75.5 -40.5 -129.5v-258z" />
    <glyph glyph-name="Eng" unicode="&#x14a;" 
d="M443 36h11.999v664h84v-780c0 -39.333 -10.167 -69.166 -30.5 -89.499s-50.166 -30.5 -89.499 -30.5h-178v78h160c20 0 34 4.66699 42 14s12 22.666 12 39.999v68h-84l-202 664h-12v-664h-84v700h168z" />
    <glyph glyph-name="eng" unicode="&#x14b;" 
d="M165 0l-78 0.000976562v496h78v-84h12c30.667 65.333 84 98 160 98c57.333 0 103 -17.833 137 -53.5s51 -89.167 51 -160.5v-418c0 -22.667 -7.16699 -41.334 -21.5 -56.001s-32.833 -22 -55.5 -22h-131v72h103c18 0 27 10 27 30v378c0 52 -11.667 91 -35 117
s-55 39 -95 39c-47.333 0 -84.5 -16.167 -111.5 -48.5s-40.5 -75.5 -40.5 -129.5v-258z" />
    <glyph glyph-name="Omacron" unicode="&#x14c;" 
d="M60 428c0 90.667 21.667 161 65 211s103.666 75 180.999 75s137.666 -25 180.999 -75s65 -120.333 65 -211v-156c0 -93.333 -21.667 -164.333 -65 -213s-103.666 -73 -180.999 -73s-137.666 24.333 -180.999 73s-65 119.667 -65 213v156zM306 64
c54 0 94.5 18.5 121.5 55.5s40.5 89.833 40.5 158.5v144c0 64 -13.5 115.667 -40.5 155s-67.5 59 -121.5 59s-94.5 -19.667 -121.5 -59s-40.5 -91 -40.5 -155v-144c0 -68.667 13.5 -121.5 40.5 -158.5s67.5 -55.5 121.5 -55.5zM447 774h-282v66h282v-66z" />
    <glyph glyph-name="omacron" unicode="&#x14d;" 
d="M555 242c0 -41.333 -6.83105 -77.833 -20.498 -109.5s-31.834 -58.334 -54.501 -80.001s-49.167 -38.167 -79.5 -49.5s-61.833 -17 -94.5 -17c-33.333 0 -65 5.66699 -95 17s-56.333 27.833 -79 49.5s-40.834 48.334 -54.501 80.001s-20.5 68.167 -20.5 109.5v12
c0 40.667 6.83301 76.834 20.5 108.501s32 58.5 55 80.5s49.5 38.667 79.5 50s61.333 17 94 17s64 -5.66699 94 -17s56.5 -28 79.5 -50s41.333 -48.833 55 -80.5s20.5 -67.834 20.5 -108.501v-12zM306.002 60c24 0 46.1689 4.16699 66.502 12.5s38.166 20.5 53.499 36.5
s27.333 35.167 36 57.5s13 47.5 13 75.5v12c0 26.667 -4.33301 51.167 -13 73.5s-20.667 41.5 -36 57.5s-33.333 28.5 -54 37.5s-42.667 13.5 -66 13.5s-45.333 -4.5 -66 -13.5s-38.667 -21.5 -54 -37.5s-27.333 -35.167 -36 -57.5s-13 -46.833 -13 -73.5v-12
c0 -28 4.33301 -53.167 13 -75.5s20.667 -41.5 36 -57.5s33.166 -28.167 53.499 -36.5s42.5 -12.5 66.5 -12.5zM447.004 570h-282v66h282v-66z" />
    <glyph glyph-name="Obreve" unicode="&#x14e;" 
d="M60 428c0 90.667 21.667 161 65 211s103.666 75 180.999 75s137.666 -25 180.999 -75s65 -120.333 65 -211v-156c0 -93.333 -21.667 -164.333 -65 -213s-103.666 -73 -180.999 -73s-137.666 24.333 -180.999 73s-65 119.667 -65 213v156zM306 64
c54 0 94.5 18.5 121.5 55.5s40.5 89.833 40.5 158.5v144c0 64 -13.5 115.667 -40.5 155s-67.5 59 -121.5 59s-94.5 -19.667 -121.5 -59s-40.5 -91 -40.5 -155v-144c0 -68.667 13.5 -121.5 40.5 -158.5s67.5 -55.5 121.5 -55.5zM414 892l-0.00390625 -10
c0 -32 -9.66699 -58 -29 -78s-45.666 -30 -78.999 -30s-59.666 10 -78.999 30s-29 46 -29 78v10h69v-12c0 -10.667 3.33301 -19.834 10 -27.501s16.334 -11.5 29.001 -11.5s22.334 3.83301 29.001 11.5s10 16.834 10 27.501v12h69z" />
    <glyph glyph-name="obreve" unicode="&#x14f;" 
d="M555 242c0 -41.333 -6.83105 -77.833 -20.498 -109.5s-31.834 -58.334 -54.501 -80.001s-49.167 -38.167 -79.5 -49.5s-61.833 -17 -94.5 -17c-33.333 0 -65 5.66699 -95 17s-56.333 27.833 -79 49.5s-40.834 48.334 -54.501 80.001s-20.5 68.167 -20.5 109.5v12
c0 40.667 6.83301 76.834 20.5 108.501s32 58.5 55 80.5s49.5 38.667 79.5 50s61.333 17 94 17s64 -5.66699 94 -17s56.5 -28 79.5 -50s41.333 -48.833 55 -80.5s20.5 -67.834 20.5 -108.501v-12zM306.002 60c24 0 46.1689 4.16699 66.502 12.5s38.166 20.5 53.499 36.5
s27.333 35.167 36 57.5s13 47.5 13 75.5v12c0 26.667 -4.33301 51.167 -13 73.5s-20.667 41.5 -36 57.5s-33.333 28.5 -54 37.5s-42.667 13.5 -66 13.5s-45.333 -4.5 -66 -13.5s-38.667 -21.5 -54 -37.5s-27.333 -35.167 -36 -57.5s-13 -46.833 -13 -73.5v-12
c0 -28 4.33301 -53.167 13 -75.5s20.667 -41.5 36 -57.5s33.166 -28.167 53.499 -36.5s42.5 -12.5 66.5 -12.5zM414.004 688l-0.00390625 -10c0 -32 -9.66699 -58 -29 -78s-45.666 -30 -78.999 -30s-59.666 10 -78.999 30s-29 46 -29 78v10h69v-12
c0 -10.667 3.33301 -19.834 10 -27.501s16.334 -11.5 29.001 -11.5s22.334 3.83301 29.001 11.5s10 16.834 10 27.501v12h69z" />
    <glyph glyph-name="Ohungarumlaut" unicode="&#x150;" 
d="M60 428c0 90.667 21.667 161 65 211s103.666 75 180.999 75s137.666 -25 180.999 -75s65 -120.333 65 -211v-156c0 -93.333 -21.667 -164.333 -65 -213s-103.666 -73 -180.999 -73s-137.666 24.333 -180.999 73s-65 119.667 -65 213v156zM306 64
c54 0 94.5 18.5 121.5 55.5s40.5 89.833 40.5 158.5v144c0 64 -13.5 115.667 -40.5 155s-67.5 59 -121.5 59s-94.5 -19.667 -121.5 -59s-40.5 -91 -40.5 -155v-144c0 -68.667 13.5 -121.5 40.5 -158.5s67.5 -55.5 121.5 -55.5zM348 892l-84 -118h-72l66 118h90zM492 892
l-84 -118h-72l66 118h90z" />
    <glyph glyph-name="ohungarumlaut" unicode="&#x151;" 
d="M555 242c0 -41.333 -6.83105 -77.833 -20.498 -109.5s-31.834 -58.334 -54.501 -80.001s-49.167 -38.167 -79.5 -49.5s-61.833 -17 -94.5 -17c-33.333 0 -65 5.66699 -95 17s-56.333 27.833 -79 49.5s-40.834 48.334 -54.501 80.001s-20.5 68.167 -20.5 109.5v12
c0 40.667 6.83301 76.834 20.5 108.501s32 58.5 55 80.5s49.5 38.667 79.5 50s61.333 17 94 17s64 -5.66699 94 -17s56.5 -28 79.5 -50s41.333 -48.833 55 -80.5s20.5 -67.834 20.5 -108.501v-12zM306.002 60c24 0 46.1689 4.16699 66.502 12.5s38.166 20.5 53.499 36.5
s27.333 35.167 36 57.5s13 47.5 13 75.5v12c0 26.667 -4.33301 51.167 -13 73.5s-20.667 41.5 -36 57.5s-33.333 28.5 -54 37.5s-42.667 13.5 -66 13.5s-45.333 -4.5 -66 -13.5s-38.667 -21.5 -54 -37.5s-27.333 -35.167 -36 -57.5s-13 -46.833 -13 -73.5v-12
c0 -28 4.33301 -53.167 13 -75.5s20.667 -41.5 36 -57.5s33.166 -28.167 53.499 -36.5s42.5 -12.5 66.5 -12.5zM348.004 688l-84 -118h-72l66 118h90zM492.004 688l-84 -118h-72l66 118h90z" />
    <glyph glyph-name="OE" unicode="&#x152;" 
d="M300 0c-77.333 0 -137.666 24.333 -180.999 73s-65 119.667 -65 213v128c0 90.667 21.667 161 65 211s103.666 75 180.999 75h240v-78h-156v-232h150v-78h-150v-234h162v-78h-246zM300 622c-54 0 -94.5 -19.667 -121.5 -59s-40.5 -91 -40.5 -155v-116
c0 -68.667 13.5 -121.5 40.5 -158.5s67.5 -55.5 121.5 -55.5v544z" />
    <glyph glyph-name="oe" unicode="&#x153;" 
d="M317 -14c-33.333 0 -65.001 5.66602 -95.001 16.999s-56.333 27.833 -79 49.5s-40.834 48.334 -54.501 80.001s-20.5 68.167 -20.5 109.5v12c0 40.667 6.83301 76.834 20.5 108.501s32 58.5 55 80.5s49.5 38.667 79.5 50s61.333 17 94 17
c40.667 0 75.834 -7.5 105.501 -22.5s54 -33.5 73 -55.5s33 -46 42 -72s13.5 -50 13.5 -72v-64h-199v-162c35.333 5.33301 62 17.166 80 35.499s31 39.833 39 64.5l74 -20c-14 -46 -39.667 -83.5 -77 -112.5s-87.666 -43.5 -150.999 -43.5zM147.999 241.999
c0 -48 11.6689 -87.168 35.002 -117.501s53.666 -50.166 90.999 -59.499v365c-36.667 -9.33301 -66.834 -29.5 -90.501 -60.5s-35.5 -69.5 -35.5 -115.5v-12zM473.001 295.998c-2 36.667 -14.667 66.832 -38 90.499s-51 38.834 -83 45.501v-136h121z" />
    <glyph glyph-name="Racute" unicode="&#x154;" 
d="M525 0h-84.001v234c0 17.333 -4 30.666 -12 39.999s-22 14 -42 14h-218v-288h-84v700h250c36 0 67.333 -5.16699 94 -15.5s48.834 -24.166 66.501 -41.499s31 -37.5 40 -60.5s13.5 -47.167 13.5 -72.5v-30c0 -26 -7.16699 -52 -21.5 -78s-36.5 -46 -66.5 -60v-12
c20 -3.33301 35.667 -11.333 47 -24s17 -30.667 17 -54v-252zM168.999 366l156 0.000976562c47.333 0 82.5 10.167 105.5 30.5s34.5 50.166 34.5 89.499v18c0 35.333 -11.5 63.833 -34.5 85.5s-58.167 32.5 -105.5 32.5h-156v-256zM407.999 892.001l-84 -118h-72l66 118h90z
" />
    <glyph glyph-name="racute" unicode="&#x155;" 
d="M59 496l180 0.000976562v-66h12c12.667 27.333 30.667 47.5 54 60.5s50 19.5 80 19.5c50 0 90.333 -16.333 121 -49s47 -80.334 49 -143.001l-82 -12c0 46 -11 79.167 -33 99.5s-49 30.5 -81 30.5c-20.667 0 -38.5 -4 -53.5 -12s-27.5 -19 -37.5 -33
s-17.333 -30.333 -22 -49s-7 -38.667 -7 -60v-210h126v-72h-318v72h114v352h-102v72zM507 688.001l-84 -118h-72l66 118h90z" />
    <glyph glyph-name="uni0156" unicode="&#x156;" 
d="M525 0h-84.001v234c0 17.333 -4 30.666 -12 39.999s-22 14 -42 14h-218v-288h-84v700h250c36 0 67.333 -5.16699 94 -15.5s48.834 -24.166 66.501 -41.499s31 -37.5 40 -60.5s13.5 -47.167 13.5 -72.5v-30c0 -26 -7.16699 -52 -21.5 -78s-36.5 -46 -66.5 -60v-12
c20 -3.33301 35.667 -11.333 47 -24s17 -30.667 17 -54v-252zM168.999 366l156 0.000976562c47.333 0 82.5 10.167 105.5 30.5s34.5 50.166 34.5 89.499v18c0 35.333 -11.5 63.833 -34.5 85.5s-58.167 32.5 -105.5 32.5h-156v-256zM240.999 -112.999
c0 19.333 6.83398 35.834 20.501 49.501s30.167 20.5 49.5 20.5s35.833 -6.83301 49.5 -20.5s20.5 -30.167 20.5 -49.5v-98c0 -22.667 -7.16699 -41.334 -21.5 -56.001s-32.833 -22 -55.5 -22h-51v54h47c18 0 27 10 27 30v25c-5.33301 -2 -11 -3 -17 -3
c-18.667 0 -34.834 6.83301 -48.501 20.5s-20.5 30.167 -20.5 49.5z" />
    <glyph glyph-name="uni0157" unicode="&#x157;" 
d="M131 -123c0 19.333 6.83398 35.834 20.501 49.501s30.167 20.5 49.5 20.5s35.833 -6.83301 49.5 -20.5s20.5 -30.167 20.5 -49.5v-98c0 -22.667 -7.16699 -41.334 -21.5 -56.001s-32.833 -22 -55.5 -22h-51v54h47c18 0 27 10 27 30v25c-5.33301 -2 -11 -3 -17 -3
c-18.667 0 -34.834 6.83301 -48.501 20.5s-20.5 30.167 -20.5 49.5zM59.001 496.001l180 0.000976562v-66h12c12.667 27.333 30.667 47.5 54 60.5s50 19.5 80 19.5c50 0 90.333 -16.333 121 -49s47 -80.334 49 -143.001l-82 -12c0 46 -11 79.167 -33 99.5s-49 30.5 -81 30.5
c-20.667 0 -38.5 -4 -53.5 -12s-27.5 -19 -37.5 -33s-17.333 -30.333 -22 -49s-7 -38.667 -7 -60v-210h126v-72h-318v72h114v352h-102v72z" />
    <glyph glyph-name="Rcaron" unicode="&#x158;" 
d="M525 0h-84.001v234c0 17.333 -4 30.666 -12 39.999s-22 14 -42 14h-218v-288h-84v700h250c36 0 67.333 -5.16699 94 -15.5s48.834 -24.166 66.501 -41.499s31 -37.5 40 -60.5s13.5 -47.167 13.5 -72.5v-30c0 -26 -7.16699 -52 -21.5 -78s-36.5 -46 -66.5 -60v-12
c20 -3.33301 35.667 -11.333 47 -24s17 -30.667 17 -54v-252zM168.999 366l156 0.000976562c47.333 0 82.5 10.167 105.5 30.5s34.5 50.166 34.5 89.499v18c0 35.333 -11.5 63.833 -34.5 85.5s-58.167 32.5 -105.5 32.5h-156v-256zM419.999 892.001l-80 -118h-124l-80 118
h84l52 -88h12l52 88h84z" />
    <glyph glyph-name="rcaron" unicode="&#x159;" 
d="M59 496l180 0.000976562v-66h12c12.667 27.333 30.667 47.5 54 60.5s50 19.5 80 19.5c50 0 90.333 -16.333 121 -49s47 -80.334 49 -143.001l-82 -12c0 46 -11 79.167 -33 99.5s-49 30.5 -81 30.5c-20.667 0 -38.5 -4 -53.5 -12s-27.5 -19 -37.5 -33
s-17.333 -30.333 -22 -49s-7 -38.667 -7 -60v-210h126v-72h-318v72h114v352h-102v72zM440 688.001l-80 -118h-124l-80 118h84l52 -88h12l52 88h84z" />
    <glyph glyph-name="Sacute" unicode="&#x15a;" 
d="M471 498c0 22.667 -4.5 42.666 -13.5 59.999s-21.167 31.666 -36.5 42.999s-33 20 -53 26s-41 9 -63 9c-19.333 0 -37.666 -2.5 -54.999 -7.5s-32.833 -12.167 -46.5 -21.5s-24.5 -20.833 -32.5 -34.5s-12 -29.5 -12 -47.5v-6c0 -19.333 4 -35.833 12 -49.5
s19.833 -25.334 35.5 -35.001s35.167 -17.667 58.5 -24s50.666 -11.833 81.999 -16.5c73.333 -11.333 127.333 -32.833 162 -64.5s52 -74.167 52 -127.5v-12c0 -30 -5.16699 -57.5 -15.5 -82.5s-25.666 -46.5 -45.999 -64.5s-45.5 -32 -75.5 -42s-64.667 -15 -104 -15
c-44.667 0 -84.167 6.5 -118.5 19.5s-63 31 -86 54s-40.5 50 -52.5 81s-18 64.833 -18 101.5v30h84v-24c0 -61.333 16.833 -107.333 50.5 -138s80.5 -46 140.5 -46c52 0 91.167 11.5 117.5 34.5s39.5 53.5 39.5 91.5v6c0 36.667 -13.5 64.667 -40.5 84
s-70.833 33.333 -131.5 42c-35.333 4.66699 -67.166 11.834 -95.499 21.501s-52.5 22.334 -72.5 38.001s-35.333 34.5 -46 56.5s-16 48 -16 78v12c0 27.333 5.66699 52.333 17 75s27.166 42.334 47.499 59.001s44.666 29.5 72.999 38.5s59.5 13.5 93.5 13.5
c39.333 0 74.5 -5.66699 105.5 -17s57.167 -26.5 78.5 -45.5s37.5 -41.333 48.5 -67s16.5 -52.5 16.5 -80.5v-42h-84v36zM414 891.999l-84 -118h-72l66 118h90z" />
    <glyph glyph-name="sacute" unicode="&#x15b;" 
d="M190 368c0 -24 10.1641 -42.332 30.4971 -54.999s57.5 -21 111.5 -25c58 -4.66699 102.167 -18.5 132.5 -41.5s45.5 -56.5 45.5 -100.5v-6c0 -24 -4.83301 -45.5 -14.5 -64.5s-23 -35.167 -40 -48.5s-37.667 -23.5 -62 -30.5s-50.833 -10.5 -79.5 -10.5
c-38.667 0 -71.834 5.16699 -99.501 15.5s-50.667 24 -69 41s-32.166 36.333 -41.499 58s-14.666 43.5 -15.999 65.5l74 18c3.33301 -38 18 -68.5 44 -91.5s60.667 -34.5 104 -34.5c36.667 0 66.167 7.16699 88.5 21.5s33.5 34.5 33.5 60.5c0 28 -11 48 -33 60
s-57.667 19.667 -107 23c-57.333 4 -101.333 17.333 -132 40s-46 55.667 -46 99v6c0 23.333 5 43.833 15 61.5s23.5 32.5 40.5 44.5s36.167 21 57.5 27s43.666 9 66.999 9c32.667 0 61.334 -4.5 86.001 -13.5s45.334 -20.667 62.001 -35s29.5 -30.833 38.5 -49.5
s14.833 -37.334 17.5 -56.001l-74 -18c-3.33301 32 -16.166 57 -38.499 75s-51.5 27 -87.5 27c-14 0 -27.5 -1.5 -40.5 -4.5s-24.5 -7.5 -34.5 -13.5s-18 -13.5 -24 -22.5s-9 -19.5 -9 -31.5zM407.997 688.001l-84 -118h-72l66 118h90z" />
    <glyph glyph-name="Scircumflex" unicode="&#x15c;" 
d="M471 498c0 22.667 -4.5 42.666 -13.5 59.999s-21.167 31.666 -36.5 42.999s-33 20 -53 26s-41 9 -63 9c-19.333 0 -37.666 -2.5 -54.999 -7.5s-32.833 -12.167 -46.5 -21.5s-24.5 -20.833 -32.5 -34.5s-12 -29.5 -12 -47.5v-6c0 -19.333 4 -35.833 12 -49.5
s19.833 -25.334 35.5 -35.001s35.167 -17.667 58.5 -24s50.666 -11.833 81.999 -16.5c73.333 -11.333 127.333 -32.833 162 -64.5s52 -74.167 52 -127.5v-12c0 -30 -5.16699 -57.5 -15.5 -82.5s-25.666 -46.5 -45.999 -64.5s-45.5 -32 -75.5 -42s-64.667 -15 -104 -15
c-44.667 0 -84.167 6.5 -118.5 19.5s-63 31 -86 54s-40.5 50 -52.5 81s-18 64.833 -18 101.5v30h84v-24c0 -61.333 16.833 -107.333 50.5 -138s80.5 -46 140.5 -46c52 0 91.167 11.5 117.5 34.5s39.5 53.5 39.5 91.5v6c0 36.667 -13.5 64.667 -40.5 84
s-70.833 33.333 -131.5 42c-35.333 4.66699 -67.166 11.834 -95.499 21.501s-52.5 22.334 -72.5 38.001s-35.333 34.5 -46 56.5s-16 48 -16 78v12c0 27.333 5.66699 52.333 17 75s27.166 42.334 47.499 59.001s44.666 29.5 72.999 38.5s59.5 13.5 93.5 13.5
c39.333 0 74.5 -5.66699 105.5 -17s57.167 -26.5 78.5 -45.5s37.5 -41.333 48.5 -67s16.5 -52.5 16.5 -80.5v-42h-84v36zM364 773.999l-52 88h-12l-52 -88h-84l80 118h124l80 -118h-84z" />
    <glyph glyph-name="scircumflex" unicode="&#x15d;" 
d="M190 368c0 -24 10.1641 -42.332 30.4971 -54.999s57.5 -21 111.5 -25c58 -4.66699 102.167 -18.5 132.5 -41.5s45.5 -56.5 45.5 -100.5v-6c0 -24 -4.83301 -45.5 -14.5 -64.5s-23 -35.167 -40 -48.5s-37.667 -23.5 -62 -30.5s-50.833 -10.5 -79.5 -10.5
c-38.667 0 -71.834 5.16699 -99.501 15.5s-50.667 24 -69 41s-32.166 36.333 -41.499 58s-14.666 43.5 -15.999 65.5l74 18c3.33301 -38 18 -68.5 44 -91.5s60.667 -34.5 104 -34.5c36.667 0 66.167 7.16699 88.5 21.5s33.5 34.5 33.5 60.5c0 28 -11 48 -33 60
s-57.667 19.667 -107 23c-57.333 4 -101.333 17.333 -132 40s-46 55.667 -46 99v6c0 23.333 5 43.833 15 61.5s23.5 32.5 40.5 44.5s36.167 21 57.5 27s43.666 9 66.999 9c32.667 0 61.334 -4.5 86.001 -13.5s45.334 -20.667 62.001 -35s29.5 -30.833 38.5 -49.5
s14.833 -37.334 17.5 -56.001l-74 -18c-3.33301 32 -16.166 57 -38.499 75s-51.5 27 -87.5 27c-14 0 -27.5 -1.5 -40.5 -4.5s-24.5 -7.5 -34.5 -13.5s-18 -13.5 -24 -22.5s-9 -19.5 -9 -31.5zM352.997 570.001l-52 88h-12l-52 -88h-84l80 118h124l80 -118h-84z" />
    <glyph glyph-name="Scedilla" unicode="&#x15e;" 
d="M471 498c0 22.667 -4.50195 42.665 -13.502 59.998s-21.167 31.666 -36.5 42.999s-33 20 -53 26s-41 9 -63 9c-19.333 0 -37.666 -2.5 -54.999 -7.5s-32.833 -12.167 -46.5 -21.5s-24.5 -20.833 -32.5 -34.5s-12 -29.5 -12 -47.5v-6c0 -19.333 4 -35.833 12 -49.5
s19.833 -25.334 35.5 -35.001s35.167 -17.667 58.5 -24s50.666 -11.833 81.999 -16.5c73.333 -11.333 127.333 -32.833 162 -64.5s52 -74.167 52 -127.5v-12c0 -30 -5.16699 -57.5 -15.5 -82.5s-25.666 -46.5 -45.999 -64.5s-45.5 -32 -75.5 -42s-64.667 -15 -104 -15h-8
l-12 -54h6c8.66699 21.333 26.667 32 54 32c23.333 0 41.833 -8.33301 55.5 -25s20.5 -36.667 20.5 -60c0 -28 -9 -50.167 -27 -66.5s-40 -24.5 -66 -24.5c-28.667 0 -50.667 6.66699 -66 20s-25.666 30 -30.999 50l48 18c2 -10 6.83301 -19.167 14.5 -27.5
s18.834 -12.5 33.501 -12.5c10 0 19.167 3.33301 27.5 10s12.5 17.334 12.5 32.001c0 12 -3.5 21.333 -10.5 28s-15.167 10 -24.5 10c-12 0 -20.333 -4.66699 -25 -14h-76v6l18 82c-36 5.33301 -67.5 15.333 -94.5 30s-49.833 33 -68.5 55s-32.667 47.167 -42 75.5
s-14 58.833 -14 91.5v30h84v-24c0 -61.333 16.833 -107.333 50.5 -138s80.5 -46 140.5 -46c52 0 91.167 11.5 117.5 34.5s39.5 53.5 39.5 91.5v6c0 36.667 -13.5 64.667 -40.5 84s-70.833 33.333 -131.5 42c-35.333 4.66699 -67.166 11.834 -95.499 21.501
s-52.5 22.334 -72.5 38.001s-35.333 34.5 -46 56.5s-16 48 -16 78v12c0 27.333 5.66699 52.333 17 75s27.166 42.334 47.499 59.001s44.666 29.5 72.999 38.5s59.5 13.5 93.5 13.5c39.333 0 74.5 -5.66699 105.5 -17s57.167 -26.5 78.5 -45.5s37.5 -41.333 48.5 -67
s16.5 -52.5 16.5 -80.5v-42h-84v36z" />
    <glyph glyph-name="scedilla" unicode="&#x15f;" 
d="M190 368c0 -24 10.1641 -42.334 30.4971 -55.001s57.5 -21 111.5 -25c58 -4.66699 102.167 -18.5 132.5 -41.5s45.5 -56.5 45.5 -100.5v-6c0 -24 -4.83301 -45.5 -14.5 -64.5s-23 -35.167 -40 -48.5s-37.667 -23.5 -62 -30.5s-50.833 -10.5 -79.5 -10.5h-8l-12 -54h6
c8.66699 21.333 26.667 32 54 32c23.333 0 41.833 -8.33301 55.5 -25s20.5 -36.667 20.5 -60c0 -28 -9 -50.167 -27 -66.5s-40 -24.5 -66 -24.5c-28.667 0 -50.667 6.66699 -66 20s-25.666 30 -30.999 50l48 18c2 -10 6.83301 -19.167 14.5 -27.5s18.834 -12.5 33.501 -12.5
c10 0 19.167 3.33301 27.5 10s12.5 17.334 12.5 32.001c0 12 -3.5 21.333 -10.5 28s-15.167 10 -24.5 10c-12 0 -20.333 -4.66699 -25 -14h-76v6l18 83c-28.667 4.66699 -53.334 12.834 -74.001 24.501s-38 25.5 -52 41.5s-24.5 33.333 -31.5 52s-11.167 37.667 -12.5 57
l74 18c3.33301 -38 18 -68.5 44 -91.5s60.667 -34.5 104 -34.5c36.667 0 66.167 7.16699 88.5 21.5s33.5 34.5 33.5 60.5c0 28 -11 48 -33 60s-57.667 19.667 -107 23c-57.333 4 -101.333 17.333 -132 40s-46 55.667 -46 99v6c0 23.333 5 43.833 15 61.5
s23.5 32.5 40.5 44.5s36.167 21 57.5 27s43.666 9 66.999 9c32.667 0 61.334 -4.5 86.001 -13.5s45.334 -20.667 62.001 -35s29.5 -30.833 38.5 -49.5s14.833 -37.334 17.5 -56.001l-74 -18c-3.33301 32 -16.166 57 -38.499 75s-51.5 27 -87.5 27
c-14 0 -27.5 -1.5 -40.5 -4.5s-24.5 -7.5 -34.5 -13.5s-18 -13.5 -24 -22.5s-9 -19.5 -9 -31.5z" />
    <glyph glyph-name="Scaron" unicode="&#x160;" 
d="M471 498c0 22.667 -4.5 42.666 -13.5 59.999s-21.167 31.666 -36.5 42.999s-33 20 -53 26s-41 9 -63 9c-19.333 0 -37.666 -2.5 -54.999 -7.5s-32.833 -12.167 -46.5 -21.5s-24.5 -20.833 -32.5 -34.5s-12 -29.5 -12 -47.5v-6c0 -19.333 4 -35.833 12 -49.5
s19.833 -25.334 35.5 -35.001s35.167 -17.667 58.5 -24s50.666 -11.833 81.999 -16.5c73.333 -11.333 127.333 -32.833 162 -64.5s52 -74.167 52 -127.5v-12c0 -30 -5.16699 -57.5 -15.5 -82.5s-25.666 -46.5 -45.999 -64.5s-45.5 -32 -75.5 -42s-64.667 -15 -104 -15
c-44.667 0 -84.167 6.5 -118.5 19.5s-63 31 -86 54s-40.5 50 -52.5 81s-18 64.833 -18 101.5v30h84v-24c0 -61.333 16.833 -107.333 50.5 -138s80.5 -46 140.5 -46c52 0 91.167 11.5 117.5 34.5s39.5 53.5 39.5 91.5v6c0 36.667 -13.5 64.667 -40.5 84
s-70.833 33.333 -131.5 42c-35.333 4.66699 -67.166 11.834 -95.499 21.501s-52.5 22.334 -72.5 38.001s-35.333 34.5 -46 56.5s-16 48 -16 78v12c0 27.333 5.66699 52.333 17 75s27.166 42.334 47.499 59.001s44.666 29.5 72.999 38.5s59.5 13.5 93.5 13.5
c39.333 0 74.5 -5.66699 105.5 -17s57.167 -26.5 78.5 -45.5s37.5 -41.333 48.5 -67s16.5 -52.5 16.5 -80.5v-42h-84v36zM450 891.999l-80 -118h-124l-80 118h84l52 -88h12l52 88h84z" />
    <glyph glyph-name="scaron" unicode="&#x161;" 
d="M190 368c0 -24 10.1641 -42.332 30.4971 -54.999s57.5 -21 111.5 -25c58 -4.66699 102.167 -18.5 132.5 -41.5s45.5 -56.5 45.5 -100.5v-6c0 -24 -4.83301 -45.5 -14.5 -64.5s-23 -35.167 -40 -48.5s-37.667 -23.5 -62 -30.5s-50.833 -10.5 -79.5 -10.5
c-38.667 0 -71.834 5.16699 -99.501 15.5s-50.667 24 -69 41s-32.166 36.333 -41.499 58s-14.666 43.5 -15.999 65.5l74 18c3.33301 -38 18 -68.5 44 -91.5s60.667 -34.5 104 -34.5c36.667 0 66.167 7.16699 88.5 21.5s33.5 34.5 33.5 60.5c0 28 -11 48 -33 60
s-57.667 19.667 -107 23c-57.333 4 -101.333 17.333 -132 40s-46 55.667 -46 99v6c0 23.333 5 43.833 15 61.5s23.5 32.5 40.5 44.5s36.167 21 57.5 27s43.666 9 66.999 9c32.667 0 61.334 -4.5 86.001 -13.5s45.334 -20.667 62.001 -35s29.5 -30.833 38.5 -49.5
s14.833 -37.334 17.5 -56.001l-74 -18c-3.33301 32 -16.166 57 -38.499 75s-51.5 27 -87.5 27c-14 0 -27.5 -1.5 -40.5 -4.5s-24.5 -7.5 -34.5 -13.5s-18 -13.5 -24 -22.5s-9 -19.5 -9 -31.5zM441.997 688.001l-80 -118h-124l-80 118h84l52 -88h12l52 88h84z" />
    <glyph glyph-name="uni0162" unicode="&#x162;" 
d="M264 0l-0.00195312 621.999h-204v78h492v-78h-204v-622h-17l-15 -68h6c8.66699 21.333 26.667 32 54 32c23.333 0 41.833 -8.33301 55.5 -25s20.5 -36.667 20.5 -60c0 -28 -9 -50.167 -27 -66.5s-40 -24.5 -66 -24.5c-28.667 0 -50.667 6.66699 -66 20
s-25.666 30 -30.999 50l48 18c2 -10 6.83301 -19.167 14.5 -27.5s18.834 -12.5 33.501 -12.5c10 0 19.167 3.33301 27.5 10s12.5 17.334 12.5 32.001c0 12 -3.5 21.333 -10.5 28s-15.167 10 -24.5 10c-12 0 -20.333 -4.66699 -25 -14h-76v6l20 92h-18z" />
    <glyph glyph-name="uni0163" unicode="&#x163;" 
d="M303 0c-22.667 0 -41.1689 7.33105 -55.502 21.998s-21.5 33.334 -21.5 56.001v346h-156v72h156v204h78v-204h192v-72h-192v-322c0 -20 9 -30 27 -30h141v-72h-120l-15 -68h6c8.66699 21.333 26.667 32 54 32c23.333 0 41.833 -8.33301 55.5 -25s20.5 -36.667 20.5 -60
c0 -28 -9 -50.167 -27 -66.5s-40 -24.5 -66 -24.5c-28.667 0 -50.667 6.66699 -66 20s-25.666 30 -30.999 50l48 18c2 -10 6.83301 -19.167 14.5 -27.5s18.834 -12.5 33.501 -12.5c10 0 19.167 3.33301 27.5 10s12.5 17.334 12.5 32.001c0 12 -3.5 21.333 -10.5 28
s-15.167 10 -24.5 10c-12 0 -20.333 -4.66699 -25 -14h-76v6z" />
    <glyph glyph-name="Tcaron" unicode="&#x164;" 
d="M60 700h492v-78h-204v-622h-84v622h-204v78zM448 892l-80 -118h-124l-80 118h84l52 -88h12l52 88h84z" />
    <glyph glyph-name="tcaron" unicode="&#x165;" 
d="M70 496l156 -0.000976562v204h78v-204h72v-72h-72v-322c0 -20 9 -30 27 -30h141v-72h-169c-22.667 0 -41.167 7.33301 -55.5 22s-21.5 33.334 -21.5 56.001v346h-156v72zM394 629.999c0 19.333 6.83398 35.834 20.501 49.501s30.167 20.5 49.5 20.5
s35.833 -6.83301 49.5 -20.5s20.5 -30.167 20.5 -49.5v-128c0 -22.667 -7.16699 -41.334 -21.5 -56.001s-32.833 -22 -55.5 -22h-51v54h47c18 0 27 10 27 30v55c-5.33301 -2 -11 -3 -17 -3c-18.667 0 -34.834 6.83301 -48.501 20.5s-20.5 30.167 -20.5 49.5z" />
    <glyph glyph-name="Tbar" unicode="&#x166;" 
d="M60 700h492v-78h-204v-194h156v-78h-156v-350h-84v350h-156v78h156v194h-204v78z" />
    <glyph glyph-name="tbar" unicode="&#x167;" 
d="M70 496l156 -0.000976562v204h78v-204h192v-72h-192v-74h156v-72h-156v-176c0 -20 9 -30 27 -30h141v-72h-169c-22.667 0 -41.167 7.33301 -55.5 22s-21.5 33.334 -21.5 56.001v200h-120v72h120v74h-156v72z" />
    <glyph glyph-name="Utilde" unicode="&#x168;" 
d="M150 700l0.00390625 -464c0 -56.667 13.167 -99.5 39.5 -128.5s65.166 -43.5 116.499 -43.5s90.166 14.5 116.499 43.5s39.5 71.833 39.5 128.5v464h84v-464c0 -81.333 -21.333 -143.333 -64 -186s-101.334 -64 -176.001 -64s-133.334 21.333 -176.001 64
s-64 104.667 -64 186v464h84zM373.004 846c3.33301 -6.66699 6.66699 -11.667 10 -15s8 -5 14 -5c6.66699 0 13 3.33301 19 10l48 55l49 -42l-41 -49c-9.33301 -11.333 -20.333 -21.166 -33 -29.499s-27.667 -12.5 -45 -12.5c-20.667 0 -36.5 4.66699 -47.5 14
s-22.167 24.333 -33.5 45c-4.66699 8 -8.5 13.667 -11.5 17s-7.16699 5 -12.5 5c-7.33301 0 -14.666 -4 -21.999 -12l-46 -53l-49 42l41 49c9.33301 11.333 20.333 21.166 33 29.499s28 12.5 46 12.5c19.333 0 34.666 -4.83301 45.999 -14.5s23 -25.167 35 -46.5z" />
    <glyph glyph-name="utilde" unicode="&#x169;" 
d="M441 496h78v-496h-78v90h-12c-16 -32 -37 -57.333 -63 -76s-59 -28 -99 -28c-27.333 0 -52.5 4.5 -75.5 13.5s-42.667 22.5 -59 40.5s-29 40.333 -38 67s-13.5 57.667 -13.5 93v296h78v-286c0 -52 10.667 -90 32 -114s54 -36 98 -36c47.333 0 84.5 16.167 111.5 48.5
s40.5 75.5 40.5 129.5v258zM338 639c3.33301 -6.66699 6.66699 -11.667 10 -15s8 -5 14 -5c6.66699 0 13 3.33301 19 10l48 55l49 -42l-41 -49c-9.33301 -11.333 -20.333 -21.166 -33 -29.499s-27.667 -12.5 -45 -12.5c-20.667 0 -36.5 4.66699 -47.5 14
s-22.167 24.333 -33.5 45c-4.66699 8 -8.5 13.667 -11.5 17s-7.16699 5 -12.5 5c-7.33301 0 -14.666 -4 -21.999 -12l-46 -53l-49 42l41 49c9.33301 11.333 20.333 21.166 33 29.499s28 12.5 46 12.5c19.333 0 34.666 -4.83301 45.999 -14.5s23 -25.167 35 -46.5z" />
    <glyph glyph-name="Umacron" unicode="&#x16a;" 
d="M150 700l0.00390625 -464c0 -56.667 13.167 -99.5 39.5 -128.5s65.166 -43.5 116.499 -43.5s90.166 14.5 116.499 43.5s39.5 71.833 39.5 128.5v464h84v-464c0 -81.333 -21.333 -143.333 -64 -186s-101.334 -64 -176.001 -64s-133.334 21.333 -176.001 64
s-64 104.667 -64 186v464h84zM447.004 774h-282v66h282v-66z" />
    <glyph glyph-name="umacron" unicode="&#x16b;" 
d="M441 496h78v-496h-78v90h-12c-16 -32 -37 -57.333 -63 -76s-59 -28 -99 -28c-27.333 0 -52.5 4.5 -75.5 13.5s-42.667 22.5 -59 40.5s-29 40.333 -38 67s-13.5 57.667 -13.5 93v296h78v-286c0 -52 10.667 -90 32 -114s54 -36 98 -36c47.333 0 84.5 16.167 111.5 48.5
s40.5 75.5 40.5 129.5v258zM442 570h-282v66h282v-66z" />
    <glyph glyph-name="Ubreve" unicode="&#x16c;" 
d="M150 700l0.00390625 -464c0 -56.667 13.167 -99.5 39.5 -128.5s65.166 -43.5 116.499 -43.5s90.166 14.5 116.499 43.5s39.5 71.833 39.5 128.5v464h84v-464c0 -81.333 -21.333 -143.333 -64 -186s-101.334 -64 -176.001 -64s-133.334 21.333 -176.001 64
s-64 104.667 -64 186v464h84zM414.004 892l-0.00390625 -10c0 -32 -9.66699 -58 -29 -78s-45.666 -30 -78.999 -30s-59.666 10 -78.999 30s-29 46 -29 78v10h69v-12c0 -10.667 3.33301 -19.834 10 -27.501s16.334 -11.5 29.001 -11.5s22.334 3.83301 29.001 11.5
s10 16.834 10 27.501v12h69z" />
    <glyph glyph-name="ubreve" unicode="&#x16d;" 
d="M441 496h78v-496h-78v90h-12c-16 -32 -37 -57.333 -63 -76s-59 -28 -99 -28c-27.333 0 -52.5 4.5 -75.5 13.5s-42.667 22.5 -59 40.5s-29 40.333 -38 67s-13.5 57.667 -13.5 93v296h78v-286c0 -52 10.667 -90 32 -114s54 -36 98 -36c47.333 0 84.5 16.167 111.5 48.5
s40.5 75.5 40.5 129.5v258zM409 688l-0.00390625 -10c0 -32 -9.66699 -58 -29 -78s-45.666 -30 -78.999 -30s-59.666 10 -78.999 30s-29 46 -29 78v10h69v-12c0 -10.667 3.33301 -19.834 10 -27.501s16.334 -11.5 29.001 -11.5s22.334 3.83301 29.001 11.5
s10 16.834 10 27.501v12h69z" />
    <glyph glyph-name="Uring" unicode="&#x16e;" 
d="M150 700l0.00390625 -464c0 -56.667 13.167 -99.5 39.5 -128.5s65.166 -43.5 116.499 -43.5s90.166 14.5 116.499 43.5s39.5 71.833 39.5 128.5v464h84v-464c0 -81.333 -21.333 -143.333 -64 -186s-101.334 -64 -176.001 -64s-133.334 21.333 -176.001 64
s-64 104.667 -64 186v464h84zM204.004 872c0 28.667 9.83301 52.834 29.5 72.501s43.834 29.5 72.501 29.5s52.834 -9.83301 72.501 -29.5s29.5 -43.834 29.5 -72.501s-9.83301 -52.834 -29.5 -72.501s-43.834 -29.5 -72.501 -29.5s-52.834 9.83301 -72.501 29.5
s-29.5 43.834 -29.5 72.501zM264.004 872c0 -12 4 -22 12 -30s18 -12 30 -12s22 4 30 12s12 18 12 30s-4 22 -12 30s-18 12 -30 12s-22 -4 -30 -12s-12 -18 -12 -30z" />
    <glyph glyph-name="uring" unicode="&#x16f;" 
d="M441 496h78v-496h-78v90h-12c-16 -32 -37 -57.333 -63 -76s-59 -28 -99 -28c-27.333 0 -52.5 4.5 -75.5 13.5s-42.667 22.5 -59 40.5s-29 40.333 -38 67s-13.5 57.667 -13.5 93v296h78v-286c0 -52 10.667 -90 32 -114s54 -36 98 -36c47.333 0 84.5 16.167 111.5 48.5
s40.5 75.5 40.5 129.5v258zM199 672c0 28.667 9.83301 52.834 29.5 72.501s43.834 29.5 72.501 29.5s52.834 -9.83301 72.501 -29.5s29.5 -43.834 29.5 -72.501s-9.83301 -52.834 -29.5 -72.501s-43.834 -29.5 -72.501 -29.5s-52.834 9.83301 -72.501 29.5
s-29.5 43.834 -29.5 72.501zM259 672c0 -12 4 -22 12 -30s18 -12 30 -12s22 4 30 12s12 18 12 30s-4 22 -12 30s-18 12 -30 12s-22 -4 -30 -12s-12 -18 -12 -30z" />
    <glyph glyph-name="Uhungarumlaut" unicode="&#x170;" 
d="M150 700l0.00390625 -464c0 -56.667 13.167 -99.5 39.5 -128.5s65.166 -43.5 116.499 -43.5s90.166 14.5 116.499 43.5s39.5 71.833 39.5 128.5v464h84v-464c0 -81.333 -21.333 -143.333 -64 -186s-101.334 -64 -176.001 -64s-133.334 21.333 -176.001 64
s-64 104.667 -64 186v464h84zM344.004 892l-84 -118h-72l66 118h90zM488.004 892l-84 -118h-72l66 118h90z" />
    <glyph glyph-name="uhungarumlaut" unicode="&#x171;" 
d="M441 496h78v-496h-78v90h-12c-16 -32 -37 -57.333 -63 -76s-59 -28 -99 -28c-27.333 0 -52.5 4.5 -75.5 13.5s-42.667 22.5 -59 40.5s-29 40.333 -38 67s-13.5 57.667 -13.5 93v296h78v-286c0 -52 10.667 -90 32 -114s54 -36 98 -36c47.333 0 84.5 16.167 111.5 48.5
s40.5 75.5 40.5 129.5v258zM345 688l-84 -118h-72l66 118h90zM489 688l-84 -118h-72l66 118h90z" />
    <glyph glyph-name="Uogonek" unicode="&#x172;" 
d="M150 700l0.000976562 -464c0 -56.667 13.167 -99.5 39.5 -128.5s65.166 -43.5 116.499 -43.5s90.166 14.5 116.499 43.5s39.5 71.833 39.5 128.5v464h84v-464c0 -75.333 -18.5 -134 -55.5 -176s-87.833 -66 -152.5 -72l-13 -56c-0.666992 -3.33301 -1 -6 -1 -8
c0 -14.667 7.66699 -22 23 -22h42v-66h-56c-19.333 0 -37.166 6.16699 -53.499 18.5s-24.5 30.833 -24.5 55.5c0 6 1 14 3 24l12 54c-64 6.66699 -114 31 -150 73s-54 100.333 -54 175v464h84z" />
    <glyph glyph-name="uogonek" unicode="&#x173;" 
d="M441 496h77.999v-496h-29l-16 -68c-0.666992 -3.33301 -1 -6 -1 -8c0 -14.667 7.66699 -22 23 -22h42v-66h-56c-19.333 0 -37.166 6.16699 -53.499 18.5s-24.5 30.833 -24.5 55.5c0 6 1 14 3 24l34 156h-12c-16 -32 -37 -57.333 -63 -76s-59 -28 -99 -28
c-27.333 0 -52.5 4.5 -75.5 13.5s-42.667 22.5 -59 40.5s-29 40.333 -38 67s-13.5 57.667 -13.5 93v296h78v-286c0 -52 10.667 -90 32 -114s54 -36 98 -36c47.333 0 84.5 16.167 111.5 48.5s40.5 75.5 40.5 129.5v258z" />
    <glyph glyph-name="Wcircumflex" unicode="&#x174;" 
d="M530 0h-153l-65 664h-12l-65 -664h-153l-71 700h76l67 -664h12l63 664h154l63 -664h12l67 664h76zM364 774l-52 88h-12l-52 -88h-84l80 118h124l80 -118h-84z" />
    <glyph glyph-name="wcircumflex" unicode="&#x175;" 
d="M516 0h-144l-60 460h-12l-60 -460h-144l-78 496h80l66 -460h12l58 460h144l58 -460h12l66 460h80zM364 570l-52 88h-12l-52 -88h-84l80 118h124l80 -118h-84z" />
    <glyph glyph-name="Ycircumflex" unicode="&#x176;" 
d="M264 246h-18l-219 454h94l179 -382h12l179 382h94l-219 -454h-18v-246h-84v246zM364 774l-52 88h-12l-52 -88h-84l80 118h124l80 -118h-84z" />
    <glyph glyph-name="ycircumflex" unicode="&#x177;" 
d="M447 90l-12 0.000976562c-16 -32 -37 -57.333 -63 -76s-59 -28 -99 -28c-27.333 0 -52.5 4.5 -75.5 13.5s-42.667 22.5 -59 40.5s-29 40.333 -38 67s-13.5 57.667 -13.5 93v296h78v-286c0 -52 10.667 -90 32 -114s54 -36 98 -36c47.333 0 84.5 16.167 111.5 48.5
s40.5 75.5 40.5 129.5v258h78v-618c0 -22.667 -7.16699 -41.334 -21.5 -56.001s-32.833 -22 -55.5 -22h-283v72h255c18 0 27 10 27 30v188zM364 570.001l-52 88h-12l-52 -88h-84l80 118h124l80 -118h-84z" />
    <glyph glyph-name="Ydieresis" unicode="&#x178;" 
d="M264 246h-18l-219 454h94l179 -382h12l179 382h94l-219 -454h-18v-246h-84v246zM136 848c0 19.333 6.83301 35.833 20.5 49.5s30.167 20.5 49.5 20.5s35.833 -6.83301 49.5 -20.5s20.5 -30.167 20.5 -49.5s-6.83301 -35.833 -20.5 -49.5s-30.167 -20.5 -49.5 -20.5
s-35.833 6.83301 -49.5 20.5s-20.5 30.167 -20.5 49.5zM336 848c0 19.333 6.83301 35.833 20.5 49.5s30.167 20.5 49.5 20.5s35.833 -6.83301 49.5 -20.5s20.5 -30.167 20.5 -49.5s-6.83301 -35.833 -20.5 -49.5s-30.167 -20.5 -49.5 -20.5s-35.833 6.83301 -49.5 20.5
s-20.5 30.167 -20.5 49.5z" />
    <glyph glyph-name="Zacute" unicode="&#x179;" 
d="M77 700h468v-126l-420 -484v-12h432v-78h-504v126l420 484v12h-396v78zM423 892l-84 -118h-72l66 118h90z" />
    <glyph glyph-name="zacute" unicode="&#x17a;" 
d="M523 72v-72h-432v124l354 288v12h-348v72h414v-120l-356 -292v-12h368zM419 688l-84 -118h-72l66 118h90z" />
    <glyph glyph-name="Zdotaccent" unicode="&#x17b;" 
d="M77 700h468v-126l-420 -484v-12h432v-78h-504v126l420 484v12h-396v78zM248 848c0 19.333 6.83301 35.833 20.5 49.5s30.167 20.5 49.5 20.5s35.833 -6.83301 49.5 -20.5s20.5 -30.167 20.5 -49.5s-6.83301 -35.833 -20.5 -49.5s-30.167 -20.5 -49.5 -20.5
s-35.833 6.83301 -49.5 20.5s-20.5 30.167 -20.5 49.5z" />
    <glyph glyph-name="zdotaccent" unicode="&#x17c;" 
d="M523 72v-72h-432v124l354 288v12h-348v72h414v-120l-356 -292v-12h368zM236 644c0 19.333 6.83301 35.833 20.5 49.5s30.167 20.5 49.5 20.5s35.833 -6.83301 49.5 -20.5s20.5 -30.167 20.5 -49.5s-6.83301 -35.833 -20.5 -49.5s-30.167 -20.5 -49.5 -20.5
s-35.833 6.83301 -49.5 20.5s-20.5 30.167 -20.5 49.5z" />
    <glyph glyph-name="Zcaron" unicode="&#x17d;" 
d="M77 700h468v-126l-420 -484v-12h432v-78h-504v126l420 484v12h-396v78zM459 892l-80 -118h-124l-80 118h84l52 -88h12l52 88h84z" />
    <glyph glyph-name="zcaron" unicode="&#x17e;" 
d="M523 72v-72h-432v124l354 288v12h-348v72h414v-120l-356 -292v-12h368zM450 688l-80 -118h-124l-80 118h84l52 -88h12l52 88h84z" />
    <glyph glyph-name="longs" unicode="&#x17f;" 
d="M180 496l60 -0.000976562v126c0 22.667 7.16699 41.334 21.5 56.001s32.833 22 55.5 22h196v-72h-168c-18 0 -27 -10 -27 -30v-598h-78v424h-60v72z" />
    <glyph glyph-name="uni0180" unicode="&#x180;" 
d="M9 634l60.001 -0.00390625v66h78v-66h178v-72h-178v-144h12c17.333 30 41.333 52.833 72 68.5s64 23.5 100 23.5c30.667 0 59.667 -5.66699 87 -17s51.5 -27.666 72.5 -48.999s37.667 -47.666 50 -78.999s18.5 -67 18.5 -107v-20c0 -40.667 -6 -76.667 -18 -108
s-28.5 -57.666 -49.5 -78.999s-45.5 -37.5 -73.5 -48.5s-57.667 -16.5 -89 -16.5c-16 0 -32.333 1.83301 -49 5.5s-32.5 9.33398 -47.5 17.001s-28.833 17 -41.5 28s-23.334 24.167 -32.001 39.5h-12v-76h-78v562h-60v72zM313.001 59.9961
c24 0 45.999 4.16406 65.999 12.4971s37.5 20.166 52.5 35.499s26.667 34 35 56s12.5 46.667 12.5 74v20c0 26.667 -4.16699 50.834 -12.5 72.501s-20 40.334 -35 56.001s-32.667 27.834 -53 36.501s-42.166 13 -65.499 13s-45 -4.5 -65 -13.5s-37.5 -21.5 -52.5 -37.5
s-26.833 -35.167 -35.5 -57.5s-13 -46.833 -13 -73.5v-12c0 -27.333 4.33301 -52.166 13 -74.499s20.5 -41.5 35.5 -57.5s32.5 -28.333 52.5 -37s41.667 -13 65 -13z" />
    <glyph glyph-name="uni018F" unicode="&#x18f;" 
d="M60 362l408.001 0.000976562v60c0 32 -3.33301 61.167 -10 87.5s-16.834 49 -30.501 68s-30.667 33.833 -51 44.5s-43.833 16 -70.5 16c-28.667 0 -53.167 -5 -73.5 -15s-37 -23.167 -50 -39.5s-22.5 -35.333 -28.5 -57s-9.33301 -43.834 -10 -66.501v-12h-84v12
c0 35.333 5.33301 68.5 16 99.5s26.334 58 47.001 81s46.334 41 77.001 54s66 19.5 106 19.5c77.333 0 137.666 -25 180.999 -75s65 -120.333 65 -211v-156c0 -93.333 -21.667 -164.333 -65 -213s-103.666 -73 -180.999 -73c-40 0 -75.333 6.5 -106 19.5
s-56.334 31 -77.001 54s-36.334 50 -47.001 81s-16 64.167 -16 99.5v122zM306.001 62.001c54 0 94.5 18.8301 121.5 56.4971s40.5 90.834 40.5 159.501v6h-324v-44c0 -23.333 3.16699 -45.666 9.5 -66.999s16 -40.166 29 -56.499s29.667 -29.5 50 -39.5s44.833 -15 73.5 -15
z" />
    <glyph glyph-name="florin" unicode="&#x192;" 
d="M267 438v82c0 22.667 7.16699 41.334 21.5 56.001s32.833 22 55.5 22h142v-72h-114c-18 0 -27 -10 -27 -30v-58h90v-72h-90v-186c0 -22.667 -7.16699 -41.334 -21.5 -56.001s-32.833 -22 -55.5 -22h-142v72h114c18 0 27 10 27 30v162h-90v72h90z" />
    <glyph glyph-name="uni01A0" unicode="&#x1a0;" 
d="M38 476c0 75.333 17.6699 133.834 53.0029 175.501s85.666 62.5 150.999 62.5c60.667 0 108.334 -18 143.001 -54s54.667 -86.667 60 -152h67c18 0 27 10 27 30v25c-5.33301 -2 -11 -3 -17 -3c-18.667 0 -34.834 6.83301 -48.501 20.5s-20.5 30.167 -20.5 49.5
s6.83301 35.833 20.5 49.5s30.167 20.5 49.5 20.5s35.833 -6.83301 49.5 -20.5s20.5 -30.167 20.5 -49.5v-98c0 -22.667 -7.16699 -41.334 -21.5 -56.001s-32.833 -22 -55.5 -22h-70v-236c0 -77.333 -17.833 -135.333 -53.5 -174s-85.834 -58 -150.501 -58
s-114.834 19.333 -150.501 58s-53.5 96.667 -53.5 174v258zM242.003 62.001c41.333 0 71.668 13.167 91.001 39.5s29 67.166 29 122.499v252c0 51.333 -9.5 91.166 -28.5 119.499s-49.5 42.5 -91.5 42.5s-72.5 -14.167 -91.5 -42.5s-28.5 -68.166 -28.5 -119.499v-252
c0 -55.333 9.66699 -96.166 29 -122.499s49.666 -39.5 90.999 -39.5z" />
    <glyph glyph-name="uni01A1" unicode="&#x1a1;" 
d="M466 426c0 19.333 6.8291 35.834 20.4961 49.501s30.167 20.5 49.5 20.5s35.833 -6.83301 49.5 -20.5s20.5 -30.167 20.5 -49.5v-98c0 -22.667 -7.16699 -41.334 -21.5 -56.001s-32.833 -22 -55.5 -22h-63v-8c0 -40.667 -5.16699 -76.834 -15.5 -108.501
s-24.666 -58.5 -42.999 -80.5s-40.666 -38.667 -66.999 -50s-55.5 -17 -87.5 -17s-61.167 5.66699 -87.5 17s-48.666 28 -66.999 50s-32.666 48.833 -42.999 80.5s-15.5 67.834 -15.5 108.501v12c0 40 5.16699 75.833 15.5 107.5s24.833 58.5 43.5 80.5s41 38.833 67 50.5
s55 17.5 87 17.5c56.667 0 103.834 -18 141.501 -54s60.5 -86.667 68.5 -152h62c18 0 27 10 27 30v25c-5.33301 -2 -11 -3 -17 -3c-18.667 0 -34.834 6.83301 -48.501 20.5s-20.5 30.167 -20.5 49.5zM252.996 60.001c44.667 0 78 16.167 100 48.5s33 76.833 33 133.5v12
c0 54 -11.167 97.833 -33.5 131.5s-55.5 50.5 -99.5 50.5s-77.167 -16.833 -99.5 -50.5s-33.5 -77.5 -33.5 -131.5v-12c0 -56.667 11 -101.167 33 -133.5s55.333 -48.5 100 -48.5z" />
    <glyph glyph-name="uni01AF" unicode="&#x1af;" 
d="M124 700l0.000976562 -493.999c0 -51.333 9.66699 -88.166 29 -110.499s47.666 -33.5 84.999 -33.5s65.666 11.167 84.999 33.5s29 59.166 29 110.499v494h84v-192h95c18 0 27 10 27 30v25c-5.33301 -2 -11 -3 -17 -3c-18.667 0 -34.834 6.83301 -48.501 20.5
s-20.5 30.167 -20.5 49.5s6.83301 35.833 20.5 49.5s30.167 20.5 49.5 20.5s35.833 -6.83301 49.5 -20.5s20.5 -30.167 20.5 -49.5v-98c0 -22.667 -7.16699 -41.334 -21.5 -56.001s-32.833 -22 -55.5 -22h-99v-252c0 -73.333 -17.167 -127.666 -51.5 -162.999
s-83.166 -53 -146.499 -53s-112.166 17.667 -146.499 53s-51.5 89.666 -51.5 162.999v498h84z" />
    <glyph glyph-name="uni01B0" unicode="&#x1b0;" 
d="M352 496h78.0029v-192h95c18 0 27 10 27 30v25c-5.33301 -2 -11 -3 -17 -3c-18.667 0 -34.834 6.83301 -48.501 20.5s-20.5 30.167 -20.5 49.5s6.83301 35.833 20.5 49.5s30.167 20.5 49.5 20.5s35.833 -6.83301 49.5 -20.5s20.5 -30.167 20.5 -49.5v-98
c0 -22.667 -7.16699 -41.334 -21.5 -56.001s-32.833 -22 -55.5 -22h-99v-250h-78v68h-12c-11.333 -24 -26.833 -43.667 -46.5 -59s-48.167 -23 -85.5 -23c-52 0 -93 15.333 -123 46s-45 75.334 -45 134.001v330h78v-316c0 -42 9.16699 -72.5 27.5 -91.5
s45.166 -28.5 80.499 -28.5c43.333 0 75.166 13.333 95.499 40s30.5 62.667 30.5 108v288z" />
    <glyph glyph-name="uni01CD" unicode="&#x1cd;" 
d="M456 174h-300l-51 -174h-90l212 700h158l212 -700h-90zM300 664l-121 -412h254l-121 412h-12zM448 892l-80 -118h-124l-80 118h84l52 -88h12l52 88h84z" />
    <glyph glyph-name="uni01CE" unicode="&#x1ce;" 
d="M447 84h-12.001c-16 -33.333 -38.167 -58 -66.5 -74s-58.166 -24 -89.499 -24c-32.667 0 -63 5.5 -91 16.5s-52.5 27.333 -73.5 49s-37.5 48.167 -49.5 79.5s-18 67.666 -18 108.999v16c0 40.667 6 76.667 18 108s28.5 57.833 49.5 79.5s45.5 38.167 73.5 49.5
s57.667 17 89 17c34 0 64.833 -7.5 92.5 -22.5s49.5 -38.167 65.5 -69.5h12v78h78v-394c0 -20 9 -30 27 -30h25v-72h-53c-22.667 0 -41.167 7.33301 -55.5 22s-21.5 33.334 -21.5 56.001v6zM286.999 60c23.333 0 44.832 4.33594 64.499 13.0029s36.5 21 50.5 37
s25 35.167 33 57.5s12 47.166 12 74.499v12c0 26.667 -4 51.167 -12 73.5s-19.167 41.5 -33.5 57.5s-31.333 28.5 -51 37.5s-40.834 13.5 -63.501 13.5c-23.333 0 -44.666 -4.33301 -63.999 -13s-36.166 -20.834 -50.499 -36.501s-25.5 -34.667 -33.5 -57
s-12 -46.833 -12 -73.5v-16c0 -56.667 14.833 -100.834 44.5 -132.501s68.167 -47.5 115.5 -47.5zM419.998 688.003l-80 -118h-124l-80 118h84l52 -88h12l52 88h84z" />
    <glyph glyph-name="uni01CF" unicode="&#x1cf;" 
d="M84 700h444v-78h-180v-544h180v-78h-444v78h180v544h-180v78zM448 892l-80 -118h-124l-80 118h84l52 -88h12l52 88h84z" />
    <glyph glyph-name="uni01D0" unicode="&#x1d0;" 
d="M99 72h174v352h-156v72h234v-424h162v-72h-414v72zM432 688l-80 -118h-124l-80 118h84l52 -88h12l52 88h84z" />
    <glyph glyph-name="uni01D1" unicode="&#x1d1;" 
d="M60 428c0 90.667 21.667 161 65 211s103.666 75 180.999 75s137.666 -25 180.999 -75s65 -120.333 65 -211v-156c0 -93.333 -21.667 -164.333 -65 -213s-103.666 -73 -180.999 -73s-137.666 24.333 -180.999 73s-65 119.667 -65 213v156zM306 64
c54 0 94.5 18.5 121.5 55.5s40.5 89.833 40.5 158.5v144c0 64 -13.5 115.667 -40.5 155s-67.5 59 -121.5 59s-94.5 -19.667 -121.5 -59s-40.5 -91 -40.5 -155v-144c0 -68.667 13.5 -121.5 40.5 -158.5s67.5 -55.5 121.5 -55.5zM448 892l-80 -118h-124l-80 118h84l52 -88h12
l52 88h84z" />
    <glyph glyph-name="uni01D2" unicode="&#x1d2;" 
d="M555 242c0 -41.333 -6.83105 -77.833 -20.498 -109.5s-31.834 -58.334 -54.501 -80.001s-49.167 -38.167 -79.5 -49.5s-61.833 -17 -94.5 -17c-33.333 0 -65 5.66699 -95 17s-56.333 27.833 -79 49.5s-40.834 48.334 -54.501 80.001s-20.5 68.167 -20.5 109.5v12
c0 40.667 6.83301 76.834 20.5 108.501s32 58.5 55 80.5s49.5 38.667 79.5 50s61.333 17 94 17s64 -5.66699 94 -17s56.5 -28 79.5 -50s41.333 -48.833 55 -80.5s20.5 -67.834 20.5 -108.501v-12zM306.002 60c24 0 46.1689 4.16699 66.502 12.5s38.166 20.5 53.499 36.5
s27.333 35.167 36 57.5s13 47.5 13 75.5v12c0 26.667 -4.33301 51.167 -13 73.5s-20.667 41.5 -36 57.5s-33.333 28.5 -54 37.5s-42.667 13.5 -66 13.5s-45.333 -4.5 -66 -13.5s-38.667 -21.5 -54 -37.5s-27.333 -35.167 -36 -57.5s-13 -46.833 -13 -73.5v-12
c0 -28 4.33301 -53.167 13 -75.5s20.667 -41.5 36 -57.5s33.166 -28.167 53.499 -36.5s42.5 -12.5 66.5 -12.5zM448.004 688l-80 -118h-124l-80 118h84l52 -88h12l52 88h84z" />
    <glyph glyph-name="uni01D3" unicode="&#x1d3;" 
d="M150 700l0.00390625 -464c0 -56.667 13.167 -99.5 39.5 -128.5s65.166 -43.5 116.499 -43.5s90.166 14.5 116.499 43.5s39.5 71.833 39.5 128.5v464h84v-464c0 -81.333 -21.333 -143.333 -64 -186s-101.334 -64 -176.001 -64s-133.334 21.333 -176.001 64
s-64 104.667 -64 186v464h84zM448.004 892l-80 -118h-124l-80 118h84l52 -88h12l52 88h84z" />
    <glyph glyph-name="uni01D4" unicode="&#x1d4;" 
d="M441 496h78v-496h-78v90h-12c-16 -32 -37 -57.333 -63 -76s-59 -28 -99 -28c-27.333 0 -52.5 4.5 -75.5 13.5s-42.667 22.5 -59 40.5s-29 40.333 -38 67s-13.5 57.667 -13.5 93v296h78v-286c0 -52 10.667 -90 32 -114s54 -36 98 -36c47.333 0 84.5 16.167 111.5 48.5
s40.5 75.5 40.5 129.5v258zM443 688l-80 -118h-124l-80 118h84l52 -88h12l52 88h84z" />
    <glyph glyph-name="uni01D5" unicode="&#x1d5;" 
d="M476 900h-340v66h340v-66zM150 700l0.00390625 -464c0 -56.667 13.167 -99.5 39.5 -128.5s65.166 -43.5 116.499 -43.5s90.166 14.5 116.499 43.5s39.5 71.833 39.5 128.5v464h84v-464c0 -81.333 -21.333 -143.333 -64 -186s-101.334 -64 -176.001 -64
s-133.334 21.333 -176.001 64s-64 104.667 -64 186v464h84zM136.004 800c0 19.333 6.83301 35.833 20.5 49.5s30.167 20.5 49.5 20.5s35.833 -6.83301 49.5 -20.5s20.5 -30.167 20.5 -49.5s-6.83301 -35.833 -20.5 -49.5s-30.167 -20.5 -49.5 -20.5
s-35.833 6.83301 -49.5 20.5s-20.5 30.167 -20.5 49.5zM336.004 800c0 19.333 6.83301 35.833 20.5 49.5s30.167 20.5 49.5 20.5s35.833 -6.83301 49.5 -20.5s20.5 -30.167 20.5 -49.5s-6.83301 -35.833 -20.5 -49.5s-30.167 -20.5 -49.5 -20.5s-35.833 6.83301 -49.5 20.5
s-20.5 30.167 -20.5 49.5z" />
    <glyph glyph-name="uni01D6" unicode="&#x1d6;" 
d="M470 744h-340v66h340v-66zM441 496h78v-496h-78v90h-12c-16 -32 -37 -57.333 -63 -76s-59 -28 -99 -28c-27.333 0 -52.5 4.5 -75.5 13.5s-42.667 22.5 -59 40.5s-29 40.333 -38 67s-13.5 57.667 -13.5 93v296h78v-286c0 -52 10.667 -90 32 -114s54 -36 98 -36
c47.333 0 84.5 16.167 111.5 48.5s40.5 75.5 40.5 129.5v258zM130 644c0 19.333 6.83301 35.833 20.5 49.5s30.167 20.5 49.5 20.5s35.833 -6.83301 49.5 -20.5s20.5 -30.167 20.5 -49.5s-6.83301 -35.833 -20.5 -49.5s-30.167 -20.5 -49.5 -20.5
s-35.833 6.83301 -49.5 20.5s-20.5 30.167 -20.5 49.5zM330 644c0 19.333 6.83301 35.833 20.5 49.5s30.167 20.5 49.5 20.5s35.833 -6.83301 49.5 -20.5s20.5 -30.167 20.5 -49.5s-6.83301 -35.833 -20.5 -49.5s-30.167 -20.5 -49.5 -20.5s-35.833 6.83301 -49.5 20.5
s-20.5 30.167 -20.5 49.5z" />
    <glyph glyph-name="uni01D7" unicode="&#x1d7;" 
d="M150 700l0.00390625 -464c0 -56.667 13.167 -99.5 39.5 -128.5s65.166 -43.5 116.499 -43.5s90.166 14.5 116.499 43.5s39.5 71.833 39.5 128.5v464h84v-464c0 -81.333 -21.333 -143.333 -64 -186s-101.334 -64 -176.001 -64s-133.334 21.333 -176.001 64
s-64 104.667 -64 186v464h84zM136.004 800c0 19.333 6.83301 35.833 20.5 49.5s30.167 20.5 49.5 20.5s35.833 -6.83301 49.5 -20.5s20.5 -30.167 20.5 -49.5s-6.83301 -35.833 -20.5 -49.5s-30.167 -20.5 -49.5 -20.5s-35.833 6.83301 -49.5 20.5s-20.5 30.167 -20.5 49.5z
M336.004 800c0 19.333 6.83301 35.833 20.5 49.5s30.167 20.5 49.5 20.5s35.833 -6.83301 49.5 -20.5s20.5 -30.167 20.5 -49.5s-6.83301 -35.833 -20.5 -49.5s-30.167 -20.5 -49.5 -20.5s-35.833 6.83301 -49.5 20.5s-20.5 30.167 -20.5 49.5zM426.004 1018l-84 -118h-72
l66 118h90z" />
    <glyph glyph-name="uni01D8" unicode="&#x1d8;" 
d="M441 496h78v-496h-78v90h-12c-16 -32 -37 -57.333 -63 -76s-59 -28 -99 -28c-27.333 0 -52.5 4.5 -75.5 13.5s-42.667 22.5 -59 40.5s-29 40.333 -38 67s-13.5 57.667 -13.5 93v296h78v-286c0 -52 10.667 -90 32 -114s54 -36 98 -36c47.333 0 84.5 16.167 111.5 48.5
s40.5 75.5 40.5 129.5v258zM131 644c0 19.333 6.83301 35.833 20.5 49.5s30.167 20.5 49.5 20.5s35.833 -6.83301 49.5 -20.5s20.5 -30.167 20.5 -49.5s-6.83301 -35.833 -20.5 -49.5s-30.167 -20.5 -49.5 -20.5s-35.833 6.83301 -49.5 20.5s-20.5 30.167 -20.5 49.5z
M331 644c0 19.333 6.83301 35.833 20.5 49.5s30.167 20.5 49.5 20.5s35.833 -6.83301 49.5 -20.5s20.5 -30.167 20.5 -49.5s-6.83301 -35.833 -20.5 -49.5s-30.167 -20.5 -49.5 -20.5s-35.833 6.83301 -49.5 20.5s-20.5 30.167 -20.5 49.5zM420 862l-84 -118h-72l66 118h90z
" />
    <glyph glyph-name="uni01D9" unicode="&#x1d9;" 
d="M150 700l0.00390625 -464c0 -56.667 13.167 -99.5 39.5 -128.5s65.166 -43.5 116.499 -43.5s90.166 14.5 116.499 43.5s39.5 71.833 39.5 128.5v464h84v-464c0 -81.333 -21.333 -143.333 -64 -186s-101.334 -64 -176.001 -64s-133.334 21.333 -176.001 64
s-64 104.667 -64 186v464h84zM136.004 800c0 19.333 6.83301 35.833 20.5 49.5s30.167 20.5 49.5 20.5s35.833 -6.83301 49.5 -20.5s20.5 -30.167 20.5 -49.5s-6.83301 -35.833 -20.5 -49.5s-30.167 -20.5 -49.5 -20.5s-35.833 6.83301 -49.5 20.5s-20.5 30.167 -20.5 49.5z
M336.004 800c0 19.333 6.83301 35.833 20.5 49.5s30.167 20.5 49.5 20.5s35.833 -6.83301 49.5 -20.5s20.5 -30.167 20.5 -49.5s-6.83301 -35.833 -20.5 -49.5s-30.167 -20.5 -49.5 -20.5s-35.833 6.83301 -49.5 20.5s-20.5 30.167 -20.5 49.5zM448.004 1018l-80 -118h-124
l-80 118h84l52 -88h12l52 88h84z" />
    <glyph glyph-name="uni01DA" unicode="&#x1da;" 
d="M441 496h78v-496h-78v90h-12c-16 -32 -37 -57.333 -63 -76s-59 -28 -99 -28c-27.333 0 -52.5 4.5 -75.5 13.5s-42.667 22.5 -59 40.5s-29 40.333 -38 67s-13.5 57.667 -13.5 93v296h78v-286c0 -52 10.667 -90 32 -114s54 -36 98 -36c47.333 0 84.5 16.167 111.5 48.5
s40.5 75.5 40.5 129.5v258zM131 644c0 19.333 6.83301 35.833 20.5 49.5s30.167 20.5 49.5 20.5s35.833 -6.83301 49.5 -20.5s20.5 -30.167 20.5 -49.5s-6.83301 -35.833 -20.5 -49.5s-30.167 -20.5 -49.5 -20.5s-35.833 6.83301 -49.5 20.5s-20.5 30.167 -20.5 49.5z
M331 644c0 19.333 6.83301 35.833 20.5 49.5s30.167 20.5 49.5 20.5s35.833 -6.83301 49.5 -20.5s20.5 -30.167 20.5 -49.5s-6.83301 -35.833 -20.5 -49.5s-30.167 -20.5 -49.5 -20.5s-35.833 6.83301 -49.5 20.5s-20.5 30.167 -20.5 49.5zM443 862l-80 -118h-124l-80 118
h84l52 -88h12l52 88h84z" />
    <glyph glyph-name="uni01DB" unicode="&#x1db;" 
d="M150 700l0.00390625 -464c0 -56.667 13.167 -99.5 39.5 -128.5s65.166 -43.5 116.499 -43.5s90.166 14.5 116.499 43.5s39.5 71.833 39.5 128.5v464h84v-464c0 -81.333 -21.333 -143.333 -64 -186s-101.334 -64 -176.001 -64s-133.334 21.333 -176.001 64
s-64 104.667 -64 186v464h84zM277.004 1018l66 -118h-72l-84 118h90zM136.004 800c0 19.333 6.83301 35.833 20.5 49.5s30.167 20.5 49.5 20.5s35.833 -6.83301 49.5 -20.5s20.5 -30.167 20.5 -49.5s-6.83301 -35.833 -20.5 -49.5s-30.167 -20.5 -49.5 -20.5
s-35.833 6.83301 -49.5 20.5s-20.5 30.167 -20.5 49.5zM336.004 800c0 19.333 6.83301 35.833 20.5 49.5s30.167 20.5 49.5 20.5s35.833 -6.83301 49.5 -20.5s20.5 -30.167 20.5 -49.5s-6.83301 -35.833 -20.5 -49.5s-30.167 -20.5 -49.5 -20.5s-35.833 6.83301 -49.5 20.5
s-20.5 30.167 -20.5 49.5z" />
    <glyph glyph-name="uni01DC" unicode="&#x1dc;" 
d="M441 496h78v-496h-78v90h-12c-16 -32 -37 -57.333 -63 -76s-59 -28 -99 -28c-27.333 0 -52.5 4.5 -75.5 13.5s-42.667 22.5 -59 40.5s-29 40.333 -38 67s-13.5 57.667 -13.5 93v296h78v-286c0 -52 10.667 -90 32 -114s54 -36 98 -36c47.333 0 84.5 16.167 111.5 48.5
s40.5 75.5 40.5 129.5v258zM272 862l66 -118h-72l-84 118h90zM131 644c0 19.333 6.83301 35.833 20.5 49.5s30.167 20.5 49.5 20.5s35.833 -6.83301 49.5 -20.5s20.5 -30.167 20.5 -49.5s-6.83301 -35.833 -20.5 -49.5s-30.167 -20.5 -49.5 -20.5
s-35.833 6.83301 -49.5 20.5s-20.5 30.167 -20.5 49.5zM331 644c0 19.333 6.83301 35.833 20.5 49.5s30.167 20.5 49.5 20.5s35.833 -6.83301 49.5 -20.5s20.5 -30.167 20.5 -49.5s-6.83301 -35.833 -20.5 -49.5s-30.167 -20.5 -49.5 -20.5s-35.833 6.83301 -49.5 20.5
s-20.5 30.167 -20.5 49.5z" />
    <glyph glyph-name="uni01E6" unicode="&#x1e6;" 
d="M239 336l311.999 0.000976562v-336h-78v84h-12c-11.333 -29.333 -31.333 -53 -60 -71s-62 -27 -100 -27c-75.333 0 -134.5 24.333 -177.5 73s-64.5 119.667 -64.5 213v156c0 90.667 21.667 161 65 211s103.666 75 180.999 75c40 0 75.333 -6.5 106 -19.5
s56.334 -31 77.001 -54s36.334 -50 47.001 -81s16 -64.167 16 -99.5v-12h-84v12c0 22.667 -3.16699 44.667 -9.5 66s-16 40.166 -29 56.499s-29.667 29.333 -50 39s-44.833 14.5 -73.5 14.5c-54 0 -94.5 -19.667 -121.5 -59s-40.5 -91 -40.5 -155v-144
c0 -68.667 13.5 -121.5 40.5 -158.5s68.167 -55.5 123.5 -55.5c50 0 89.167 16 117.5 48s42.5 76.667 42.5 134v12h-228v78zM447.999 892.001l-80 -118h-124l-80 118h84l52 -88h12l52 88h84z" />
    <glyph glyph-name="uni01E7" unicode="&#x1e7;" 
d="M464 76h-12.001c-16 -30 -37.833 -52.5 -65.5 -67.5s-57.834 -22.5 -90.501 -22.5c-33.333 0 -64.666 5.66699 -93.999 17s-55.166 27.666 -77.499 48.999s-40 47.833 -53 79.5s-19.5 67.834 -19.5 108.501v16c0 40 6.66699 75.833 20 107.5s31 58.334 53 80.001
s47.667 38.167 77 49.5s60 17 92 17c36 0 67.5 -7.83301 94.5 -23.5s48.167 -38.5 63.5 -68.5h12v78h78v-618c0 -22.667 -7.16699 -41.334 -21.5 -56.001s-32.833 -22 -55.5 -22h-323v72h295c18 0 27 10 27 30v174zM297.999 60c23.333 0 44.999 4.33398 64.999 13.001
s37.5 21 52.5 37s26.833 35.167 35.5 57.5s13 47.166 13 74.499v12c0 26.667 -4.33301 51.167 -13 73.5s-20.5 41.5 -35.5 57.5s-32.667 28.5 -53 37.5s-41.833 13.5 -64.5 13.5c-23.333 0 -45.166 -4.33301 -65.499 -13s-38 -21 -53 -37s-26.667 -35 -35 -57
s-12.5 -46.333 -12.5 -73v-16c0 -28 4.16699 -53 12.5 -75s20 -40.833 35 -56.5s32.5 -27.667 52.5 -36s42 -12.5 66 -12.5zM435.998 688.001l-80 -118h-124l-80 118h84l52 -88h12l52 88h84z" />
    <glyph glyph-name="uni01EA" unicode="&#x1ea;" 
d="M60 428c0 90.667 21.6689 161 65.002 211s103.666 75 180.999 75s137.666 -25 180.999 -75s65 -120.333 65 -211v-156c0 -87.333 -18.833 -155 -56.5 -203s-90.167 -75 -157.5 -81l-13 -56c-0.666992 -3.33301 -1 -6 -1 -8c0 -14.667 7.66699 -22 23 -22h42v-66h-56
c-19.333 0 -37.166 6.16699 -53.499 18.5s-24.5 30.833 -24.5 55.5c0 6 1 14 3 24l12 54c-66.667 7.33301 -118.334 35 -155.001 83s-55 115 -55 201v156zM306.002 64c54 0 94.5 18.5 121.5 55.5s40.5 89.833 40.5 158.5v144c0 64 -13.5 115.667 -40.5 155
s-67.5 59 -121.5 59s-94.5 -19.667 -121.5 -59s-40.5 -91 -40.5 -155v-144c0 -68.667 13.5 -121.5 40.5 -158.5s67.5 -55.5 121.5 -55.5z" />
    <glyph glyph-name="uni01EB" unicode="&#x1eb;" 
d="M555 242c0 -37.333 -5.66992 -71.002 -17.0029 -101.002s-26.833 -55.667 -46.5 -77s-42.667 -38.5 -69 -51.5s-54.166 -21.167 -83.499 -24.5l-13 -56c-0.666992 -3.33301 -1 -6 -1 -8c0 -14.667 7.66699 -22 23 -22h42v-66h-56c-19.333 0 -37.166 6.16699 -53.499 18.5
s-24.5 30.833 -24.5 55.5c0 6 1 14 3 24l12 54c-29.333 4 -57 12.333 -83 25s-48.667 29.834 -68 51.501s-34.666 47.334 -45.999 77.001s-17 63.167 -17 100.5v12c0 40.667 6.83301 76.834 20.5 108.501s32 58.5 55 80.5s49.5 38.667 79.5 50s61.333 17 94 17
s64 -5.66699 94 -17s56.5 -28 79.5 -50s41.333 -48.833 55 -80.5s20.5 -67.834 20.5 -108.501v-12zM305.997 59.998c24 0 46.1689 4.16699 66.502 12.5s38.166 20.5 53.499 36.5s27.333 35.167 36 57.5s13 47.5 13 75.5v12c0 26.667 -4.33301 51.167 -13 73.5
s-20.667 41.5 -36 57.5s-33.333 28.5 -54 37.5s-42.667 13.5 -66 13.5s-45.333 -4.5 -66 -13.5s-38.667 -21.5 -54 -37.5s-27.333 -35.167 -36 -57.5s-13 -46.833 -13 -73.5v-12c0 -28 4.33301 -53.167 13 -75.5s20.667 -41.5 36 -57.5s33.166 -28.167 53.499 -36.5
s42.5 -12.5 66.5 -12.5z" />
    <glyph glyph-name="uni0218" unicode="&#x218;" 
d="M471 498c0 22.667 -4.5 42.666 -13.5 59.999s-21.167 31.666 -36.5 42.999s-33 20 -53 26s-41 9 -63 9c-19.333 0 -37.666 -2.5 -54.999 -7.5s-32.833 -12.167 -46.5 -21.5s-24.5 -20.833 -32.5 -34.5s-12 -29.5 -12 -47.5v-6c0 -19.333 4 -35.833 12 -49.5
s19.833 -25.334 35.5 -35.001s35.167 -17.667 58.5 -24s50.666 -11.833 81.999 -16.5c73.333 -11.333 127.333 -32.833 162 -64.5s52 -74.167 52 -127.5v-12c0 -30 -5.16699 -57.5 -15.5 -82.5s-25.666 -46.5 -45.999 -64.5s-45.5 -32 -75.5 -42s-64.667 -15 -104 -15
c-44.667 0 -84.167 6.5 -118.5 19.5s-63 31 -86 54s-40.5 50 -52.5 81s-18 64.833 -18 101.5v30h84v-24c0 -61.333 16.833 -107.333 50.5 -138s80.5 -46 140.5 -46c52 0 91.167 11.5 117.5 34.5s39.5 53.5 39.5 91.5v6c0 36.667 -13.5 64.667 -40.5 84
s-70.833 33.333 -131.5 42c-35.333 4.66699 -67.166 11.834 -95.499 21.501s-52.5 22.334 -72.5 38.001s-35.333 34.5 -46 56.5s-16 48 -16 78v12c0 27.333 5.66699 52.333 17 75s27.166 42.334 47.499 59.001s44.666 29.5 72.999 38.5s59.5 13.5 93.5 13.5
c39.333 0 74.5 -5.66699 105.5 -17s57.167 -26.5 78.5 -45.5s37.5 -41.333 48.5 -67s16.5 -52.5 16.5 -80.5v-42h-84v36zM250 -113.001c0 19.333 6.83398 35.834 20.501 49.501s30.167 20.5 49.5 20.5s35.833 -6.83301 49.5 -20.5s20.5 -30.167 20.5 -49.5v-98
c0 -22.667 -7.16699 -41.334 -21.5 -56.001s-32.833 -22 -55.5 -22h-51v54h47c18 0 27 10 27 30v25c-5.33301 -2 -11 -3 -17 -3c-18.667 0 -34.834 6.83301 -48.501 20.5s-20.5 30.167 -20.5 49.5z" />
    <glyph glyph-name="uni0219" unicode="&#x219;" 
d="M190 368c0 -24 10.1641 -42.332 30.4971 -54.999s57.5 -21 111.5 -25c58 -4.66699 102.167 -18.5 132.5 -41.5s45.5 -56.5 45.5 -100.5v-6c0 -24 -4.83301 -45.5 -14.5 -64.5s-23 -35.167 -40 -48.5s-37.667 -23.5 -62 -30.5s-50.833 -10.5 -79.5 -10.5
c-38.667 0 -71.834 5.16699 -99.501 15.5s-50.667 24 -69 41s-32.166 36.333 -41.499 58s-14.666 43.5 -15.999 65.5l74 18c3.33301 -38 18 -68.5 44 -91.5s60.667 -34.5 104 -34.5c36.667 0 66.167 7.16699 88.5 21.5s33.5 34.5 33.5 60.5c0 28 -11 48 -33 60
s-57.667 19.667 -107 23c-57.333 4 -101.333 17.333 -132 40s-46 55.667 -46 99v6c0 23.333 5 43.833 15 61.5s23.5 32.5 40.5 44.5s36.167 21 57.5 27s43.666 9 66.999 9c32.667 0 61.334 -4.5 86.001 -13.5s45.334 -20.667 62.001 -35s29.5 -30.833 38.5 -49.5
s14.833 -37.334 17.5 -56.001l-74 -18c-3.33301 32 -16.166 57 -38.499 75s-51.5 27 -87.5 27c-14 0 -27.5 -1.5 -40.5 -4.5s-24.5 -7.5 -34.5 -13.5s-18 -13.5 -24 -22.5s-9 -19.5 -9 -31.5zM243.997 -122.999c0 19.333 6.83398 35.834 20.501 49.501
s30.167 20.5 49.5 20.5s35.833 -6.83301 49.5 -20.5s20.5 -30.167 20.5 -49.5v-98c0 -22.667 -7.16699 -41.334 -21.5 -56.001s-32.833 -22 -55.5 -22h-51v54h47c18 0 27 10 27 30v25c-5.33301 -2 -11 -3 -17 -3c-18.667 0 -34.834 6.83301 -48.501 20.5
s-20.5 30.167 -20.5 49.5z" />
    <glyph glyph-name="uni021A" unicode="&#x21a;" 
d="M60 700h492v-78h-204v-622h-84v622h-204v78zM236 -113c0 19.333 6.83398 35.834 20.501 49.501s30.167 20.5 49.5 20.5s35.833 -6.83301 49.5 -20.5s20.5 -30.167 20.5 -49.5v-98c0 -22.667 -7.16699 -41.334 -21.5 -56.001s-32.833 -22 -55.5 -22h-51v54h47
c18 0 27 10 27 30v25c-5.33301 -2 -11 -3 -17 -3c-18.667 0 -34.834 6.83301 -48.501 20.5s-20.5 30.167 -20.5 49.5z" />
    <glyph glyph-name="uni021B" unicode="&#x21b;" 
d="M70 496l156 -0.000976562v204h78v-204h192v-72h-192v-322c0 -20 9 -30 27 -30h141v-72h-169c-22.667 0 -41.167 7.33301 -55.5 22s-21.5 33.334 -21.5 56.001v346h-156v72zM227 -123.001c0 19.333 6.83398 35.834 20.501 49.501s30.167 20.5 49.5 20.5
s35.833 -6.83301 49.5 -20.5s20.5 -30.167 20.5 -49.5v-98c0 -22.667 -7.16699 -41.334 -21.5 -56.001s-32.833 -22 -55.5 -22h-51v54h47c18 0 27 10 27 30v25c-5.33301 -2 -11 -3 -17 -3c-18.667 0 -34.834 6.83301 -48.501 20.5s-20.5 30.167 -20.5 49.5z" />
    <glyph glyph-name="uni0237" unicode="&#x237;" 
d="M141 496l276 0.000976562v-618c0 -22.667 -7.16699 -41.334 -21.5 -56.001s-32.833 -22 -55.5 -22h-223v72h195c18 0 27 10 27 30v522h-198v72z" />
    <glyph glyph-name="uni0243" unicode="&#x243;" 
d="M57 234l60 -0.00292969v388h-60v78h283c33.333 0 62.833 -4.66699 88.5 -14s47.334 -22 65.001 -38s31 -35.167 40 -57.5s13.5 -46.5 13.5 -72.5v-12c0 -19.333 -3 -37 -9 -53s-14.333 -30.333 -25 -43s-23.167 -23.5 -37.5 -32.5s-29.833 -15.833 -46.5 -20.5v-12
c33.333 -9.33301 61.333 -27.166 84 -53.499s34 -58.5 34 -96.5v-12c0 -26 -4.5 -50.167 -13.5 -72.5s-22.333 -41.666 -40 -57.999s-39.334 -29.166 -65.001 -38.499s-55.167 -14 -88.5 -14h-283v78h60v78h-60v78zM201 389.997h136c40 0 71.667 10.333 95 31s35 49 35 85v6
c0 34 -12.333 60.833 -37 80.5s-56.667 29.5 -96 29.5h-133v-232zM201 233.997l108 -0.000976562v-78h-108v-78h133c39.333 0 71.333 9.83301 96 29.5s37 46.834 37 81.501v6c0 36 -11.667 64.5 -35 85.5s-55 31.5 -95 31.5h-136v-78z" />
    <glyph glyph-name="uni0250" unicode="&#x250;" 
d="M192.025 412.005l11.999 -0.00390625c13.332 29.998 32.6641 53.8301 57.9961 71.4961c25.332 17.665 56.9971 26.498 94.9941 26.498c27.3311 0 51.8291 -4 73.4941 -11.999s39.9971 -18.832 54.9961 -32.498s26.332 -29.498 33.999 -47.4971
c7.66602 -17.999 11.499 -37.3311 11.499 -57.9971v-11.999c0 -23.332 -4.5 -44.4971 -13.499 -63.4961s-21.332 -34.998 -36.998 -47.9971c-15.665 -12.999 -34.1641 -22.998 -55.4961 -29.9971s-44.6641 -10.499 -69.9961 -10.499h-162.99v-19.999
c0 -14.666 2.5 -28.998 7.5 -42.9971c4.99902 -13.999 12.665 -26.498 22.998 -37.4971s23.499 -19.998 39.498 -26.9971c15.999 -7 35.3311 -10.5 57.9961 -10.5c34.665 0 62.8301 9.16602 84.4951 27.499c21.665 18.332 35.1641 45.1641 40.4971 80.4951l73.9961 -17.999
c-4 -21.999 -11 -42.6641 -20.999 -61.9961c-9.99902 -19.333 -23.3311 -36.499 -39.9961 -51.498c-16.666 -14.999 -36.498 -26.832 -59.4971 -35.498c-22.998 -8.66602 -49.1631 -12.999 -78.4951 -12.999c-30.665 0 -58.6631 4.66602 -83.9941 13.999
c-25.332 9.33301 -46.9971 22.499 -64.9961 39.498s-31.998 36.998 -41.9971 59.9971s-14.999 48.1641 -14.999 75.4951v218.986c0 19.999 -8.99902 29.998 -26.998 29.998h-24.999v71.9961h52.9971c22.665 0 41.1641 -7.33301 55.4971 -21.999
c14.332 -14.665 21.498 -33.3301 21.498 -55.9951v-6zM350.015 438c-51.3301 0 -90.3271 -14.4971 -116.992 -43.4961c-26.665 -28.998 -39.998 -67.1621 -39.998 -114.492v-12h152.991c33.9971 0 60.4951 7 79.4941 20.999s28.498 35.6641 28.498 64.9951
c0 24.665 -8.99902 44.8301 -26.998 60.4951c-17.999 15.666 -43.6641 23.499 -76.9951 23.499z" />
    <glyph glyph-name="uni0251" unicode="&#x251;" 
d="M447 84h-12.001c-16 -33.333 -38.167 -58 -66.5 -74s-58.166 -24 -89.499 -24c-32.667 0 -63 5.5 -91 16.5s-52.5 27.333 -73.5 49s-37.5 48.167 -49.5 79.5s-18 67.666 -18 108.999v16c0 40.667 6 76.667 18 108s28.5 57.833 49.5 79.5s45.5 38.167 73.5 49.5
s57.667 17 89 17c34 0 64.833 -7.5 92.5 -22.5s49.5 -38.167 65.5 -69.5h12v78h78v-394c0 -20 9 -30 27 -30h25v-72h-53c-22.667 0 -41.167 7.33301 -55.5 22s-21.5 33.334 -21.5 56.001v6zM286.999 60c23.333 0 44.832 4.33594 64.499 13.0029s36.5 21 50.5 37
s25 35.167 33 57.5s12 47.166 12 74.499v12c0 26.667 -4 51.167 -12 73.5s-19.167 41.5 -33.5 57.5s-31.333 28.5 -51 37.5s-40.834 13.5 -63.501 13.5c-23.333 0 -44.666 -4.33301 -63.999 -13s-36.166 -20.834 -50.499 -36.501s-25.5 -34.667 -33.5 -57
s-12 -46.833 -12 -73.5v-16c0 -56.667 14.833 -100.834 44.5 -132.501s68.167 -47.5 115.5 -47.5z" />
    <glyph glyph-name="uni0252" unicode="&#x252;" 
d="M177.027 412.005l12 -0.00195312c15.999 33.3311 38.1641 57.9961 66.4951 73.9951s58.1621 23.998 89.4932 23.998c32.665 0 62.9971 -5.5 90.9961 -16.499c27.998 -10.999 52.4961 -27.3311 73.4951 -48.9961s37.498 -48.1631 49.4971 -79.4941
s17.999 -67.6621 17.999 -108.993v-15.999c0 -40.6641 -6 -76.6621 -17.999 -107.993s-28.498 -57.8291 -49.4971 -79.4941s-45.4971 -38.1641 -73.4951 -49.4971c-27.999 -11.333 -57.6641 -16.999 -88.9951 -16.999c-33.998 0 -64.8291 7.49902 -92.4941 22.498
s-49.4971 38.1641 -65.4961 69.4951h-11.999v-77.9951h-77.9951v393.976c0 19.999 -9 29.998 -26.999 29.998h-24.998v71.9961h52.9971c22.665 0 41.1641 -7.33301 55.4961 -21.999c14.333 -14.665 21.499 -33.3301 21.499 -55.9951v-6zM337.019 436.002
c-23.332 0 -44.8311 -4.33203 -64.4961 -12.998c-19.665 -8.66699 -36.4971 -21 -50.4961 -36.999s-24.998 -35.165 -32.9971 -57.4971c-7.99902 -22.3311 -11.999 -47.1631 -11.999 -74.4951v-11.999c0 -26.665 4 -51.1641 11.999 -73.4961
c7.99902 -22.3311 19.165 -41.4961 33.498 -57.4951s31.332 -28.498 50.9971 -37.498c19.665 -8.99902 40.8301 -13.499 63.4951 -13.499c23.332 0 44.6641 4.33301 63.9961 12.999c19.332 8.66699 36.1641 20.833 50.4971 36.498
c14.332 15.666 25.498 34.665 33.498 56.9971c7.99902 22.3311 11.999 46.8291 11.999 73.4941v15.999c0 56.6631 -14.832 100.827 -44.4971 132.492s-68.1631 47.4971 -115.494 47.4971z" />
    <glyph glyph-name="uni0254" unicode="&#x254;" 
d="M59.0332 176c5.33301 -27.333 14.501 -52.666 27.5 -75.999s29.498 -43.5 49.4971 -60.5s43.3311 -30.167 69.9961 -39.5s56.3301 -14 88.9951 -14c34.6641 0 67.4951 5.66699 98.4941 17c30.998 11.333 58.1631 27.833 81.4941 49.5
c23.332 21.667 41.8311 48.167 55.4971 79.5s20.499 67.333 20.499 108v12c0 40 -6.83301 76 -20.499 108s-32.165 59 -55.4971 81c-23.3311 22 -50.4961 39 -81.4941 51c-30.999 12 -63.8301 18 -98.4941 18c-31.3311 0 -60.3291 -4.66699 -86.9941 -14
s-50.1631 -22.5 -70.4951 -39.5c-20.333 -17 -36.999 -37.167 -49.998 -60.5s-21.832 -48.666 -26.499 -75.999l77.9951 -18c2 17.333 6.83301 34.166 14.5 50.499c7.66602 16.333 17.999 30.666 30.998 42.999s28.8311 22.166 47.4971 29.499
c18.665 7.33301 40.3301 11 64.9951 11c23.998 0 46.4961 -4.5 67.4951 -13.5s39.498 -21.667 55.4971 -38s28.498 -35.833 37.498 -58.5c8.99902 -22.667 13.499 -47.334 13.499 -74.001v-12c0 -28 -4.5 -53.167 -13.499 -75.5c-9 -22.333 -21.499 -41.166 -37.498 -56.499
s-34.665 -27.166 -55.9971 -35.499s-44.3301 -12.5 -68.9951 -12.5s-46.1641 3.83301 -64.4961 11.5c-18.333 7.66699 -33.999 17.667 -46.998 30s-23.332 26.5 -30.998 42.5c-7.66699 16 -12.833 32.667 -15.499 50z" />
    </font>
</defs>
</svg>
